<svg width="471" height="806" viewBox="0 0 471 806" fill="none" xmlns="http://www.w3.org/2000/svg">
<g clip-path="url(#clip0_1_445)">
<path d="M59.644 733.422L16.54 634.896L-20.91 613.628L-108.102 638.159L-143.095 583.493L-227.956 558.496L-164.988 465.788L-214.922 437.43L-194.118 366.276L-120.33 316.289L-175.212 251.221L-101.765 58.2979L45.6951 142.041L89.7191 109.945L197.388 171.09L230.083 229.804L370.442 249.74L389.503 303.388L341.617 387.711L353.4 454.176L274.192 506.437L232.435 579.966L282.593 637L218.616 749.655L59.644 733.422Z" stroke="#4574F5" stroke-opacity="0.25"/>
<path d="M75.414 439.685L58.466 437.985L40.599 427.838L34.571 409.426L39.365 393.437L33.527 386.493L41.4 365.856L57.106 374.776L76.748 384.117L91.711 386.217L93.732 391.948L88.607 400.971L76.924 421.545L82.26 427.63L75.414 439.685Z" stroke="#4574F5" stroke-opacity="0.25"/>
<path d="M60.074 710.992L19.634 619.98L-16.31 599.567L-97.026 621.503L-129.56 570.334L-207.709 546.645L-149.4 460.453L-195.942 433.742L-176.436 367.268L-108.021 320.333L-158.076 260.612L-89.676 82.8729L47.197 160.533L88.59 131.265L189.128 187.869L219.385 242.286L349.025 260.91L366.424 310.778L322.023 388.961L332.001 451.896L259.092 500.371L220.752 568.479L266.788 621.589L207.469 726.042L60.074 710.992Z" stroke="#4574F5" stroke-opacity="0.25"/>
<path d="M60.505 688.562L22.729 605.063L-11.709 585.506L-85.95 604.847L-116.024 557.174L-187.46 534.793L-133.811 455.117L-176.961 430.054L-158.752 368.259L-95.71 324.376L-140.94 270.004L-77.5849 107.447L48.7001 179.025L87.4621 152.586L180.869 204.647L208.689 254.769L327.609 272.079L343.344 318.167L302.43 390.211L310.603 449.616L243.992 494.305L209.069 556.991L250.984 606.177L196.323 702.428L60.505 688.562Z" stroke="#4574F5" stroke-opacity="0.25"/>
<path d="M60.935 666.132L25.823 590.146L-7.10799 571.445L-74.875 588.191L-102.488 544.015L-167.213 522.942L-118.223 449.782L-157.981 426.367L-141.069 369.251L-83.401 328.419L-123.805 279.396L-65.4949 132.023L50.202 197.518L86.3331 173.906L172.608 221.426L197.991 267.252L306.193 283.249L320.264 325.557L282.837 391.462L289.205 447.337L228.892 488.24L197.386 545.503L235.179 590.766L185.177 678.815L60.935 666.132Z" stroke="#4574F5" stroke-opacity="0.25"/>
<path d="M61.365 643.702L28.917 575.23L-2.50799 557.384L-63.799 571.534L-88.952 530.856L-146.965 511.091L-102.634 444.448L-139 422.679L-123.386 370.243L-71.091 332.463L-106.669 288.787L-53.406 156.597L51.705 216.01L85.2041 195.227L164.349 238.205L187.294 279.734L284.777 294.418L297.185 332.947L263.244 392.713L267.806 445.057L213.791 482.174L185.703 534.016L219.375 575.355L174.03 655.201L61.365 643.702Z" stroke="#4574F5" stroke-opacity="0.25"/>
<path d="M61.796 621.272L32.011 560.313L2.09299 543.322L-52.723 554.878L-75.416 517.696L-126.717 499.239L-87.0449 439.112L-120.019 418.991L-105.703 371.235L-58.78 336.506L-89.533 298.179L-41.3149 181.172L53.2071 234.503L84.076 216.547L156.089 254.983L176.597 292.217L263.361 305.587L274.105 340.337L243.651 393.963L246.408 442.777L198.691 476.108L174.021 522.528L203.571 559.943L162.884 631.588L61.796 621.272Z" stroke="#4574F5" stroke-opacity="0.25"/>
<path d="M62.226 598.842L35.105 545.396L6.69402 529.261L-41.647 538.222L-61.881 504.537L-106.469 487.387L-71.4569 433.777L-101.039 415.303L-88.02 372.227L-46.471 340.549L-72.398 307.57L-29.225 205.747L54.7091 252.995L82.947 237.868L147.829 271.762L165.9 304.7L241.944 316.757L251.026 347.727L224.058 395.213L225.01 440.498L183.591 470.043L162.338 511.04L187.766 544.532L151.737 607.975L62.226 598.842Z" stroke="#4574F5" stroke-opacity="0.25"/>
<path d="M62.656 576.412L38.199 530.48L11.294 515.201L-30.571 521.566L-48.3449 491.378L-86.221 475.536L-55.8679 428.443L-82.0579 411.616L-70.3369 373.219L-34.161 344.592L-55.262 316.962L-17.1359 230.322L56.212 271.488L81.819 259.189L139.569 288.541L155.203 317.182L220.528 327.927L227.946 355.117L204.465 396.464L203.612 438.218L168.491 463.977L150.655 499.552L171.962 529.121L140.591 584.361L62.656 576.412Z" stroke="#4574F5" stroke-opacity="0.25"/>
<path d="M63.087 553.982L41.294 515.564L15.895 501.14L-19.496 504.909L-34.809 478.219L-65.973 463.685L-40.28 423.108L-63.078 407.928L-52.654 374.211L-21.851 348.636L-38.127 326.354L-5.04595 254.897L57.714 289.98L80.69 280.51L131.309 305.32L144.506 329.665L199.112 339.096L204.866 362.506L184.872 397.715L182.214 435.939L153.391 457.912L138.972 488.065L156.157 513.71L129.444 560.748L63.087 553.982Z" stroke="#4574F5" stroke-opacity="0.25"/>
<path d="M63.517 531.551L44.388 500.647L20.496 487.078L-8.41998 488.253L-21.2739 465.059L-45.7249 451.833L-24.691 417.772L-44.0969 404.24L-34.97 375.203L-9.54094 352.679L-20.9909 335.745L7.04507 279.472L59.2171 308.472L79.5621 301.83L123.049 322.098L133.809 342.148L177.696 350.265L181.787 369.896L165.279 398.965L160.815 433.659L138.291 451.846L127.29 476.577L140.353 498.298L118.298 537.135L63.517 531.551Z" stroke="#4574F5" stroke-opacity="0.25"/>
<path d="M63.947 509.121L47.482 485.73L25.096 473.017L2.65604 471.597L-7.73797 451.9L-25.477 439.982L-9.10195 412.437L-25.116 400.553L-17.2869 376.195L2.76906 356.722L-3.85497 345.137L19.1351 304.047L60.719 326.965L78.4331 323.151L114.789 338.877L123.111 354.63L156.279 361.435L158.707 377.286L145.685 400.216L139.417 431.379L123.191 445.78L115.607 465.089L124.549 482.887L107.152 513.521L63.947 509.121Z" stroke="#4574F5" stroke-opacity="0.25"/>
<path d="M64.378 486.691L50.576 470.814L29.697 458.956L13.732 454.941L5.79804 438.741L-5.22998 428.13L6.48603 407.103L-6.13595 396.865L0.396036 377.187L15.0791 360.766L13.28 354.529L31.224 328.622L62.2211 345.457L77.304 344.471L106.529 355.656L112.414 367.113L134.863 372.605L135.627 384.676L126.092 401.466L118.019 429.1L108.09 439.715L103.924 453.601L108.744 467.476L96.005 489.908L64.378 486.691Z" stroke="#4574F5" stroke-opacity="0.25"/>
<path d="M64.8078 464.261L53.6698 455.897L34.2968 444.895L24.8078 438.284L19.3338 425.581L15.0178 416.278L22.0748 401.767L12.8448 393.177L18.0788 378.179L27.3888 364.809L30.4158 363.92L43.3148 353.196L63.7238 363.949L76.1758 365.792L98.2688 372.434L101.717 379.596L113.447 383.774L112.548 392.065L106.499 402.716L96.6208 426.82L92.9908 433.649L92.2408 442.113L92.9398 452.065L84.8588 466.294L64.8078 464.261Z" stroke="#4574F5" stroke-opacity="0.25"/>
</g>
<defs>
<clipPath id="clip0_1_445">
<rect width="471" height="806" fill="white" transform="translate(471 806) rotate(-180)"/>
</clipPath>
</defs>
</svg>
