<svg width="532" height="846" viewBox="0 0 532 846" fill="none" xmlns="http://www.w3.org/2000/svg">
<g clip-path="url(#clip0_1_498)">
<path d="M523.495 108.803L533.705 215.859L562.65 247.75L653.143 251.649L669.333 314.504L742.158 364.73L653.408 433.164L692.001 475.686L650.035 536.798L564.334 561.266L596.174 640.21L466.2 800.585L352.229 675.014L300.389 691.772L217.173 600.085L204.43 534.101L77.298 471.366L75.927 414.449L147.733 349.277L157.276 282.454L248.835 257.515L311.45 200.685L281.591 130.849L377.523 43.78L523.495 108.803Z" stroke="#4574F5" stroke-opacity="0.25"/>
<path d="M416.863 382.956L432.434 389.859L446.243 405.074L446.226 424.448L436.682 438.143L440.062 446.561L426.143 463.712L414.004 450.337L398.257 435.334L384.697 428.669L384.565 422.595L392.249 415.621L409.768 399.72L406.597 392.273L416.863 382.956Z" stroke="#4574F5" stroke-opacity="0.25"/>
<path d="M516.087 129.979L526.111 229.066L553.892 259.674L637.424 264.018L652.367 322.783L719.224 369.673L636.933 433.369L672.818 473.268L633.544 530.338L553.9 553.583L582.824 625.94L462.381 773.465L356.572 656.976L308.114 671.868L230.256 586.721L218.488 525.579L101.13 467.437L100.16 414.629L166.738 354.202L176.895 291.296L261.289 267.989L318.965 215.245L291.798 150.422L380.746 69.692L516.087 129.979Z" stroke="#4574F5" stroke-opacity="0.25"/>
<path d="M508.68 151.155L518.518 242.272L545.134 271.598L621.704 276.387L635.401 331.062L696.289 374.615L620.458 433.574L653.634 470.849L617.053 523.878L543.466 545.901L569.474 611.671L458.562 746.345L360.914 638.938L315.838 651.964L243.338 573.357L232.545 517.058L124.962 463.507L124.393 414.81L185.743 359.128L196.513 300.139L273.743 278.464L326.48 229.804L302.005 169.996L383.968 95.604L508.68 151.155Z" stroke="#4574F5" stroke-opacity="0.25"/>
<path d="M501.273 172.331L510.924 255.479L536.376 283.521L605.984 288.756L618.436 339.341L673.355 379.557L603.984 433.779L634.451 468.431L600.563 517.418L533.033 538.219L556.124 597.402L454.744 719.225L365.258 620.9L323.563 632.059L256.421 559.993L246.604 508.536L148.796 459.577L148.626 414.99L204.749 364.053L216.133 308.981L286.197 288.938L333.997 244.364L312.213 189.568L387.192 121.517L501.273 172.331Z" stroke="#4574F5" stroke-opacity="0.25"/>
<path d="M493.866 193.507L503.33 268.685L527.618 295.445L590.264 301.124L601.47 347.62L650.419 384.5L587.508 433.984L615.267 466.012L584.072 510.959L522.599 530.537L542.774 583.132L450.925 692.104L369.599 602.862L331.288 612.155L269.504 546.629L260.661 500.014L172.627 455.647L172.859 415.17L223.753 368.978L235.751 317.823L298.65 299.412L341.511 258.923L322.419 209.141L390.413 147.429L493.866 193.507Z" stroke="#4574F5" stroke-opacity="0.25"/>
<path d="M486.458 214.683L495.736 281.892L518.86 307.369L574.545 313.494L584.504 355.9L627.484 389.442L571.033 434.189L596.083 463.594L567.581 504.499L512.165 522.854L529.424 568.863L447.106 664.984L373.942 584.824L339.012 592.251L282.586 533.265L274.719 491.492L196.459 451.718L197.092 415.351L242.759 373.904L255.369 326.666L311.105 309.887L349.027 273.482L332.626 228.715L393.636 173.341L486.458 214.683Z" stroke="#4574F5" stroke-opacity="0.25"/>
<path d="M479.051 235.859L488.143 295.098L510.102 319.293L558.825 325.863L567.539 364.179L604.55 394.384L554.559 434.394L576.9 461.175L551.09 498.039L501.732 515.172L516.075 554.594L443.288 637.864L378.285 566.786L346.737 572.347L295.67 519.901L288.778 482.97L220.292 447.788L221.326 415.531L261.765 378.829L274.989 335.508L323.559 320.361L356.543 288.042L342.834 248.288L396.859 199.254L479.051 235.859Z" stroke="#4574F5" stroke-opacity="0.25"/>
<path d="M471.644 257.035L480.548 308.305L501.343 331.216L543.105 338.231L550.572 372.458L581.614 399.326L538.083 434.598L557.715 458.757L534.599 491.579L491.297 507.49L502.724 540.325L439.468 610.743L382.627 548.748L354.461 552.443L308.752 506.537L302.835 474.448L244.123 443.858L245.559 415.711L280.769 383.754L294.607 344.35L336.011 330.835L364.057 302.601L353.04 267.861L400.08 225.166L471.644 257.035Z" stroke="#4574F5" stroke-opacity="0.25"/>
<path d="M464.236 278.211L472.955 321.511L492.585 343.14L527.385 350.6L533.606 380.737L558.68 404.269L521.608 434.803L538.532 456.338L518.108 485.12L480.864 499.807L489.375 526.055L435.65 583.623L386.969 530.71L362.186 532.539L321.835 493.173L316.893 465.926L267.955 439.928L269.792 415.891L299.774 388.679L314.226 353.192L348.465 341.309L371.572 317.16L363.247 287.433L403.302 251.078L464.236 278.211Z" stroke="#4574F5" stroke-opacity="0.25"/>
<path d="M456.828 299.388L465.36 334.718L483.826 355.064L511.664 362.969L516.64 389.016L535.744 409.211L505.133 435.008L519.348 453.92L501.617 478.66L470.429 492.125L476.024 511.786L431.831 556.503L391.312 512.672L369.91 512.635L334.917 479.81L330.95 457.404L291.787 435.998L294.025 416.071L318.779 393.604L333.844 362.035L360.919 351.784L379.087 331.72L373.453 307.007L406.525 276.991L456.828 299.388Z" stroke="#4574F5" stroke-opacity="0.25"/>
<path d="M449.421 320.564L457.767 347.924L475.068 366.987L495.945 375.338L499.674 397.295L512.81 414.153L488.658 435.213L500.164 451.501L485.126 472.2L459.996 484.443L462.674 497.517L428.012 529.383L395.654 494.634L377.634 492.731L348 466.446L345.008 448.882L315.619 432.069L318.258 416.251L337.784 398.529L353.463 370.877L373.373 362.258L386.603 346.279L383.66 326.58L409.747 302.903L449.421 320.564Z" stroke="#4574F5" stroke-opacity="0.25"/>
<path d="M442.015 341.74L450.173 361.131L466.311 378.911L480.225 387.707L482.709 405.574L489.875 419.095L472.183 435.418L480.981 449.083L468.636 465.74L449.562 476.761L449.325 483.247L424.193 502.262L399.997 476.596L385.359 472.826L361.083 453.082L359.066 440.36L339.452 428.139L342.492 416.432L356.79 403.455L373.082 379.719L385.827 372.732L394.118 360.839L393.867 346.153L412.97 328.815L442.015 341.74Z" stroke="#4574F5" stroke-opacity="0.25"/>
<path d="M434.607 362.916L442.579 374.338L457.552 390.835L464.505 400.077L465.742 413.853L466.939 424.038L455.708 435.623L461.797 446.664L452.144 459.281L439.128 469.079L435.974 468.978L420.374 475.142L404.339 458.558L393.083 452.922L374.165 439.718L373.124 431.839L363.284 424.209L366.725 416.612L375.795 408.38L392.701 388.562L398.28 383.207L401.633 375.398L404.074 365.726L416.192 354.728L434.607 362.916Z" stroke="#4574F5" stroke-opacity="0.25"/>
</g>
<defs>
<clipPath id="clip0_1_498">
<rect width="532" height="846" fill="white" transform="translate(532 846) rotate(-180)"/>
</clipPath>
</defs>
</svg>
