<svg xmlns="http://www.w3.org/2000/svg" width="532" height="846" fill="none"><g stroke="#4574F5" stroke-opacity=".25" clip-path="url(#a)"><path d="m523.495 108.803 10.21 107.056 28.945 31.891 90.493 3.899 16.19 62.855 72.825 50.226-88.75 68.434 38.593 42.522-41.966 61.112-85.701 24.468 31.84 78.944L466.2 800.585 352.229 675.014l-51.84 16.758-83.216-91.687-12.743-65.984-127.132-62.735-1.371-56.917 71.806-65.172 9.543-66.823 91.559-24.939 62.615-56.83-29.859-69.836 95.932-87.069 145.972 65.023Z"/><path d="m416.863 382.956 15.571 6.903 13.809 15.215-.017 19.374-9.544 13.695 3.38 8.418-13.919 17.151-12.139-13.375-15.747-15.003-13.56-6.665-.132-6.074 7.684-6.974 17.519-15.901-3.171-7.447 10.266-9.317Z"/><path d="m516.087 129.979 10.024 99.087 27.781 30.608 83.532 4.344 14.943 58.765 66.857 46.89-82.291 63.696 35.885 39.899-39.274 57.07-79.644 23.245 28.924 72.357-120.443 147.525-105.809-116.489-48.458 14.892-77.858-85.147-11.768-61.142-117.358-58.142-.97-52.808 66.578-60.427 10.157-62.906 84.394-23.307 57.676-52.744-27.167-64.823 88.948-80.73 135.341 60.287Z"/><path d="m508.68 151.155 9.838 91.117 26.616 29.326 76.57 4.789 13.697 54.675 60.888 43.553-75.831 58.959 33.176 37.275-36.581 53.029-73.587 22.023 26.008 65.77-110.912 134.674-97.648-107.407-45.076 13.026-72.5-78.607-10.793-56.299-107.583-53.551-.569-48.697 61.35-55.682 10.77-58.989 77.23-21.675 52.737-48.66-24.475-59.808 81.963-74.392 124.712 55.551Z"/><path d="m501.273 172.331 9.651 83.148 25.452 28.042 69.608 5.235 12.452 50.585 54.919 40.216-69.371 54.222 30.467 34.652-33.888 48.987-67.53 20.801 23.091 59.183-101.38 121.823-89.486-98.325-41.695 11.159-67.142-72.066-9.817-51.457-97.808-48.959-.17-44.587 56.123-50.937 11.384-55.072 70.064-20.043 47.8-44.574-21.784-54.796 74.979-68.051 114.081 50.814Z"/><path d="m493.866 193.507 9.464 75.178 24.288 26.76 62.646 5.679 11.206 46.496 48.949 36.88-62.911 49.484 27.759 32.028-31.195 44.947-61.473 19.578 20.175 52.595-91.849 108.972-81.326-89.242-38.311 9.293-61.784-65.526-8.843-46.615-88.034-44.367.232-40.477 50.894-46.192 11.998-51.155 62.899-18.411 42.861-40.489-19.092-49.782 67.994-61.712 103.453 46.078Z"/><path d="m486.458 214.683 9.278 67.209 23.124 25.477 55.685 6.125 9.959 42.406 42.98 33.542-56.451 44.747 25.05 29.405-28.502 40.905-55.416 18.355 17.259 46.009-82.318 96.121-73.164-80.16-34.93 7.427-56.426-58.986-7.867-41.773-78.26-39.774.633-36.367 45.667-41.447 12.61-47.238 55.736-16.779 37.922-36.405-16.401-44.767 61.01-55.374 92.822 41.342Z"/><path d="m479.051 235.859 9.092 59.239 21.959 24.195 48.723 6.57 8.714 38.316 37.011 30.205-49.991 40.01 22.341 26.781-25.81 36.864-49.358 17.133 14.343 39.422-72.787 83.27-65.003-71.078-31.548 5.561-51.067-52.446-6.892-36.931-68.486-35.182 1.034-32.257 40.439-36.702 13.224-43.321 48.57-15.147 32.984-32.319-13.709-39.754 54.025-49.034 82.192 36.605Z"/><path d="m471.644 257.035 8.904 51.27 20.795 22.911 41.762 7.015 7.467 34.227 31.042 26.868-43.531 35.272 19.632 24.159-23.116 32.822-43.302 15.911 11.427 32.835-63.256 70.418-56.841-61.995-28.166 3.695-45.709-45.906-5.917-32.089-58.712-30.59 1.436-28.147 35.21-31.957 13.838-39.404 41.404-13.515 28.046-28.234-11.017-34.74 47.04-42.695 71.564 31.869Z"/><path d="m464.236 278.211 8.719 43.3 19.63 21.629 34.8 7.46 6.221 30.137 25.074 23.532-37.072 30.534 16.924 21.535-20.424 28.782-37.244 14.687 8.511 26.248-53.725 57.568-48.681-52.913-24.783 1.829-40.351-39.366-4.942-27.247-48.938-25.998 1.837-24.037 29.982-27.212 14.452-35.487 34.239-11.883 23.107-24.149-8.325-29.727 40.055-36.355 60.934 27.133Z"/><path d="m456.828 299.388 8.532 35.33 18.466 20.346 27.838 7.905 4.976 26.047 19.104 20.195-30.611 25.797 14.215 18.912-17.731 24.74-31.188 13.465 5.595 19.661-44.193 44.717-40.519-43.831-21.402-.037-34.993-32.825-3.967-22.406-39.163-21.406 2.238-19.927 24.754-22.467 15.065-31.569 27.075-10.251 18.168-20.064-5.634-24.713 33.072-30.016 50.303 22.397Z"/><path d="m449.421 320.564 8.346 27.36 17.301 19.063 20.877 8.351 3.729 21.957 13.136 16.858-24.152 21.06 11.506 16.288-15.038 20.699-25.13 12.243 2.678 13.074-34.662 31.866-32.358-34.749-18.02-1.903L348 466.446l-2.992-17.564-29.389-16.813 2.639-15.818 19.526-17.722 15.679-27.652 19.91-8.619 13.23-15.979-2.943-19.699 26.087-23.677 39.674 17.661Z"/><path d="m442.015 341.74 8.158 19.391 16.138 17.78 13.914 8.796 2.484 17.867 7.166 13.521-17.692 16.323 8.798 13.665-12.345 16.657-19.074 11.021-.237 6.486-25.132 19.015-24.196-25.666-14.638-3.77-24.276-19.744-2.017-12.722-19.614-12.221 3.04-11.707 14.298-12.977 16.292-23.736 12.745-6.987 8.291-11.893-.251-14.686 19.103-17.338 29.045 12.925Z"/><path d="m434.607 362.916 7.972 11.422 14.973 16.497 6.953 9.242 1.237 13.776 1.197 10.185-11.231 11.585 6.089 11.041-9.653 12.617-13.016 9.798-3.154-.101-15.6 6.164-16.035-16.584-11.256-5.636-18.918-13.204-1.041-7.879-9.84-7.63 3.441-7.597 9.07-8.232 16.906-19.818 5.579-5.355 3.353-7.809 2.441-9.672 12.118-10.998 18.415 8.188Z"/></g><defs><clipPath id="a"><path fill="#fff" d="M532 846H0V0h532z"/></clipPath></defs></svg>