<svg width="1072" height="487" viewBox="0 0 1072 487" fill="none" xmlns="http://www.w3.org/2000/svg">
<g clip-path="url(#clip0_1_476)">
<path d="M331.659 103.575C-35.6528 67.4439 61.1486 -285.114 255.662 -491.57C362.217 -614.697 237.97 -770.304 370.091 -922.787C502.213 -1075.27 622.142 -785.364 829.84 -1016.55C1037.54 -1247.74 1449.57 -937.278 1363.8 -698.363C1278.03 -459.447 1380.93 -494.566 1467.95 -189.149C1554.98 116.267 1154.04 420.071 930.875 220.271C707.714 20.4727 729.28 142.688 331.659 103.575Z" stroke="#E1E5EB"/>
<path d="M371.362 65.6582C34.1968 32.6666 119.292 -294.13 299.495 -484.675C399.451 -599.227 286.576 -744.536 408.352 -885.076C532.848 -1028.75 642.169 -762.608 834.523 -974.43C1027.65 -1186.61 1410.86 -902.802 1330.06 -678.261C1249.76 -455.025 1346.93 -487.629 1425.61 -204.954C1504.28 77.7205 1135.6 358.183 926.905 174.307C721.845 -8.16995 738.24 101.457 371.362 65.6582Z" stroke="#E1E5EB"/>
<path d="M411.065 27.7412C104.047 -2.111 177.436 -303.145 343.328 -477.781C436.686 -583.758 335.182 -718.766 446.613 -847.366C563.483 -982.233 662.199 -739.851 839.207 -932.308C1017.75 -1125.48 1372.14 -868.326 1296.32 -658.159C1221.49 -450.603 1312.94 -480.692 1383.26 -220.759C1453.58 39.1738 1117.17 296.297 922.935 128.342C735.975 -36.8128 747.2 60.2257 411.065 27.7412Z" stroke="#E1E5EB"/>
<path d="M450.77 -10.1755C173.899 -36.888 235.582 -312.16 387.163 -470.888C473.922 -568.288 383.79 -692.999 484.875 -809.655C594.123 -935.714 682.229 -717.093 843.893 -890.188C1007.86 -1064.36 1333.43 -833.847 1262.58 -638.057C1193.23 -446.179 1278.95 -473.755 1340.92 -236.563C1402.89 0.627706 1098.74 234.409 918.967 82.378C750.105 -65.4553 756.162 18.9948 450.77 -10.1755Z" stroke="#E1E5EB"/>
<path d="M490.478 -48.0922C243.753 -71.665 293.728 -321.173 430.999 -463.992C511.159 -552.818 432.398 -667.231 523.141 -771.945C624.763 -889.198 702.261 -694.336 848.581 -848.066C997.968 -1003.23 1294.72 -799.37 1228.84 -617.955C1164.96 -441.755 1244.96 -466.818 1298.57 -252.369C1352.19 -37.9184 1080.31 172.524 914.999 36.414C764.24 -94.0974 765.127 -22.2359 490.478 -48.0922Z" stroke="#E1E5EB"/>
<path d="M531.291 -85.5826C314.715 -106.016 352.985 -329.763 475.945 -456.671C549.506 -536.923 482.117 -641.036 562.512 -733.808C656.512 -842.252 723.403 -671.152 854.377 -805.519C989.184 -941.68 1257.12 -764.467 1196.21 -597.426C1137.81 -436.905 1212.07 -459.454 1257.34 -267.747C1302.61 -76.0384 1062.99 111.064 912.142 -9.12401C779.481 -122.314 775.2 -63.0405 531.291 -85.5826Z" stroke="#E1E5EB"/>
</g>
<defs>
<clipPath id="clip0_1_476">
<rect width="1072" height="487" fill="white"/>
</clipPath>
</defs>
</svg>
