<svg xmlns="http://www.w3.org/2000/svg" width="1072" height="487" fill="none"><g stroke="#E1E5EB" clip-path="url(#a)"><path d="M331.659 103.575C-35.653 67.444 61.149-285.114 255.662-491.57c106.555-123.127-17.692-278.734 114.429-431.217 132.122-152.483 252.051 137.423 459.749-93.763 207.7-231.19 619.73 79.272 533.96 318.187-85.77 238.916 17.13 203.797 104.15 509.214 87.03 305.416-313.91 609.22-537.075 409.42C707.714 20.473 729.28 142.688 331.659 103.575Z"/><path d="M371.362 65.658C34.197 32.667 119.292-294.13 299.495-484.675c99.956-114.552-12.919-259.861 108.857-400.401 124.496-143.674 233.817 122.468 426.171-89.354 193.127-212.18 576.337 71.628 495.537 296.169-80.3 223.236 16.87 190.632 95.55 473.307 78.67 282.675-290.01 563.137-498.705 379.261C721.845-8.17 738.24 101.457 371.362 65.658Z"/><path d="M411.065 27.741C104.047-2.11 177.436-303.145 343.328-477.78c93.358-105.977-8.146-240.985 103.285-369.585 116.87-134.867 215.586 107.515 392.594-84.942 178.543-193.172 532.933 63.982 457.113 274.149-74.83 207.556 16.62 177.467 86.94 437.4s-266.09 517.056-460.325 349.101C735.975-36.813 747.2 60.226 411.065 27.742Z"/><path d="M450.77-10.175C173.899-36.889 235.582-312.16 387.163-470.889c86.759-97.4-3.373-222.111 97.712-338.767 109.248-126.059 197.354 92.562 359.018-80.533 163.967-174.172 489.537 56.341 418.687 252.131-69.35 191.878 16.37 164.302 78.34 401.494C1402.89.627 1098.74 234.409 918.967 82.378 750.105-65.455 756.162 18.995 450.77-10.175Z"/><path d="M490.478-48.092c-246.725-23.573-196.75-273.081-59.479-415.9 80.16-88.826 1.399-203.239 92.142-307.953 101.622-117.253 179.12 77.609 325.44-76.121 149.387-155.164 446.139 48.696 380.259 230.111-63.88 176.2 16.12 151.137 69.73 365.586 53.62 214.45-218.26 424.893-383.571 288.783C764.24-94.097 765.127-22.236 490.478-48.092Z"/><path d="M531.291-85.583c-216.576-20.433-178.306-244.18-55.346-371.088 73.561-80.252 6.172-184.365 86.567-277.137 94-108.444 160.891 62.656 291.865-71.711 134.807-136.161 402.743 41.052 341.833 208.093-58.4 160.521 15.86 137.972 61.13 329.679 45.27 191.709-194.35 378.811-345.198 258.623C779.481-122.314 775.2-63.04 531.291-85.583Z"/></g><defs><clipPath id="a"><path fill="#fff" d="M0 0h1072v487H0z"/></clipPath></defs></svg>