<svg xmlns="http://www.w3.org/2000/svg" width="488" height="1232" fill="none"><g stroke="#E1E5EB" clip-path="url(#a)"><path d="M-756.242 315.046C-844.318-4.037-518.051-36.516-282.595 59.83c137.379 49.55 227.597-104.545 397.782-43.048C285.371 78.28 81.356 271.997 341.76 371.418c260.403 99.421 133.275 544.253-94.321 549.378S82.38 1000.74-145.216 1171.91c-227.598 171.17-611.026-66.62-515.682-317.736 95.345-251.115 0-193.717-95.344-539.128Z"/><path d="M-266.401 563.368c-10.161-30.39 37.437-79.418 75.712-58.494 35.049 19.161 70.74 6.238 94.32 14.78 62.076 22.487 39.242 34.391 66.992 61.098 33.768 32.501 49.881 117.603-27.75 117.603-63.848 0-44.744 31.003-92.553 44.74-47.81 13.736-102.029-9.647-102.029-71.208 0-23.119 2.235-57.902-14.692-108.519Z"/><path d="M-711.717 336.069c-80.994-292.837 219.94-326.82 437.471-237.33C-146.17 145.525-60.909 4.264 95.949 60.947 256.305 118.9 68.76 296.089 308.014 388.899c239.799 93.337 125.695 505.466-88.268 510.126C7.035 903.681 65.624 974.52-145.628 1131.38c-211.252 156.85-564.752-61.45-478.077-295.33 86.677-230.388.203-181.368-88.012-499.981Z"/><path d="M-667.192 357.095c-73.91-266.593 201.691-302.08 401.296-219.447 118.772 44.024 199.077-84.403 342.606-32.534 150.53 54.404-20.545 215.064 197.558 301.266 219.196 87.252 118.113 466.679-82.217 470.872C-5.773 881.446 48.868 948.3-146.04 1090.84c-194.908 142.55-518.481-56.26-440.472-272.909 78.01-209.661.406-169.024-80.68-460.836Z"/><path d="M-622.668 378.121c-66.825-240.347 183.441-277.339 365.121-201.563 109.47 41.262 184.817-74.332 315.019-27.277 140.701 50.859-13.902 194.99 183.05 274.58 198.594 81.171 110.532 427.894-76.164 431.621-182.938 3.726-132.246 66.599-310.81 194.828-178.564 128.23-472.207-51.08-402.866-250.5 69.341-188.933.609-156.675-73.35-421.689Z"/><path d="M-578.141 399.149c-59.745-214.102 165.19-252.598 328.943-183.678C-149.03 253.968-78.64 151.209 38.234 193.45c130.873 47.313-7.259 174.916 168.543 247.895 177.991 75.086 102.951 389.107-70.112 392.368-168.052 3.262-121.308 62.15-283.528 176.067-162.219 113.92-425.936-45.901-365.262-228.087 60.674-168.208.812-144.329-66.016-382.544Z"/><path d="M-533.614 421.244c-52.661-187.859 146.938-227.86 292.768-165.796 90.864 35.737 156.297-54.19 259.843-16.764 121.045 43.766-.616 154.841 154.036 221.211 157.386 69.002 95.369 350.32-64.061 353.116-153.165 2.794-110.37 57.699-256.246 157.307-145.875 99.612-379.663-40.724-327.657-205.678 52.005-147.48 1.015-131.982-58.683-343.396Z"/><path d="M-489.087 444.598c-45.579-161.613 128.689-203.12 256.59-147.914C-150.934 329.659-90.458 252.566-.24 285.18 110.977 325.4 5.787 419.944 139.29 479.703c136.784 62.92 87.789 311.534-58.01 313.865-138.278 2.329-99.431 53.251-228.963 138.546-129.531 85.296-333.392-35.544-290.052-183.267 43.338-126.753 1.218-119.635-51.351-304.249Z"/><path d="M-444.56 468.023c-38.494-135.371 110.438-178.38 220.416-130.031 72.259 30.212 127.778-34.047 204.669-6.248 101.388 36.673 12.67 114.691 125.021 167.839 116.18 56.836 80.207 272.748-51.957 274.611-123.393 1.863-88.495 48.8-201.682 119.787-113.186 70.985-287.119-30.365-252.448-160.857 34.67-106.026 1.423-107.286-44.019-265.101Z"/><path d="M-400.029 491.548c-31.412-109.126 92.187-153.64 184.239-112.147 62.956 27.448 113.518-23.976 177.081-.99 91.56 33.126 19.314 94.613 110.514 141.153 95.578 50.752 72.626 233.961-45.905 235.359-108.507 1.398-77.557 44.352-174.4 101.024-96.843 56.672-240.846-25.185-214.843-138.443 26.004-85.299 1.626-94.942-36.686-225.956Z"/><path d="M-355.498 515.22c-24.328-82.88 73.938-128.899 148.065-94.262 53.654 24.686 99.258-13.904 149.494 4.266 81.732 29.581 25.956 74.539 96.007 114.468 74.974 44.667 65.044 195.176-39.854 196.107-93.62.933-66.62 39.902-147.118 82.263-80.497 42.36-194.574-20.005-177.238-116.031 17.334-64.573 1.829-82.595-29.356-186.811Z"/><path d="M-310.956 539.12c-17.246-56.635 55.687-104.158 111.887-76.38 44.351 21.924 84.999-3.833 121.906 9.524 71.905 26.034 32.6 54.466 81.5 87.784C58.708 598.631 61.8 716.436-29.465 716.901c-78.734.467-55.681 35.453-119.835 63.502-64.154 28.05-148.302-14.827-139.634-93.619 8.667-43.846 2.031-70.249-22.022-147.664Z"/></g><defs><clipPath id="a"><path fill="#fff" d="M0 0h488v1232H0z"/></clipPath></defs></svg>