<svg width="488" height="1232" viewBox="0 0 488 1232" fill="none" xmlns="http://www.w3.org/2000/svg">
<g clip-path="url(#clip0_1_485)">
<path d="M-756.242 315.046C-844.318 -4.03705 -518.051 -36.5157 -282.595 59.8304C-145.216 109.38 -54.9978 -44.7154 115.187 16.7821C285.371 78.2796 81.3557 271.997 341.76 371.418C602.163 470.839 475.035 915.671 247.439 920.796C19.8426 925.921 82.3804 1000.74 -145.216 1171.91C-372.814 1343.08 -756.242 1105.29 -660.898 854.174C-565.553 603.059 -660.898 660.457 -756.242 315.046Z" stroke="#E1E5EB"/>
<path d="M-266.401 563.368C-276.562 532.978 -228.964 483.95 -190.689 504.874C-155.64 524.035 -119.949 511.112 -96.3695 519.654C-34.2928 542.141 -57.1267 554.045 -29.3767 580.752C4.3911 613.253 20.5044 698.355 -57.1267 698.355C-120.975 698.355 -101.871 729.358 -149.68 743.095C-197.49 756.831 -251.709 733.448 -251.709 671.887C-251.709 648.768 -249.474 613.985 -266.401 563.368Z" stroke="#E1E5EB"/>
<path d="M-711.717 336.069C-792.711 43.2323 -491.777 9.24913 -274.246 98.7387C-146.17 145.525 -60.9086 4.26407 95.9486 60.9475C256.305 118.899 68.7602 296.088 308.014 388.898C547.813 482.235 433.709 894.364 219.746 899.024C7.03473 903.681 65.6241 974.52 -145.628 1131.38C-356.88 1288.23 -710.38 1069.93 -623.705 836.05C-537.028 605.662 -623.502 654.682 -711.717 336.069Z" stroke="#E1E5EB"/>
<path d="M-667.192 357.095C-741.102 90.5025 -465.501 55.015 -265.896 137.648C-147.124 181.672 -66.8193 53.2445 76.7101 105.114C227.24 159.518 56.1647 320.178 274.268 406.38C493.464 493.632 392.381 873.059 192.051 877.252C-5.77279 881.446 48.8679 948.3 -146.04 1090.84C-340.948 1233.39 -664.521 1034.58 -586.512 817.931C-508.502 608.27 -586.106 648.907 -667.192 357.095Z" stroke="#E1E5EB"/>
<path d="M-622.668 378.121C-689.493 137.774 -439.227 100.782 -257.547 176.558C-148.077 217.82 -72.7299 102.226 57.4718 149.281C198.173 200.14 43.5698 344.271 240.522 423.861C439.116 505.032 351.054 851.755 164.358 855.482C-18.5802 859.208 32.112 922.081 -146.452 1050.31C-325.016 1178.54 -618.659 999.23 -549.318 799.81C-479.977 610.877 -548.709 643.135 -622.668 378.121Z" stroke="#E1E5EB"/>
<path d="M-578.141 399.149C-637.886 185.047 -412.951 146.551 -249.198 215.471C-149.03 253.968 -78.6399 151.209 38.234 193.45C169.107 240.763 30.9751 368.366 206.777 441.345C384.768 516.431 309.728 830.452 136.665 833.713C-31.387 836.975 15.3566 895.863 -146.863 1009.78C-309.082 1123.7 -572.799 963.879 -512.125 781.693C-451.451 613.485 -511.313 637.364 -578.141 399.149Z" stroke="#E1E5EB"/>
<path d="M-533.614 421.244C-586.275 233.385 -386.676 193.384 -240.846 255.448C-149.982 291.185 -84.5494 201.258 18.9969 238.684C140.042 282.45 18.381 393.525 173.033 459.895C330.419 528.897 268.402 810.215 108.972 813.011C-44.1934 815.805 -1.39827 870.71 -147.274 970.318C-293.149 1069.93 -526.937 929.594 -474.931 764.64C-422.926 617.16 -473.916 632.658 -533.614 421.244Z" stroke="#E1E5EB"/>
<path d="M-489.087 444.598C-534.666 282.985 -360.398 241.478 -232.497 296.684C-150.934 329.659 -90.4582 252.566 -0.239756 285.18C110.977 325.4 5.78748 419.944 139.289 479.703C276.073 542.623 227.078 791.237 81.2799 793.568C-56.9992 795.897 -18.1525 846.819 -147.684 932.114C-277.215 1017.41 -481.076 896.57 -437.736 748.847C-394.398 622.094 -436.518 629.212 -489.087 444.598Z" stroke="#E1E5EB"/>
<path d="M-444.56 468.023C-483.054 332.652 -334.122 289.643 -224.144 337.992C-151.885 368.204 -96.366 303.945 -19.4752 331.744C81.9135 368.417 -6.80491 446.435 105.546 499.583C221.726 556.419 185.753 772.331 53.5892 774.194C-69.8039 776.057 -34.9057 822.994 -148.093 893.981C-261.279 964.966 -435.212 863.616 -400.541 733.124C-365.871 627.098 -399.118 625.838 -444.56 468.023Z" stroke="#E1E5EB"/>
<path d="M-400.029 491.548C-431.441 382.422 -307.842 337.908 -215.79 379.401C-152.834 406.849 -102.272 355.425 -38.7089 378.411C52.8518 411.537 -19.3955 473.024 71.8053 519.564C167.383 570.316 144.431 753.525 25.9 754.923C-82.6067 756.321 -51.6571 799.275 -148.5 855.947C-245.343 912.619 -389.346 830.762 -363.343 717.504C-337.339 632.205 -361.717 622.562 -400.029 491.548Z" stroke="#E1E5EB"/>
<path d="M-355.498 515.22C-379.826 432.34 -281.56 386.321 -207.433 420.958C-153.779 445.644 -108.175 407.054 -57.9393 425.224C23.7933 454.805 -31.9829 499.763 38.0677 539.692C113.042 584.359 103.112 734.868 -1.78587 735.799C-95.4063 736.732 -68.4051 775.701 -148.904 818.062C-229.401 860.422 -343.478 798.057 -326.142 702.031C-308.808 637.458 -324.313 619.436 -355.498 515.22Z" stroke="#E1E5EB"/>
<path d="M-310.956 539.12C-328.202 482.485 -255.269 434.962 -199.069 462.74C-154.718 484.664 -114.07 458.907 -77.1628 472.264C-5.25808 498.298 -44.5631 526.73 4.33703 560.048C58.7081 598.631 61.7995 716.436 -29.4647 716.901C-108.199 717.368 -85.1463 752.354 -149.3 780.403C-213.454 808.453 -297.602 765.576 -288.934 686.784C-280.267 642.938 -286.903 616.535 -310.956 539.12Z" stroke="#E1E5EB"/>
</g>
<defs>
<clipPath id="clip0_1_485">
<rect width="488" height="1232" fill="white"/>
</clipPath>
</defs>
</svg>
