<svg xmlns="http://www.w3.org/2000/svg" width="471" height="748" fill="none"><g stroke="#4574F5" stroke-opacity=".25" clip-path="url(#a)"><path d="m411.356 72.578 43.104 98.526 37.45 21.268 87.192-24.531 34.993 54.666 84.861 24.997-62.968 92.708 49.934 28.358-20.804 71.154-73.787 49.987 54.881 65.068-73.446 192.923-147.461-83.743-44.024 32.096-107.669-61.145-32.695-58.714-140.359-19.936-19.06-53.648 47.885-84.323-11.783-66.465 79.208-52.261 41.757-73.529L188.407 169l63.977-112.655 158.972 16.233Z"/><path d="m395.586 366.315 16.948 1.7 17.867 10.147 6.028 18.412-4.794 15.989 5.838 6.944-7.873 20.637-15.706-8.92-19.642-9.341-14.963-2.1-2.021-5.731 5.125-9.023 11.683-20.574-5.336-6.085 6.846-12.055Z"/><path d="m410.926 95.008 40.44 91.012 35.944 20.413 80.716-21.936 32.534 51.169 78.149 23.689-58.309 86.192 46.542 26.711-19.506 66.474-68.415 46.935 50.055 59.721-68.4 177.739-136.873-77.66-41.393 29.268-100.538-56.604-30.257-54.417-129.64-18.624-17.399-49.868 44.401-78.183-9.978-62.935 72.909-48.475 38.34-68.108-46.036-53.11 59.319-104.453 147.395 15.05Z"/><path d="m410.495 117.438 37.776 83.499 34.438 19.557 74.241-19.341 30.074 47.673 71.436 22.381-53.649 79.676 43.15 25.063-18.209 61.795-63.042 43.883 45.23 54.372-63.355 162.557L422.3 626.975l-38.762 26.439-93.407-52.061-27.82-50.122-118.92-17.31-15.735-46.088 40.914-72.044-8.173-59.405 66.611-44.689 34.923-62.686-41.915-49.186 54.661-96.251 135.818 13.866Z"/><path d="m410.065 139.868 35.112 75.986 32.931 18.701 67.767-16.746 27.613 44.176 64.725 21.073-48.99 73.16 39.758 23.415-16.912 57.116-57.668 40.832 40.404 49.023-58.31 147.373-115.697-65.495-36.131 23.612-86.275-47.52-25.383-45.826-108.202-15.997-14.071-42.308 37.427-65.905-6.368-55.875 60.313-40.903 31.506-57.263-37.793-45.263 50.002-88.049 124.242 12.683Z"/><path d="m409.635 162.298 32.448 68.472 31.425 17.846 61.291-14.15 25.153 40.678 58.013 19.765-44.331 66.643L610 383.321l-15.614 52.436-52.295 37.78 35.578 43.676-53.263 132.19-105.111-59.413-33.499 20.783-79.145-42.978-22.945-41.529-97.483-14.684-12.408-38.529 33.941-59.766-4.562-52.344 54.015-37.117 28.088-51.842-33.672-41.339 45.345-79.846 112.665 11.499Z"/><path d="m409.204 184.728 29.785 60.959 29.918 16.991 54.816-11.556 22.693 37.182 51.3 18.457-39.672 60.127 32.974 20.121-14.315 47.756-46.923 34.729 30.753 38.327-48.218 117.007-94.522-53.331-30.869 17.956-72.013-38.436-20.508-37.234-86.764-13.37-10.744-34.75 30.454-53.626-2.757-48.814 47.717-33.331 24.67-46.42-29.55-37.415 40.687-71.645 101.088 10.316Z"/><path d="m408.774 207.158 27.121 53.446 28.411 16.135 48.341-8.961 20.234 33.685 44.588 17.15-35.012 53.61 29.582 18.474-13.019 43.076-41.549 31.678 25.927 32.979-43.173 101.823-83.934-47.248-28.238 15.127-64.882-33.894L305.1 501.3l-76.044-12.057-9.082-30.97 26.968-47.486-.952-45.285 41.419-29.545 21.253-40.997-25.428-33.492 36.029-63.443 89.511 9.133Z"/><path d="m408.344 229.588 24.457 45.932 26.905 15.279 41.865-6.365 17.774 30.188 37.876 15.842-30.353 47.093 26.19 16.827-11.721 38.397-36.176 28.627 21.101 27.63-38.126 86.64-73.348-41.166-25.607 12.299-57.75-29.352-15.634-28.641-65.325-10.745-7.418-27.19 23.481-41.347.853-41.754 35.121-25.759 17.836-35.575-21.307-29.569 31.371-55.24 77.935 7.949Z"/><path d="m407.913 252.018 21.793 38.418 25.399 14.424 35.391-3.769 15.313 26.69 31.164 14.534-25.693 40.577 22.798 15.18-10.424 33.717-30.803 25.575 16.276 22.282-33.081 71.457-62.76-35.083-22.976 9.47-50.619-24.81-13.197-24.345-54.606-9.431-5.754-23.41 19.994-35.209 2.658-38.224 28.823-21.973 14.419-30.153-17.185-25.645 26.713-47.038 66.357 6.766Z"/><path d="m407.483 274.449 19.129 30.904 23.892 13.569 28.916-1.175 12.854 23.194 24.451 13.226-21.034 34.061 19.406 13.532-9.127 29.037-25.429 22.524 11.45 16.934-28.036 56.273-52.172-29-20.345 6.642-43.487-20.268-10.76-20.05-43.887-8.117-4.091-19.631 16.508-29.069 4.464-34.694 22.524-18.187 11.001-24.731-13.063-21.721 22.055-38.837 54.781 5.584Z"/><path d="m407.053 296.879 16.465 23.391 22.386 12.713 22.44 1.42 10.394 19.697 17.739 11.918-16.375 27.545 16.014 11.884-7.829 24.358-20.056 19.473 6.624 11.585-22.99 41.09-41.584-22.918-17.714 3.814-36.356-15.726-8.322-15.753-33.168-6.805-2.428-15.851 13.022-22.93 6.268-31.163 16.226-14.401 7.584-19.309-8.942-17.798 17.397-30.634 43.205 4.4Z"/><path d="m406.622 319.309 13.802 15.877 20.879 11.858 15.965 4.015 7.934 16.2 11.028 10.611-11.716 21.027 12.622 10.238-6.532 19.678-14.683 16.421 1.799 6.237-17.944 25.907-30.997-16.835-15.083.986-29.225-11.185-5.885-11.457-22.449-5.492-.764-12.071 9.535-16.79 8.073-27.634 9.929-10.615 4.166-13.886-4.82-13.875 12.739-22.432 31.627 3.217Z"/><path d="m406.192 341.739 11.138 8.364 19.373 11.002 9.489 6.611 5.474 12.703 4.316 9.303-7.057 14.511 9.23 8.59-5.234 14.998-9.31 13.37-3.027.889-12.899 10.724-20.409-10.753-12.452-1.843-22.093-6.642-3.448-7.162-11.73-4.178.899-8.291 6.049-10.651 9.878-24.104 3.63-6.829.75-8.464-.699-9.952 8.081-14.229 20.051 2.033Z"/></g><defs><clipPath id="a"><path fill="#fff" d="M0 0h471v806H0z"/></clipPath></defs></svg>