<svg xmlns="http://www.w3.org/2000/svg" width="177" height="177" fill="none"><g clip-path="url(#a)"><path fill="#5A4146" d="M128.468 78.508v2.003c0 2.455.396 4.894 1.172 7.222l4.537 13.613h8.565V69.943h-5.71a8.564 8.564 0 0 0-8.564 8.565Z"/><path fill="#694B4B" d="m167.557 84.438-4.831 16.909-22.839-19.984a5.71 5.71 0 0 1-5.709-5.71 8.564 8.564 0 0 1 8.564-8.564h19.984a5.71 5.71 0 0 1 5.71 5.71v5.365c0 2.122-.296 4.234-.879 6.274Z"/><path fill="#E6AF78" d="M157.015 109.913h-17.129v12.635h17.129v-12.635Z"/><path fill="#D29B6E" d="M139.887 115.155a22.688 22.688 0 0 0 8.564 1.682c3.03 0 5.917-.606 8.565-1.682v-5.244h-17.129v5.244Z"/><path fill="#D5DCED" d="m170.788 120.772-13.773-3.935-8.564 5.683-8.564-5.683-13.772 3.935a8.564 8.564 0 0 0-6.212 8.235v20.872a2.855 2.855 0 0 0 2.855 2.855h51.387a2.855 2.855 0 0 0 2.855-2.855v-20.872a8.564 8.564 0 0 0-6.212-8.235Z"/><path fill="#AFB9D2" d="M151.306 152.733h-5.709l1.427-30.187h2.855l1.427 30.187Z"/><path fill="#F0C087" d="M148.451 112.766c-9.46 0-17.129-7.669-17.129-17.129v-3.345c0-1.514.602-2.966 1.672-4.037l5.177-5.177c1.097-1.096 2.596-1.726 4.145-1.678 9.126.288 17.204 2.243 21.619 6.556 1.081 1.056 1.645 2.532 1.645 4.043v3.638c0 9.46-7.669 17.129-17.129 17.129Z"/><path fill="#E6AF78" d="M139.887 93c0-3.293 2.765-5.91 6.052-5.701 5.763.368 14.315 1.331 19.562 3.855-.171-1.205-.689-2.342-1.566-3.198-4.415-4.313-12.493-6.268-21.619-6.556-1.549-.049-3.049.582-4.145 1.678l-5.176 5.176a5.709 5.709 0 0 0-1.673 4.038v3.344c0 7.812 5.235 14.389 12.383 16.449a16.992 16.992 0 0 1-3.818-10.739V93Z"/><path fill="#C7CFE2" d="M165.581 137.513c0-2.271.902-4.449 2.508-6.056l7.349-7.348a8.531 8.531 0 0 1 1.562 4.898v20.872a2.854 2.854 0 0 1-2.854 2.855h-8.565v-15.221Z"/><path fill="#959CB5" d="M149.879 128.256h-2.855a1.427 1.427 0 0 1-1.427-1.428v-4.282h5.709v4.282c0 .789-.639 1.428-1.427 1.428Z"/><path fill="#C7CFE2" d="m148.451 122.52-4.839 3.696a1.713 1.713 0 0 1-2.542-.538l-4.341-7.927 1.748-2.665a1.141 1.141 0 0 1 1.731-.212l8.243 7.646ZM148.451 122.52l4.839 3.697a1.713 1.713 0 0 0 2.542-.539l4.341-7.927-1.747-2.665a1.142 1.142 0 0 0-1.732-.211l-8.243 7.645Z"/><path fill="#5A4146" d="M51.103 111.574c-2.44-6.464-4.375-17.576-4.793-23.361-.795-11.01-9.091-19.984-20.307-19.984-11.215 0-19.511 8.975-20.306 19.984-.418 5.785-2.353 16.897-4.793 23.361-.538 1.425.083 2.996 1.486 3.632 2.614 1.185 8.188 3.506 14.91 4.41h17.406c6.69-.906 12.304-3.228 14.91-4.41 1.404-.636 2.025-2.207 1.487-3.632Z"/><path fill="#694B4B" d="M49.617 115.207c1.403-.637 2.023-2.208 1.486-3.633-2.44-6.464-4.375-17.576-4.793-23.36-.794-11.01-9.091-19.985-20.306-19.985h-.085c-8.605.036-11.647 11.772-4.239 16.15.445.264.73.39.73.39l6.49 34.847h5.806c6.691-.906 12.304-3.228 14.91-4.409Z"/><path fill="#E6AF78" d="m46.653 125.348-9.239-4.619a5.71 5.71 0 0 1-3.156-5.108v-8.564h-17.13v8.565a5.711 5.711 0 0 1-3.155 5.107l-9.239 4.619A8.563 8.563 0 0 0 0 133.008v16.871a2.854 2.854 0 0 0 2.855 2.854h45.677a2.854 2.854 0 0 0 2.855-2.854v-16.871a8.563 8.563 0 0 0-4.734-7.66Z"/><path fill="#D29B6E" d="M25.694 118.476c3.074 0 6.018-.634 8.717-1.762-.07-.36-.153-.718-.153-1.093v-8.565h-17.13v8.565c0 .378-.082.737-.153 1.098a22.664 22.664 0 0 0 8.719 1.757Z"/><path fill="#D5DCED" d="m46.653 125.348-6.582-3.291c-3.052 4.713-8.345 7.838-14.377 7.838-6.033 0-11.326-3.125-14.378-7.838l-6.582 3.291A8.563 8.563 0 0 0 0 133.008v16.871a2.854 2.854 0 0 0 2.855 2.854h45.677a2.854 2.854 0 0 0 2.855-2.854v-16.871a8.563 8.563 0 0 0-4.734-7.66Z"/><path fill="#F0C087" d="M25.694 112.766c-8.71 0-15.9-6.499-16.987-14.912-.158-1.219.428-2.414 1.526-2.968 1.314-.662 3.224-1.78 5.053-3.412 2.036-1.817 3.231-3.734 3.906-5.14.58-1.212 1.917-1.897 3.219-1.565 10.051 2.564 16.895 7.794 19.377 9.929.667.573 1.05 1.418.983 2.295-.692 8.826-8.073 15.773-17.077 15.773Z"/><path fill="#E6AF78" d="M41.788 94.697c-2.483-2.135-9.326-7.364-19.378-9.928-1.302-.332-2.637.353-3.219 1.564-.51 1.066-1.355 2.423-2.608 3.809l-.002.01c-.389.44-.803.882-1.295 1.322-1.83 1.632-3.74 2.75-5.053 3.412-1.098.554-1.683 1.75-1.526 2.968.977 7.556 6.889 13.57 14.39 14.717-3.418-2.326-5.968-5.523-5.968-11.224v-4.071c.649-.479 1.302-.956 1.958-1.542a22.726 22.726 0 0 0 4.083-4.816c7.69 2.399 12.902 6.396 14.879 8.095.54.474 1.883 1.712 3.454 3.186a16.999 16.999 0 0 0 1.267-5.206c.069-.877-.316-1.722-.982-2.296Z"/><path fill="#C7CFE2" d="M1.74 127.861A8.548 8.548 0 0 0 0 133.008v16.871a2.854 2.854 0 0 0 2.855 2.854h8.564v-14.384a5.71 5.71 0 0 0-2.143-4.459l-7.536-6.029Z"/><path fill="#FF507D" d="m129.515 121.452-23.886-8.686-17.129 5.71-17.129-5.71-23.886 8.686a11.42 11.42 0 0 0-7.517 10.732v17.695a2.855 2.855 0 0 0 2.855 2.855h91.354a2.855 2.855 0 0 0 2.855-2.855v-17.695a11.42 11.42 0 0 0-7.517-10.732Z"/><path fill="#707487" d="m85.509 124.186-2.719 28.547h11.42l-2.72-28.547H85.51Z"/><path fill="#5B5D6E" d="M91.497 128.108h-5.995a1.999 1.999 0 0 1-1.998-1.999v-7.633h9.991v7.633a1.998 1.998 0 0 1-1.998 1.999Z"/><path fill="#D23C69" d="M133.959 124.403a11.405 11.405 0 0 1 3.073 7.78v17.696a2.854 2.854 0 0 1-2.855 2.854h-14.274v-9.544c0-3.028 1.203-5.933 3.345-8.074l10.711-10.712Z"/><path fill="#5A4146" d="M119.903 53.891V29.976a5.71 5.71 0 0 0-5.709-5.71H79.936c-12.614 0-22.84 10.225-22.84 22.839v6.786c0 3.069.495 6.117 1.466 9.028l.95 2.851c.291.873.44 1.788.44 2.708v1.465h57.096v-1.465c0-.92.148-1.835.44-2.708l.95-2.851a28.531 28.531 0 0 0 1.465-9.028Z"/><path fill="#694B4B" d="M71.371 35.864c0 6.405 5.193 11.597 11.598 11.597h1.606l.775 22.482h31.698v-1.465c0-.92.148-1.835.44-2.708l.95-2.851c.97-2.911 1.465-5.96 1.465-9.028V29.976a5.71 5.71 0 0 0-5.71-5.71H82.969c-6.405 0-11.598 5.192-11.598 11.598Z"/><path fill="#E6AF78" d="M105.629 92.783H71.37v25.693h34.259V92.783Z"/><path fill="#D29B6E" d="M71.371 102.435c5.044 2.922 10.882 4.621 17.13 4.621 6.246 0 12.085-1.699 17.128-4.621v-9.653H71.371v9.653Z"/><path fill="#D23C69" d="m88.5 118.476-9.106 9.105a2.855 2.855 0 0 1-4.292-.293l-9.44-12.44 2.468-5.204a2.855 2.855 0 0 1 4.077-1.206L88.5 118.476ZM88.5 118.476l9.105 9.105a2.855 2.855 0 0 0 4.293-.293l9.441-12.44-2.47-5.204a2.854 2.854 0 0 0-4.076-1.206L88.5 118.476Z"/><path fill="#F0C087" d="M88.5 101.347c-15.767 0-28.549-12.782-28.549-28.549v-3.344c0-1.515.602-2.967 1.672-4.038l2.365-2.365a5.71 5.71 0 0 0 1.672-4.037V52.17c0-1.322.888-2.47 2.175-2.774 6.752-1.595 27.762-5.372 42.061 5.144.928.683 1.442 1.804 1.442 2.957v1.517a5.71 5.71 0 0 0 1.672 4.037l2.365 2.365a5.708 5.708 0 0 1 1.672 4.038v3.344c.001 15.767-12.78 28.549-28.547 28.549Z"/><path fill="#E6AF78" d="M109.896 54.54c-10.056-7.396-23.415-7.716-32.816-6.704a77.02 77.02 0 0 0-9.245 1.56 2.832 2.832 0 0 0-2.174 2.774v6.844a5.71 5.71 0 0 1-1.672 4.037l-2.365 2.365a5.71 5.71 0 0 0-1.673 4.038V72.8c0 14.596 10.962 26.613 25.099 28.32-4.926-5.13-7.97-12.082-7.97-19.756V60.496a5.713 5.713 0 0 1 5.022-5.67c6.85-.86 19.399-1.377 29.236 4.188v-1.517c.001-1.152-.514-2.274-1.442-2.957Z"/><path fill="#D23C69" d="M43.04 124.403a11.407 11.407 0 0 0-3.072 7.78v17.696a2.854 2.854 0 0 0 2.855 2.854h14.274v-9.544c0-3.028-1.203-5.933-3.345-8.074l-10.711-10.712Z"/></g><defs><clipPath id="a"><path fill="#fff" d="M0 0h177v177H0z"/></clipPath></defs></svg>