<svg xmlns="http://www.w3.org/2000/svg" width="177" height="177" fill="none"><g clip-path="url(#a)"><path fill="#AFB9D2" d="M88.5 0a3.052 3.052 0 0 0-3.052 3.052v9.155h6.104V3.052A3.052 3.052 0 0 0 88.5 0Z"/><path fill="#959CB3" d="M119.017 131.224H57.982v6.103h61.035v-6.103Z"/><path fill="#AFB9D2" d="m42.763 174.868 11.758-55.851h9.155l-11.714 55.644A2.946 2.946 0 0 1 49.079 177h-4.586a1.768 1.768 0 0 1-1.73-2.132ZM134.238 174.868l-11.759-55.851h-9.155l11.715 55.644a2.945 2.945 0 0 0 2.882 2.339h4.587a1.768 1.768 0 0 0 1.73-2.132Z"/><path fill="#D7DEED" d="M173.948 18.31H3.052A3.052 3.052 0 0 1 0 15.26v-3.052a3.052 3.052 0 0 1 3.052-3.052h170.896A3.052 3.052 0 0 1 177 12.207v3.052a3.052 3.052 0 0 1-3.052 3.052Z"/><path fill="#EFF2FA" d="M173.948 18.31H3.052v97.656a6.103 6.103 0 0 0 6.103 6.103h158.69a6.102 6.102 0 0 0 6.103-6.103V18.311Z"/><path fill="#FFD782" d="M94.603 106.811H82.397a3.052 3.052 0 0 1-3.052-3.052V54.931a3.052 3.052 0 0 1 3.052-3.052h12.206a3.052 3.052 0 0 1 3.052 3.052v48.828a3.052 3.052 0 0 1-3.052 3.052Z"/><path fill="#FFC36E" d="M94.603 106.81H82.397a3.052 3.052 0 0 1-3.052-3.051v-33.57a3.052 3.052 0 0 1 3.052-3.051h12.206a3.052 3.052 0 0 1 3.052 3.052v33.569a3.052 3.052 0 0 1-3.052 3.051Z"/><path fill="#FF6464" d="M67.138 106.81H54.93a3.052 3.052 0 0 1-3.052-3.051v-33.57a3.052 3.052 0 0 1 3.052-3.051h12.207a3.052 3.052 0 0 1 3.051 3.052v33.569a3.052 3.052 0 0 1-3.051 3.051Z"/><path fill="#D2555A" d="M67.138 106.81H54.93a3.052 3.052 0 0 1-3.052-3.051v-18.31a3.052 3.052 0 0 1 3.052-3.053h12.207a3.052 3.052 0 0 1 3.051 3.052v18.311a3.052 3.052 0 0 1-3.051 3.051Z"/><path fill="#00D2FF" d="M39.673 106.81H27.466a3.052 3.052 0 0 1-3.052-3.051v-18.31a3.052 3.052 0 0 1 3.052-3.053h12.207a3.052 3.052 0 0 1 3.052 3.052v18.311a3.052 3.052 0 0 1-3.052 3.051Z"/><path fill="#18BDF6" d="M39.673 106.811H27.466a3.052 3.052 0 0 1-3.052-3.052v-6.104a3.052 3.052 0 0 1 3.052-3.052h12.207a3.052 3.052 0 0 1 3.052 3.052v6.104a3.053 3.053 0 0 1-3.052 3.052Z"/><path fill="#C3E678" d="M122.069 106.81h-12.207a3.051 3.051 0 0 1-3.051-3.051v-33.57a3.052 3.052 0 0 1 3.051-3.051h12.207a3.052 3.052 0 0 1 3.052 3.052v33.569a3.052 3.052 0 0 1-3.052 3.051Z"/><path fill="#A5D76E" d="M122.069 106.81h-12.207a3.051 3.051 0 0 1-3.051-3.051v-18.31a3.052 3.052 0 0 1 3.051-3.053h12.207a3.052 3.052 0 0 1 3.052 3.052v18.311a3.052 3.052 0 0 1-3.052 3.051Z"/><path fill="#9BE6D2" d="M149.535 106.81h-12.207a3.052 3.052 0 0 1-3.052-3.051V36.621a3.052 3.052 0 0 1 3.052-3.052h12.207a3.052 3.052 0 0 1 3.052 3.052v67.138a3.052 3.052 0 0 1-3.052 3.051Z"/><path fill="#78D2BE" d="M149.535 106.811h-12.207a3.053 3.053 0 0 1-3.052-3.052v-51.88a3.052 3.052 0 0 1 3.052-3.051h12.207a3.052 3.052 0 0 1 3.052 3.051v51.88a3.053 3.053 0 0 1-3.052 3.052Z"/><path fill="#AFB9D2" d="M158.69 109.862H18.31a3.052 3.052 0 0 1 0-6.104h140.38a3.053 3.053 0 0 1 0 6.104Z"/></g><defs><clipPath id="a"><path fill="#fff" d="M0 0h177v177H0z"/></clipPath></defs></svg>