<svg width="177" height="177" viewBox="0 0 177 177" fill="none" xmlns="http://www.w3.org/2000/svg">
<g clip-path="url(#clip0_10_3459)">
<path d="M88.5001 0C86.8148 0 85.4482 1.36656 85.4482 3.05187V12.2068H91.5516V3.05187C91.552 1.36656 90.1854 0 88.5001 0Z" fill="#AFB9D2"/>
<path d="M119.017 131.224H57.9824V137.327H119.017V131.224Z" fill="#959CB3"/>
<path d="M42.7632 174.868L54.5212 119.017H63.6765L51.962 174.661C51.6751 176.024 50.4724 177 49.0795 177H44.4931C43.3699 177 42.5319 175.967 42.7632 174.868Z" fill="#AFB9D2"/>
<path d="M134.238 174.868L122.479 119.017H113.324L125.039 174.661C125.326 176.024 126.528 177 127.921 177H132.508C133.63 177 134.469 175.967 134.238 174.868Z" fill="#AFB9D2"/>
<path d="M173.948 18.3105H3.05187C1.36656 18.3105 0 16.9439 0 15.2586V12.2068C0 10.5215 1.36656 9.15491 3.05187 9.15491H173.948C175.634 9.15491 177 10.5215 177 12.2068V15.2586C177 16.9439 175.633 18.3105 173.948 18.3105Z" fill="#D7DEED"/>
<path d="M173.948 18.3105H3.05176V115.966C3.05176 119.337 5.78419 122.069 9.15515 122.069H167.845C171.216 122.069 173.948 119.337 173.948 115.966V18.3105Z" fill="#EFF2FA"/>
<path d="M94.6034 106.811H82.3966C80.7113 106.811 79.3447 105.444 79.3447 103.759V54.9312C79.3447 53.2459 80.7113 51.8793 82.3966 51.8793H94.6034C96.2887 51.8793 97.6552 53.2459 97.6552 54.9312V103.759C97.6552 105.444 96.2887 106.811 94.6034 106.811Z" fill="#FFD782"/>
<path d="M94.6034 106.81H82.3966C80.7113 106.81 79.3447 105.444 79.3447 103.759V70.1898C79.3447 68.5045 80.7113 67.1379 82.3966 67.1379H94.6034C96.2887 67.1379 97.6552 68.5045 97.6552 70.1898V103.759C97.6552 105.444 96.2887 106.81 94.6034 106.81Z" fill="#FFC36E"/>
<path d="M67.1376 106.81H54.9308C53.2455 106.81 51.8789 105.444 51.8789 103.759V70.1898C51.8789 68.5045 53.2455 67.1379 54.9308 67.1379H67.1376C68.8229 67.1379 70.1894 68.5045 70.1894 70.1898V103.759C70.1894 105.444 68.8229 106.81 67.1376 106.81Z" fill="#FF6464"/>
<path d="M67.1376 106.81H54.9308C53.2455 106.81 51.8789 105.444 51.8789 103.759V85.4481C51.8789 83.7628 53.2455 82.3962 54.9308 82.3962H67.1376C68.8229 82.3962 70.1894 83.7628 70.1894 85.4481V103.759C70.1894 105.444 68.8229 106.81 67.1376 106.81Z" fill="#D2555A"/>
<path d="M39.6727 106.81H27.4659C25.7806 106.81 24.4141 105.444 24.4141 103.759V85.4481C24.4141 83.7628 25.7806 82.3962 27.4659 82.3962H39.6727C41.358 82.3962 42.7246 83.7628 42.7246 85.4481V103.759C42.7242 105.444 41.358 106.81 39.6727 106.81Z" fill="#00D2FF"/>
<path d="M39.6727 106.811H27.4659C25.7806 106.811 24.4141 105.444 24.4141 103.759V97.6553C24.4141 95.97 25.7806 94.6034 27.4659 94.6034H39.6727C41.358 94.6034 42.7246 95.97 42.7246 97.6553V103.759C42.7242 105.444 41.358 106.811 39.6727 106.811Z" fill="#18BDF6"/>
<path d="M122.069 106.81H109.862C108.177 106.81 106.811 105.444 106.811 103.759V70.1898C106.811 68.5045 108.177 67.1379 109.862 67.1379H122.069C123.754 67.1379 125.121 68.5045 125.121 70.1898V103.759C125.121 105.444 123.754 106.81 122.069 106.81Z" fill="#C3E678"/>
<path d="M122.069 106.81H109.862C108.177 106.81 106.811 105.444 106.811 103.759V85.4481C106.811 83.7628 108.177 82.3962 109.862 82.3962H122.069C123.754 82.3962 125.121 83.7628 125.121 85.4481V103.759C125.121 105.444 123.754 106.81 122.069 106.81Z" fill="#A5D76E"/>
<path d="M149.535 106.81H137.328C135.643 106.81 134.276 105.444 134.276 103.759V36.6207C134.276 34.9354 135.643 33.5688 137.328 33.5688H149.535C151.22 33.5688 152.587 34.9354 152.587 36.6207V103.759C152.587 105.444 151.22 106.81 149.535 106.81Z" fill="#9BE6D2"/>
<path d="M149.535 106.811H137.328C135.643 106.811 134.276 105.444 134.276 103.759V51.8793C134.276 50.194 135.643 48.8275 137.328 48.8275H149.535C151.22 48.8275 152.587 50.194 152.587 51.8793V103.759C152.587 105.444 151.22 106.811 149.535 106.811Z" fill="#78D2BE"/>
<path d="M158.69 109.862H18.3107C16.6254 109.862 15.2588 108.495 15.2588 106.81C15.2588 105.125 16.6254 103.758 18.3107 103.758H158.69C160.375 103.758 161.742 105.125 161.742 106.81C161.742 108.496 160.375 109.862 158.69 109.862Z" fill="#AFB9D2"/>
</g>
<defs>
<clipPath id="clip0_10_3459">
<rect width="177" height="177" fill="white"/>
</clipPath>
</defs>
</svg>
