<svg width="177" height="177" viewBox="0 0 177 177" fill="none" xmlns="http://www.w3.org/2000/svg">
<g clip-path="url(#clip0_10_3493)">
<path d="M48.827 154.112H170.896C174.267 154.112 176.999 151.38 176.999 148.009V74.7673C176.999 71.3963 174.267 68.6639 170.896 68.6639H48.827C45.4561 68.6639 42.7236 71.3963 42.7236 74.7673V148.009C42.7236 151.379 45.4561 154.112 48.827 154.112Z" fill="#A0D2F0"/>
<path d="M48.827 68.6639C45.4561 68.6639 42.7236 71.3963 42.7236 74.7673V114.44H128.172C134.913 114.44 140.379 108.975 140.379 102.233V68.6642L48.827 68.6639Z" fill="#87BEE1"/>
<path d="M131.224 120.543H115.965C114.28 120.543 112.913 119.177 112.913 117.491C112.913 115.806 114.28 114.439 115.965 114.439H131.224C132.909 114.439 134.275 115.806 134.275 117.491C134.275 119.177 132.909 120.543 131.224 120.543Z" fill="#8F96AC"/>
<path d="M76.2929 120.543H61.0343C59.349 120.543 57.9824 119.177 57.9824 117.491C57.9824 115.806 59.349 114.439 61.0343 114.439H76.2929C77.9782 114.439 79.3448 115.806 79.3448 117.491C79.3445 119.177 77.9782 120.543 76.2929 120.543Z" fill="#8F96AC"/>
<path d="M158.689 120.543H143.431C141.745 120.543 140.379 119.177 140.379 117.491C140.379 115.806 141.745 114.439 143.431 114.439H158.689C160.375 114.439 161.741 115.806 161.741 117.491C161.741 119.177 160.375 120.543 158.689 120.543Z" fill="#8F96AC"/>
<path d="M103.759 120.543H88.5001C86.8148 120.543 85.4482 119.177 85.4482 117.491C85.4482 115.806 86.8148 114.439 88.5001 114.439H103.759C105.444 114.439 106.811 115.806 106.811 117.491C106.811 119.177 105.444 120.543 103.759 120.543Z" fill="#8F96AC"/>
<path d="M103.759 144.957H91.5519C89.8666 144.957 88.5 143.59 88.5 141.905C88.5 140.22 89.8666 138.853 91.5519 138.853H103.759C105.444 138.853 106.811 140.22 106.811 141.905C106.811 143.591 105.444 144.957 103.759 144.957Z" fill="#8F96AC"/>
<path d="M94.6028 132.75H91.5509C89.8656 132.75 88.499 131.383 88.499 129.698C88.499 128.013 89.8656 126.646 91.5509 126.646H94.6028C96.2881 126.646 97.6546 128.013 97.6546 129.698C97.6546 131.383 96.2881 132.75 94.6028 132.75Z" fill="#8F96AC"/>
<path d="M109.862 132.75H106.81C105.124 132.75 103.758 131.383 103.758 129.698C103.758 128.013 105.124 126.646 106.81 126.646H109.862C111.547 126.646 112.913 128.013 112.913 129.698C112.913 131.383 111.547 132.75 109.862 132.75Z" fill="#8F96AC"/>
<path d="M146.482 144.957H115.965C114.28 144.957 112.913 143.59 112.913 141.905C112.913 140.22 114.28 138.853 115.965 138.853H146.482C148.168 138.853 149.534 140.22 149.534 141.905C149.534 143.591 148.168 144.957 146.482 144.957Z" fill="#8F96AC"/>
<path d="M61.0342 144.957C66.0905 144.957 70.1894 140.858 70.1894 135.802C70.1894 130.746 66.0905 126.647 61.0342 126.647C55.9779 126.647 51.8789 130.746 51.8789 135.802C51.8789 140.858 55.9779 144.957 61.0342 144.957Z" fill="#FF6464"/>
<path d="M73.2412 144.957C78.2975 144.957 82.3965 140.858 82.3965 135.802C82.3965 130.746 78.2975 126.647 73.2412 126.647C68.1849 126.647 64.0859 130.746 64.0859 135.802C64.0859 140.858 68.1849 144.957 73.2412 144.957Z" fill="#FFD782"/>
<path d="M64.0859 135.802C64.0859 133.101 65.2776 130.699 67.1378 129.023C68.9977 130.699 70.1897 133.101 70.1897 135.802C70.1897 138.502 68.998 140.905 67.1378 142.581C65.2772 140.905 64.0859 138.502 64.0859 135.802Z" fill="#FFA05A"/>
<path d="M177 77.8188H42.7236V90.0256H177V77.8188Z" fill="#707487"/>
<path d="M140.379 77.8188H42.7236V90.0256H140.379V77.8188Z" fill="#5B5D6E"/>
<path d="M128.173 108.336H6.10339C2.73244 108.336 0 105.604 0 102.233V28.9913C0 25.6204 2.73244 22.8879 6.10339 22.8879H128.172C131.543 22.8879 134.276 25.6204 134.276 28.9913V102.233C134.276 105.603 131.543 108.336 128.173 108.336Z" fill="#B4E1FA"/>
<path d="M45.7765 74.7673H61.0351C62.7204 74.7673 64.087 73.4007 64.087 71.7154C64.087 70.0301 62.7204 68.6636 61.0351 68.6636H45.7765C44.0912 68.6636 42.7246 70.0301 42.7246 71.7154C42.7246 73.4007 44.0912 74.7673 45.7765 74.7673Z" fill="#AFB9D2"/>
<path d="M100.707 74.7673H115.966C117.651 74.7673 119.018 73.4007 119.018 71.7154C119.018 70.0301 117.651 68.6636 115.966 68.6636H100.707C99.0218 68.6636 97.6553 70.0301 97.6553 71.7154C97.6556 73.4007 99.0218 74.7673 100.707 74.7673Z" fill="#AFB9D2"/>
<path d="M18.3107 74.7673H33.5693C35.2546 74.7673 36.6212 73.4007 36.6212 71.7154C36.6212 70.0301 35.2546 68.6636 33.5693 68.6636H18.3107C16.6254 68.6636 15.2588 70.0301 15.2588 71.7154C15.2588 73.4007 16.625 74.7673 18.3107 74.7673Z" fill="#AFB9D2"/>
<path d="M73.2413 74.7673H88.5C90.1853 74.7673 91.5518 73.4007 91.5518 71.7154C91.5518 70.0301 90.1853 68.6636 88.5 68.6636H73.2413C71.556 68.6636 70.1895 70.0301 70.1895 71.7154C70.1895 73.4007 71.556 74.7673 73.2413 74.7673Z" fill="#AFB9D2"/>
<path d="M54.9308 38.1466H97.6548C99.3401 38.1466 100.707 36.78 100.707 35.0947C100.707 33.4094 99.3401 32.0428 97.6548 32.0428H54.9308C53.2455 32.0428 51.8789 33.4094 51.8789 35.0947C51.8789 36.78 53.2455 38.1466 54.9308 38.1466Z" fill="#EFF2FA"/>
<path d="M73.2413 50.3534H97.6552C99.3405 50.3534 100.707 48.9868 100.707 47.3015C100.707 45.6162 99.3405 44.2496 97.6552 44.2496H73.2413C71.556 44.2496 70.1895 45.6162 70.1895 47.3015C70.1895 48.9871 71.556 50.3534 73.2413 50.3534Z" fill="#EFF2FA"/>
<path d="M73.2413 99.1813H85.4481C87.1334 99.1813 88.5 97.8147 88.5 96.1294C88.5 94.4441 87.1334 93.0775 85.4481 93.0775H73.2413C71.556 93.0775 70.1895 94.4441 70.1895 96.1294C70.1895 97.8147 71.556 99.1813 73.2413 99.1813Z" fill="#AFB9D2"/>
<path d="M82.3966 86.9741H85.4485C87.1338 86.9741 88.5003 85.6075 88.5003 83.9222C88.5003 82.2369 87.1338 80.8704 85.4485 80.8704H82.3966C80.7113 80.8704 79.3447 82.2369 79.3447 83.9222C79.3447 85.6079 80.7113 86.9741 82.3966 86.9741Z" fill="#AFB9D2"/>
<path d="M67.1388 86.9741H70.1907C71.876 86.9741 73.2425 85.6075 73.2425 83.9222C73.2425 82.2369 71.876 80.8704 70.1907 80.8704H67.1388C65.4535 80.8704 64.0869 82.2369 64.0869 83.9222C64.0869 85.6079 65.4535 86.9741 67.1388 86.9741Z" fill="#AFB9D2"/>
<path d="M30.5177 99.1813H61.035C62.7203 99.1813 64.0868 97.8147 64.0868 96.1294C64.0868 94.4441 62.7203 93.0775 61.035 93.0775H30.5177C28.8324 93.0775 27.4658 94.4441 27.4658 96.1294C27.4658 97.8147 28.8324 99.1813 30.5177 99.1813Z" fill="#AFB9D2"/>
<path d="M103.759 99.1812C108.815 99.1812 112.914 95.0822 112.914 90.0259C112.914 84.9696 108.815 80.8707 103.759 80.8707C98.7025 80.8707 94.6035 84.9696 94.6035 90.0259C94.6035 95.0822 98.7025 99.1812 103.759 99.1812Z" fill="#FF6464"/>
<path d="M115.966 99.1812C121.022 99.1812 125.121 95.0822 125.121 90.0259C125.121 84.9696 121.022 80.8707 115.966 80.8707C110.909 80.8707 106.811 84.9696 106.811 90.0259C106.811 95.0822 110.909 99.1812 115.966 99.1812Z" fill="#FFD782"/>
<path d="M106.811 90.026C106.811 92.7266 108.002 95.1292 109.862 96.8049C111.722 95.1292 112.914 92.7266 112.914 90.026C112.914 87.3253 111.723 84.9227 109.862 83.2471C108.002 84.9227 106.811 87.325 106.811 90.026Z" fill="#FFA05A"/>
<path d="M33.569 62.5605H18.3107C16.6254 62.5605 15.2588 61.1939 15.2588 59.5086V50.3534C15.2588 48.6681 16.6254 47.3015 18.3107 47.3015H33.5693C35.2546 47.3015 36.6212 48.6681 36.6212 50.3534V59.5086C36.6208 61.1939 35.2543 62.5605 33.569 62.5605Z" fill="#FFC36E"/>
<path d="M36.6209 53.4053V50.3534C36.6209 48.6681 35.2544 47.3015 33.5691 47.3015H21.3623V62.5602H30.5176V56.4568C30.5176 54.7715 31.8841 53.4049 33.5694 53.4049H36.6209V53.4053Z" fill="#FFD782"/>
<path d="M115.966 50.3534C121.022 50.3534 125.121 46.2544 125.121 41.1981C125.121 36.1418 121.022 32.0428 115.966 32.0428C110.909 32.0428 106.811 36.1418 106.811 41.1981C106.811 46.2544 110.909 50.3534 115.966 50.3534Z" fill="#FF6464"/>
</g>
<defs>
<clipPath id="clip0_10_3493">
<rect width="177" height="177" fill="white"/>
</clipPath>
</defs>
</svg>
