<svg xmlns="http://www.w3.org/2000/svg" width="177" height="177" fill="none"><g clip-path="url(#a)"><path fill="#A0D2F0" d="M48.827 154.112h122.069a6.102 6.102 0 0 0 6.103-6.103V74.767a6.103 6.103 0 0 0-6.103-6.103H48.827a6.103 6.103 0 0 0-6.103 6.103v73.242a6.104 6.104 0 0 0 6.103 6.103Z"/><path fill="#87BEE1" d="M48.827 68.664a6.103 6.103 0 0 0-6.103 6.103v39.673h85.448c6.741 0 12.207-5.465 12.207-12.207V68.664H48.827Z"/><path fill="#8F96AC" d="M131.224 120.543h-15.259a3.052 3.052 0 0 1 0-6.104h15.259a3.052 3.052 0 0 1 0 6.104ZM76.293 120.543H61.034a3.052 3.052 0 1 1 0-6.104h15.259a3.052 3.052 0 0 1 0 6.104ZM158.689 120.543h-15.258a3.051 3.051 0 1 1 0-6.104h15.258a3.052 3.052 0 0 1 0 6.104ZM103.759 120.543H88.5a3.052 3.052 0 1 1 0-6.104h15.259a3.053 3.053 0 0 1 0 6.104ZM103.759 144.957H91.552a3.052 3.052 0 0 1 0-6.104h12.207a3.053 3.053 0 0 1 0 6.104ZM94.603 132.75H91.55a3.052 3.052 0 0 1 0-6.104h3.052a3.052 3.052 0 0 1 0 6.104ZM109.862 132.75h-3.052a3.052 3.052 0 0 1 0-6.104h3.052a3.052 3.052 0 0 1 0 6.104ZM146.482 144.957h-30.517a3.053 3.053 0 0 1 0-6.104h30.517a3.052 3.052 0 0 1 0 6.104Z"/><path fill="#FF6464" d="M61.034 144.957a9.155 9.155 0 1 0 0-18.31 9.155 9.155 0 0 0 0 18.31Z"/><path fill="#FFD782" d="M73.241 144.957a9.155 9.155 0 1 0 0-18.31 9.155 9.155 0 0 0 0 18.31Z"/><path fill="#FFA05A" d="M64.086 135.802c0-2.701 1.192-5.103 3.052-6.779 1.86 1.676 3.052 4.078 3.052 6.779 0 2.7-1.192 5.103-3.052 6.779-1.86-1.676-3.052-4.079-3.052-6.779Z"/><path fill="#707487" d="M177 77.819H42.724v12.207H177V77.819Z"/><path fill="#5B5D6E" d="M140.379 77.819H42.724v12.207h97.655V77.819Z"/><path fill="#B4E1FA" d="M128.173 108.336H6.103A6.103 6.103 0 0 1 0 102.233V28.991a6.103 6.103 0 0 1 6.103-6.103h122.069a6.104 6.104 0 0 1 6.104 6.103v73.242a6.104 6.104 0 0 1-6.103 6.103Z"/><path fill="#AFB9D2" d="M45.776 74.767h15.26a3.052 3.052 0 0 0 0-6.103h-15.26a3.052 3.052 0 0 0 0 6.103ZM100.707 74.767h15.259a3.052 3.052 0 0 0 0-6.103h-15.259a3.052 3.052 0 0 0 0 6.103ZM18.31 74.767h15.26a3.052 3.052 0 0 0 0-6.103H18.31a3.052 3.052 0 0 0 0 6.103ZM73.241 74.767H88.5a3.052 3.052 0 0 0 0-6.103H73.241a3.052 3.052 0 0 0 0 6.103Z"/><path fill="#EFF2FA" d="M54.93 38.147h42.725a3.052 3.052 0 0 0 0-6.104H54.93a3.052 3.052 0 0 0 0 6.104ZM73.241 50.353h24.414a3.052 3.052 0 0 0 0-6.103H73.241a3.052 3.052 0 0 0 0 6.103Z"/><path fill="#AFB9D2" d="M73.241 99.181h12.207a3.052 3.052 0 0 0 0-6.103H73.241a3.052 3.052 0 0 0 0 6.103ZM82.397 86.974h3.051a3.052 3.052 0 0 0 0-6.104h-3.051a3.052 3.052 0 0 0 0 6.104ZM67.139 86.974h3.052a3.052 3.052 0 0 0 0-6.104h-3.052a3.052 3.052 0 0 0 0 6.104ZM30.518 99.181h30.517a3.052 3.052 0 0 0 0-6.103H30.518a3.052 3.052 0 0 0 0 6.103Z"/><path fill="#FF6464" d="M103.759 99.181a9.155 9.155 0 1 0 0-18.31 9.155 9.155 0 0 0 0 18.31Z"/><path fill="#FFD782" d="M115.966 99.181a9.155 9.155 0 1 0 0-18.31 9.155 9.155 0 0 0 0 18.31Z"/><path fill="#FFA05A" d="M106.811 90.026c0 2.7 1.191 5.103 3.051 6.779 1.86-1.676 3.052-4.078 3.052-6.779 0-2.7-1.191-5.103-3.052-6.779-1.86 1.676-3.051 4.078-3.051 6.779Z"/><path fill="#FFC36E" d="M33.569 62.56H18.311a3.052 3.052 0 0 1-3.052-3.051v-9.156a3.052 3.052 0 0 1 3.052-3.052h15.258a3.052 3.052 0 0 1 3.052 3.052v9.156a3.053 3.053 0 0 1-3.052 3.051Z"/><path fill="#FFD782" d="M36.62 53.405v-3.052a3.052 3.052 0 0 0-3.05-3.052H21.361v15.26h9.156v-6.104a3.052 3.052 0 0 1 3.051-3.052h3.052Z"/><path fill="#FF6464" d="M115.966 50.353a9.155 9.155 0 1 0 0-18.31 9.155 9.155 0 0 0 0 18.31Z"/></g><defs><clipPath id="a"><path fill="#fff" d="M0 0h177v177H0z"/></clipPath></defs></svg>