<svg width="177" height="177" viewBox="0 0 177 177" fill="none" xmlns="http://www.w3.org/2000/svg">
<g clip-path="url(#clip0_10_3408)">
<path d="M128.468 78.5078V80.5111C128.468 82.966 128.864 85.4046 129.64 87.7332L134.177 101.346H142.742V69.943H137.032C132.302 69.9433 128.468 73.7775 128.468 78.5078Z" fill="#5A4146"/>
<path d="M167.557 84.4383L162.726 101.347L139.887 81.3629C136.734 81.3629 134.178 78.8065 134.178 75.6533C134.178 70.9234 138.012 67.0889 142.742 67.0889H162.726C165.879 67.0889 168.436 69.6453 168.436 72.7985V78.1645C168.436 80.2861 168.14 82.3976 167.557 84.4383Z" fill="#694B4B"/>
<path d="M157.015 109.913H139.886V122.548H157.015V109.913Z" fill="#E6AF78"/>
<path d="M139.887 115.155C142.534 116.231 145.422 116.837 148.451 116.837C151.481 116.837 154.368 116.231 157.016 115.155V109.911H139.887V115.155Z" fill="#D29B6E"/>
<path d="M170.788 120.772L157.015 116.837L148.451 122.52L139.887 116.837L126.115 120.772C122.438 121.822 119.903 125.183 119.903 129.007V149.879C119.903 151.456 121.181 152.734 122.758 152.734H174.145C175.722 152.734 177 151.456 177 149.879V129.007C177 125.183 174.465 121.822 170.788 120.772Z" fill="#D5DCED"/>
<path d="M151.306 152.733H145.597L147.024 122.546H149.879L151.306 152.733Z" fill="#AFB9D2"/>
<path d="M148.451 112.766C138.991 112.766 131.322 105.097 131.322 95.6371V92.2924C131.322 90.7782 131.924 89.3259 132.994 88.2549L138.171 83.078C139.268 81.9818 140.767 81.3516 142.316 81.4003C151.442 81.6883 159.52 83.6432 163.935 87.9559C165.016 89.0117 165.58 90.4885 165.58 91.9992V95.6371C165.58 105.097 157.911 112.766 148.451 112.766Z" fill="#F0C087"/>
<path d="M139.887 93.0004C139.887 89.7072 142.652 87.0895 145.939 87.299C151.702 87.6668 160.254 88.63 165.501 91.1536C165.33 89.9492 164.812 88.8122 163.935 87.9555C159.52 83.6429 151.442 81.6879 142.316 81.3999L142.316 81.4003C140.767 81.3515 139.267 81.9818 138.171 83.0776L132.995 88.2542C131.924 89.3248 131.322 90.7771 131.322 92.2917V95.6363C131.322 103.448 136.557 110.025 143.705 112.085C141.326 109.149 139.887 105.422 139.887 101.346L139.887 93.0004Z" fill="#E6AF78"/>
<path d="M165.581 137.513C165.581 135.242 166.483 133.064 168.089 131.457L175.438 124.109C176.42 125.513 177 127.203 177 129.007V149.879C177 151.456 175.722 152.734 174.146 152.734H165.581V137.513Z" fill="#C7CFE2"/>
<path d="M149.879 128.256H147.024C146.236 128.256 145.597 127.617 145.597 126.828V122.546H151.306V126.828C151.306 127.617 150.667 128.256 149.879 128.256Z" fill="#959CB5"/>
<path d="M148.451 122.52L143.612 126.216C142.779 126.853 141.574 126.598 141.07 125.678L136.729 117.751L138.477 115.086C138.864 114.494 139.69 114.394 140.208 114.874L148.451 122.52Z" fill="#C7CFE2"/>
<path d="M148.451 122.52L153.29 126.217C154.123 126.853 155.329 126.598 155.832 125.678L160.173 117.751L158.426 115.086C158.038 114.495 157.212 114.394 156.694 114.875L148.451 122.52Z" fill="#C7CFE2"/>
<path d="M51.1029 111.574C48.6633 105.11 46.7284 93.9981 46.3104 88.2127C45.5153 77.2035 37.2188 68.229 26.0035 68.229C14.7882 68.229 6.49164 77.2038 5.69652 88.2127C5.27857 93.9977 3.34367 105.11 0.90404 111.574C0.366472 112.999 0.987009 114.57 2.39022 115.206C5.00442 116.391 10.5782 118.712 17.3004 119.616H34.7062C41.3969 118.71 47.0098 116.388 49.6164 115.206C51.0199 114.57 51.6405 112.999 51.1029 111.574Z" fill="#5A4146"/>
<path d="M49.6167 115.207C51.0196 114.57 51.6404 112.999 51.1025 111.574C48.6633 105.11 46.728 93.9984 46.3104 88.2131C45.5156 77.2038 37.2188 68.2293 26.0038 68.2293C25.9755 68.2293 25.9474 68.2293 25.9191 68.2297C17.3135 68.2646 14.2724 80.0009 21.6804 84.3799C22.1254 84.643 22.4106 84.7695 22.4106 84.7695L28.8991 119.616H34.7065C41.3973 118.71 47.0101 116.388 49.6167 115.207Z" fill="#694B4B"/>
<path d="M46.6526 125.348L37.4141 120.729C35.4795 119.762 34.2575 117.784 34.2578 115.621L34.2585 107.057H17.1289V115.622C17.1289 117.784 15.9072 119.761 13.9726 120.729L4.73406 125.348C1.83257 126.798 0 129.764 0 133.008V149.879C0 151.455 1.27806 152.733 2.85482 152.733H48.5322C50.109 152.733 51.387 151.455 51.387 149.879V133.008C51.387 129.764 49.5541 126.798 46.6526 125.348Z" fill="#E6AF78"/>
<path d="M25.6936 118.476C28.7676 118.476 31.7119 117.842 34.4112 116.714C34.3403 116.354 34.2577 115.996 34.2577 115.621L34.2584 107.056H17.1288V115.621C17.1288 115.999 17.0462 116.358 16.9746 116.719C19.6756 117.842 22.6186 118.476 25.6936 118.476Z" fill="#D29B6E"/>
<path d="M46.6526 125.348L40.0711 122.057C37.0193 126.77 31.7262 129.895 25.6937 129.895C19.6612 129.895 14.3678 126.77 11.3159 122.057L4.7344 125.348C1.83292 126.798 0 129.764 0 133.008V149.879C0 151.455 1.27806 152.733 2.85482 152.733H48.5322C50.109 152.733 51.387 151.455 51.387 149.879V133.008C51.387 129.764 49.5541 126.798 46.6526 125.348Z" fill="#D5DCED"/>
<path d="M25.6938 112.766C16.9848 112.766 9.79422 106.267 8.70699 97.854C8.54935 96.6351 9.13531 95.44 10.2326 94.8865C11.5469 94.2235 13.4569 93.1055 15.2857 91.4737C17.3223 89.6567 18.517 87.7405 19.1918 86.3338C19.7729 85.1225 21.1087 84.4373 22.4107 84.7695C32.4623 87.3333 39.3055 92.5627 41.7884 94.6978C42.4549 95.2709 42.8389 96.1162 42.7705 96.9929C42.0787 105.819 34.6976 112.766 25.6938 112.766Z" fill="#F0C087"/>
<path d="M41.7879 94.6974C39.3054 92.5624 32.4619 87.3329 22.4102 84.7692C21.1083 84.437 19.7725 85.1222 19.1914 86.3335C18.6804 87.399 17.8359 88.7562 16.5827 90.1418C16.5824 90.1452 16.5813 90.148 16.581 90.1514C16.1921 90.5922 15.7779 91.034 15.2856 91.4737C13.4569 93.1058 11.5469 94.2235 10.2325 94.8865C9.13523 95.44 8.5496 96.6354 8.7069 97.8544C9.68351 105.41 15.5957 111.424 23.0968 112.571C19.6788 110.245 17.1293 107.048 17.1293 101.347V97.276C17.7778 96.7972 18.4308 96.3198 19.087 95.7342C20.6738 94.3182 22.059 92.6806 23.1697 90.9175C30.8592 93.317 36.0724 97.3137 38.0488 99.0132C38.5898 99.4875 39.9325 100.725 41.5034 102.199C42.1793 100.572 42.6263 98.8272 42.7697 96.9932C42.8385 96.1162 42.4544 95.271 41.7879 94.6974Z" fill="#E6AF78"/>
<path d="M1.74027 127.861C0.640588 129.321 0 131.111 0 133.008V149.879C0 151.455 1.27806 152.733 2.85482 152.733H11.4193V138.349C11.4193 136.614 10.6307 134.974 9.27625 133.89L1.74027 127.861Z" fill="#C7CFE2"/>
<path d="M129.515 121.452L105.629 112.766L88.5 118.476L71.3711 112.766L47.4847 121.452C42.9719 123.093 39.9678 127.382 39.9678 132.184V149.879C39.9678 151.455 41.2458 152.734 42.8226 152.734H134.177C135.754 152.734 137.032 151.455 137.032 149.879V132.184C137.032 127.382 134.028 123.093 129.515 121.452Z" fill="#FF507D"/>
<path d="M85.509 124.186L82.79 152.733H94.2093L91.4904 124.186H85.509Z" fill="#707487"/>
<path d="M91.4969 128.108H85.5024C84.3986 128.108 83.5039 127.213 83.5039 126.109V118.476H93.4951V126.109C93.4954 127.213 92.6007 128.108 91.4969 128.108Z" fill="#5B5D6E"/>
<path d="M133.959 124.403C135.887 126.472 137.032 129.228 137.032 132.183V149.879C137.032 151.455 135.754 152.733 134.177 152.733H119.903V143.189C119.903 140.161 121.106 137.256 123.248 135.115L133.959 124.403Z" fill="#D23C69"/>
<path d="M119.903 53.8913V29.9756C119.903 26.8221 117.347 24.2659 114.194 24.2659H79.9356C67.3222 24.2659 57.0967 34.4911 57.0967 47.1048V53.8913C57.0967 56.9598 57.5914 60.0082 58.5618 62.919L59.5121 65.77C59.8032 66.6433 59.9515 67.5576 59.9515 68.4782V69.9433H117.048V68.4782C117.048 67.5576 117.196 66.6433 117.488 65.77L118.438 62.919C119.409 60.0078 119.903 56.9594 119.903 53.8913Z" fill="#5A4146"/>
<path d="M71.3711 35.8636C71.3711 42.2688 76.5636 47.4612 82.9687 47.4612H84.5745L85.3496 69.943H117.048V68.4779C117.048 67.5573 117.196 66.6429 117.488 65.7697L118.438 62.9187C119.408 60.0078 119.903 56.9594 119.903 53.891V29.9756C119.903 26.8221 117.346 24.2659 114.193 24.2659H82.9687C76.5636 24.2659 71.3711 29.4584 71.3711 35.8636Z" fill="#694B4B"/>
<path d="M105.629 92.7833H71.3701V118.476H105.629V92.7833Z" fill="#E6AF78"/>
<path d="M71.3714 102.435C76.4146 105.357 82.2531 107.056 88.5003 107.056C94.7475 107.056 100.586 105.357 105.629 102.435V92.7819H71.3711L71.3714 102.435Z" fill="#D29B6E"/>
<path d="M88.4997 118.476L79.3945 127.581C78.1707 128.804 76.148 128.667 75.1019 127.288L65.6611 114.848L68.1305 109.644C68.8592 108.109 70.7599 107.546 72.207 108.438L88.4997 118.476Z" fill="#D23C69"/>
<path d="M88.5 118.476L97.6051 127.581C98.8289 128.804 100.852 128.667 101.898 127.288L111.339 114.848L108.869 109.644C108.14 108.109 106.24 107.546 104.793 108.438L88.5 118.476Z" fill="#D23C69"/>
<path d="M88.4997 101.347C72.7329 101.347 59.9512 88.565 59.9512 72.7982V69.4535C59.9512 67.9393 60.5527 66.487 61.6233 65.416L63.9883 63.0511C65.0589 61.9804 65.6605 60.5281 65.6605 59.0136V52.1701C65.6605 50.8481 66.5482 49.6997 67.8346 49.3958C74.5865 47.8011 95.5973 44.0236 109.896 54.5399C110.824 55.2226 111.338 56.3444 111.338 57.497V59.0136C111.338 60.5278 111.939 61.9801 113.01 63.0511L115.375 65.416C116.446 66.4867 117.047 67.939 117.047 69.4535V72.7982C117.048 88.565 104.267 101.347 88.4997 101.347Z" fill="#F0C087"/>
<path d="M109.896 54.5402C99.8398 47.1439 86.4815 46.8238 77.0804 47.8363C73.1149 48.2633 69.8383 48.9232 67.8353 49.3961C66.5489 49.7 65.6611 50.8484 65.6611 52.1704V59.0136C65.6611 60.5281 65.0596 61.9804 63.9886 63.0514L61.6237 65.4164C60.5527 66.4874 59.9512 67.9397 59.9512 69.4542V72.7985C59.9512 87.3955 70.9134 99.4125 85.0499 101.119C80.124 95.9886 77.0801 89.0369 77.0801 81.363V60.496C77.0801 57.6028 79.2314 55.1849 82.1018 54.8251C88.9529 53.966 101.501 53.4495 111.338 59.0143V57.4973C111.339 56.3448 110.824 55.2226 109.896 54.5402Z" fill="#E6AF78"/>
<path d="M43.0407 124.403C41.1131 126.472 39.9678 129.228 39.9678 132.183V149.879C39.9678 151.455 41.2458 152.733 42.8226 152.733H57.0967V143.189C57.0967 140.161 55.8936 137.256 53.752 135.115L43.0407 124.403Z" fill="#D23C69"/>
</g>
<defs>
<clipPath id="clip0_10_3408">
<rect width="177" height="177" fill="white"/>
</clipPath>
</defs>
</svg>
