<svg xmlns="http://www.w3.org/2000/svg" width="390" height="324" fill="none"><g stroke="#4574F5" stroke-opacity=".25" clip-path="url(#a)"><path d="m382.917 47.2 8.503 46.441 24.102 13.834 75.355 1.692 13.481 27.267L565 158.222l-73.903 29.687 32.137 18.447-34.945 26.51-71.364 10.615 26.513 34.246-108.23 69.572-94.905-54.474-43.167 7.27-69.295-39.774-10.611-28.625-105.863-27.214-1.142-24.691 59.793-28.272 7.947-28.989 76.242-10.818 52.14-24.654-24.864-30.295 79.883-37.771 121.551 28.207Z"/><path d="m294.125 166.129 12.966 2.994 11.499 6.601-.015 8.404-7.947 5.941 2.815 3.652-11.591 7.44-10.108-5.802-13.113-6.508-11.291-2.892-.11-2.635 6.398-3.025 14.589-6.898-2.641-3.231 8.549-4.041Z"/><path d="m376.749 56.386 8.347 42.984 23.134 13.278 69.557 1.885 12.443 25.492 55.673 20.341-68.525 27.632 29.882 17.309-32.704 24.757-66.319 10.084 24.084 31.389-100.293 63.997L243.92 285l-40.351 6.46-64.833-36.937-9.8-26.524-97.724-25.222-.808-22.908 55.44-26.214 8.458-27.289 70.275-10.111 48.027-22.88-22.622-28.121 74.068-35.021 112.699 26.153Z"/><path d="m370.581 65.572 8.192 39.527 22.163 12.722 63.761 2.077 11.406 23.719 50.701 18.893-63.145 25.577 27.626 16.17-30.461 23.005-61.276 9.553 21.657 28.532-92.357 58.422-81.313-46.594L210 282.826l-60.371-34.1-8.987-24.423-89.585-23.231-.474-21.125 51.086-24.155 8.969-25.59 64.31-9.403 43.914-21.109-20.381-25.945 68.252-32.271 103.848 24.098Z"/><path d="m364.413 74.758 8.037 36.07 21.194 12.165 57.963 2.271 10.369 21.944 45.731 17.446-57.766 23.522 25.37 15.032-28.219 21.251-56.232 9.024 19.228 25.674-84.42 52.847-74.516-42.654-34.719 4.841-55.909-31.263-8.176-22.322-81.445-21.239-.141-19.342 46.733-22.097 9.48-23.89 58.342-8.695 39.804-19.336-18.14-23.771 62.436-29.521 94.996 22.043Z"/><path d="m358.245 83.945 7.881 32.612 20.225 11.609 52.166 2.463 9.331 20.171 40.76 15.998-52.386 21.467 23.115 13.894-25.976 19.498-51.189 8.493 16.8 22.816-76.484 47.273-67.72-38.714-31.902 4.032-51.448-28.426-7.364-20.222-73.306-19.246.193-17.56 42.38-20.038 9.991-22.191 52.376-7.987 35.691-17.565-15.898-21.595L272.1 63.956l86.145 19.989Z"/><path d="m352.077 93.13 7.725 29.156 19.255 11.053 46.37 2.657 8.293 18.396 35.79 14.55-47.007 19.412 20.859 12.756-23.734 17.745-46.145 7.962 14.372 19.959-68.547 41.698-60.924-34.774-29.086 3.222-46.987-25.588-6.551-18.122-65.167-17.254.527-15.776 38.026-17.98 10.501-20.492 46.411-7.279 31.578-15.793-13.657-19.42 50.803-24.022 77.295 17.935Z"/><path d="m345.909 102.317 7.57 25.698 18.286 10.496 40.572 2.85 7.256 16.622 30.819 13.103-41.628 17.357 18.604 11.618-21.492 15.991-41.101 7.433 11.944 17.101-60.611 36.123L262 245.875l-26.271 2.413-42.523-22.752-5.739-16.021-57.029-15.262.862-13.993 33.673-15.922 11.011-18.793 40.445-6.57 27.466-14.021-11.416-17.245 44.987-21.271 68.443 15.879Z"/><path d="m339.741 111.503 7.415 22.242 17.316 9.939 34.775 3.043 6.218 14.848 25.849 11.655-36.249 15.301 16.348 10.481-19.249 14.238-36.057 6.902 9.515 14.244-52.674 30.548-47.332-26.894-23.454 1.603-38.062-19.914-4.927-13.921-48.89-13.27 1.196-12.21 29.319-13.863 11.523-17.094 34.478-5.863 23.354-12.248-9.174-15.07 39.17-18.522 59.592 13.825Z"/><path d="m333.573 120.69 7.259 18.783 16.347 9.383 28.978 3.236 5.181 13.074 20.878 10.208-30.869 13.246 14.092 9.342-17.007 12.486-31.014 6.371 7.087 11.387-44.737 24.973-40.536-22.954-20.637.794-33.601-17.077-4.115-11.82-40.751-11.278 1.53-10.428 24.966-11.805 12.034-15.394 28.511-5.155 19.241-10.476-6.932-12.896 33.354-15.771 50.741 11.771Z"/><path d="m327.404 129.876 7.105 15.327 15.377 8.826 23.181 3.429 4.143 11.3 15.908 8.76-25.49 11.191 11.837 8.204-14.765 10.733-25.97 5.841 4.659 8.529-36.8 19.398-33.741-19.014-17.821-.016-29.139-14.239-3.304-9.72-32.611-9.286 1.864-8.645 20.612-9.746 12.545-13.695 22.546-4.447 15.128-8.704-4.691-10.72 27.539-13.022 41.888 9.716Z"/><path d="m321.236 139.063 6.95 11.869 14.407 8.269 17.384 3.623 3.105 9.525 10.938 7.313-20.111 9.136 9.581 7.066-12.522 8.979-20.926 5.311 2.23 5.672-28.863 13.824-26.945-15.075-15.006-.825-24.676-11.403-2.491-7.619-24.473-7.294 2.198-6.862 16.259-7.688 13.056-11.995 16.579-3.739 11.017-6.932-2.451-8.546 21.723-10.271 33.037 7.662Z"/><path d="m315.068 148.249 6.794 8.412 13.438 7.713 11.587 3.816 2.068 7.751 5.967 5.865-14.732 7.081 7.326 5.928-10.28 7.226-15.883 4.781-.197 2.814-20.928 8.248-20.148-11.134-12.189-1.635-20.215-8.565-1.679-5.519-16.333-5.302 2.531-5.078 11.906-5.63 13.567-10.297 10.613-3.031 6.904-5.159-.209-6.371 15.907-7.521 24.185 5.607Z"/><path d="m308.9 157.435 6.639 4.955 12.468 7.157 5.79 4.009 1.03 5.976.997 4.418-9.353 5.026 5.071 4.79-8.038 5.473-10.839 4.25-2.626-.043-12.991 2.674-13.352-7.195-9.373-2.445-15.753-5.728-.867-3.418-8.194-3.309 2.865-3.296 7.553-3.571 14.078-8.597 4.645-2.323 2.792-3.388 2.033-4.196 10.091-4.771 15.334 3.552Z"/></g><defs><clipPath id="a"><path fill="#fff" d="M390 367H-53V0h443z"/></clipPath></defs></svg>