<svg width="250" height="80" viewBox="0 0 250 80" fill="none" xmlns="http://www.w3.org/2000/svg">
<path d="M53.6844 33.4692C53.6237 33.4077 53.5782 33.3358 53.5478 33.2589C51.7273 27.8363 50.104 25.1481 48.5919 23.9425C47.7625 23.2807 46.6803 23.0088 45.6385 23.2089C45.6082 23.214 45.5779 23.2192 45.5475 23.2294C45.0974 23.332 44.6878 23.5885 44.44 23.9887C43.7624 25.0865 44.6929 26.4717 46.2909 25.9587C46.3516 25.9381 46.4173 25.9433 46.473 25.9741C48.2834 27.0565 49.2746 29.914 50.3366 32.6279L39.6611 32.987C39.1554 33.0024 38.6547 33.0998 38.1844 33.2948C37.7141 33.4897 37.2944 33.7719 36.9606 34.1926C36.8342 34.3516 36.6369 34.4337 36.4397 34.3926C35.8582 34.2849 35.2665 34.29 34.6697 34.3978C34.4877 34.4286 34.3006 34.367 34.1893 34.2182C33.6836 33.5564 32.9604 33.1204 31.9288 33.028L20.8234 32.5971C21.845 29.678 23.0384 27.2156 24.6769 25.9125C24.7477 25.8561 24.8489 25.8458 24.9298 25.8868C25.5316 26.1947 26.1435 26.1639 26.5733 25.7022C27.0133 25.2302 27.0892 24.5017 26.7503 23.9476C26.4874 23.5167 26.0373 23.2602 25.4001 23.1627C24.5809 23.0396 23.7363 23.2243 23.0384 23.686C21.0106 25.025 19.2456 28.4263 17.6678 33.2435C17.6375 33.341 17.5819 33.4282 17.506 33.4949C16.535 34.3721 16.3833 35.5315 16.5452 36.8038L17.2633 41.3132C17.3796 42.0725 17.7487 42.6419 18.2797 43.0882C18.9169 43.6218 19.721 43.9091 20.5504 43.945L29.0513 44.2938C29.7441 44.3246 30.442 44.222 31.0893 43.9655C32.2373 43.5089 33.1172 42.6573 33.7595 41.4723C34.2399 40.4821 34.6141 38.861 34.9782 37.1629H36.1717L36.9808 40.3539C37.1275 40.9387 37.355 41.503 37.6787 42.0109C38.2805 42.9549 39.0188 43.4935 39.828 43.8373C40.5865 44.1605 41.4058 44.2938 42.2301 44.2682L50.7361 43.9809C51.1558 43.9655 51.5756 43.8834 51.965 43.7193C52.7994 43.3653 53.3253 42.7497 53.6641 41.9596C53.8108 41.6159 53.9069 41.2517 53.9676 40.8823L54.63 36.7679C54.711 36.2805 54.716 35.7778 54.6199 35.2904C54.4884 34.5671 54.18 33.9566 53.6844 33.4692ZM32.2676 36.6345L31.5697 39.5741C31.2967 40.713 30.2751 41.5082 29.1221 41.4723L20.6212 41.2209C20.2571 41.2106 19.9536 40.9336 19.9031 40.5642L19.3265 36.101C19.276 35.7008 19.5895 35.3468 19.989 35.3622L31.6405 35.7983C32.0653 35.8086 32.3688 36.219 32.2676 36.6345ZM51.879 36.0702L51.3025 40.5334C51.257 40.9028 50.9535 41.1798 50.5844 41.1901L42.0834 41.4415C40.9253 41.4774 39.9038 40.6822 39.6358 39.5433L38.9379 36.6037C38.8368 36.1831 39.1402 35.7778 39.565 35.7624L51.2165 35.3263C51.616 35.3161 51.9296 35.67 51.879 36.0702Z" fill="black"/>
<path d="M35.6154 13C20.9145 13 9 25.0866 9 40C9 54.9134 20.9145 67 35.6154 67C50.3164 67 62.2308 54.9134 62.2308 40C62.2308 25.0866 50.3164 13 35.6154 13ZM50.726 55.3289C48.7638 57.3194 46.478 58.8841 43.9343 59.9768C41.3046 61.1055 38.5081 61.68 35.6205 61.68C32.7329 61.68 29.9363 61.1055 27.3066 59.9768C24.7629 58.8841 22.4771 57.3194 20.515 55.3289C18.5528 53.3384 17.0104 51.0196 15.9333 48.4391C14.8207 45.7714 14.2543 42.9344 14.2543 40.0051C14.2543 37.0758 14.8207 34.2388 15.9333 31.5712C17.0104 28.9907 18.5528 26.6719 20.515 24.6814C22.4771 22.6909 24.7629 21.1262 27.3066 20.0334C29.9363 18.9048 32.7329 18.3302 35.6205 18.3302C38.5081 18.3302 41.3046 18.9048 43.9343 20.0334C46.478 21.1262 48.7638 22.6909 50.726 24.6814C52.6881 26.6719 54.2305 28.9907 55.3077 31.5712C56.4203 34.2388 56.9867 37.0758 56.9867 40.0051C56.9867 42.9344 56.4203 45.7714 55.3077 48.4391C54.2305 51.0144 52.6881 53.3333 50.726 55.3289Z" fill="black"/>
<path d="M64.9561 25.6147H67.702V34.9157L76.1727 25.6147H79.7935L70.4177 35.952L80.7847 46.8843H76.9312L67.702 37.255V46.8843H64.9561V25.6147Z" fill="#016DD1"/>
<path d="M80.668 32.1045H83.6466L88.112 42.9753L92.5521 32.1045H95.5004L86.8275 53.1945H83.8792L86.6808 46.3201L80.668 32.1045Z" fill="#016DD1"/>
<path d="M112.437 36.3525C112.847 37.3119 113.049 38.3635 113.049 39.5076C113.049 40.6516 112.847 41.6981 112.437 42.6472C112.028 43.5963 111.482 44.412 110.804 45.0892C110.121 45.7715 109.327 46.2999 108.422 46.6744C107.517 47.0489 106.566 47.2387 105.575 47.2387C104.467 47.2387 103.512 47.0489 102.713 46.6744C101.914 46.2999 101.398 45.833 101.165 45.2841V53.1948H98.5103V32.1048H101.079V33.6746C101.312 33.1205 101.833 32.6639 102.642 32.2946C103.451 31.9303 104.407 31.7456 105.519 31.7456C106.531 31.7456 107.497 31.9355 108.412 32.31C109.327 32.6845 110.126 33.2129 110.804 33.8952C111.482 34.5775 112.028 35.3983 112.437 36.3525ZM110.394 39.4511C110.394 37.9685 109.944 36.7937 109.049 35.9267C108.154 35.0597 106.966 34.6237 105.489 34.6237C104.478 34.6237 103.567 34.8545 102.758 35.3214C101.949 35.7831 101.418 36.373 101.165 37.0861V41.9136C101.418 42.6267 101.949 43.2115 102.758 43.6784C103.567 44.1401 104.478 44.3761 105.489 44.3761C106.971 44.3761 108.154 43.9298 109.049 43.0422C109.944 42.1445 110.394 40.9491 110.394 39.4511Z" fill="#016DD1"/>
<path d="M128.817 44.6631C128.66 44.9965 128.422 45.3197 128.104 45.6275C127.78 45.9353 127.391 46.2072 126.92 46.4432C126.455 46.6792 125.924 46.8742 125.327 47.0229C124.736 47.1717 124.093 47.2435 123.416 47.2435C122.425 47.2435 121.469 47.0537 120.553 46.6792C119.638 46.3047 118.834 45.7763 118.146 45.094C117.454 44.4117 116.902 43.596 116.483 42.652C116.063 41.703 115.855 40.6462 115.855 39.4816C115.855 38.3376 116.063 37.2859 116.483 36.3266C116.902 35.3672 117.454 34.5567 118.146 33.8846C118.839 33.2126 119.638 32.6893 120.553 32.3148C121.469 31.9403 122.425 31.7505 123.416 31.7505C124.078 31.7505 124.695 31.8223 125.272 31.9557C125.843 32.0942 126.364 32.2789 126.819 32.52C127.274 32.756 127.664 33.0227 127.987 33.3203C128.311 33.6178 128.549 33.9205 128.7 34.2386L127.998 36.3727C127.588 35.9008 127.016 35.4904 126.273 35.1415C125.535 34.7978 124.746 34.6234 123.906 34.6234C122.273 34.6234 120.963 35.0646 119.977 35.9418C118.996 36.8191 118.5 37.999 118.5 39.4816C118.5 40.2101 118.632 40.877 118.895 41.4824C119.158 42.0826 119.522 42.6007 119.992 43.0214C120.457 43.4472 121.024 43.7755 121.686 44.0115C122.349 44.2475 123.087 44.3655 123.906 44.3655C124.801 44.3655 125.621 44.1808 126.359 43.8166C127.097 43.4523 127.674 43.0317 128.083 42.5597L128.817 44.6631Z" fill="#016DD1"/>
<path d="M67.9152 54.9853C68.5929 54.6929 69.3059 54.5493 70.0645 54.5493C70.8231 54.5493 71.5361 54.6929 72.2138 54.9802C72.8914 55.2675 73.4831 55.6625 73.9989 56.1704C74.5147 56.6783 74.9193 57.2785 75.2177 57.9813C75.516 58.6842 75.6627 59.4486 75.6627 60.2745C75.6627 61.0954 75.516 61.8495 75.2177 62.5472C74.9193 63.2449 74.5147 63.8451 73.9989 64.3581C73.4831 64.8712 72.8914 65.2713 72.2138 65.5637C71.5361 65.8561 70.8231 65.9998 70.0645 65.9998C69.3059 65.9998 68.5929 65.8561 67.9152 65.5637C67.2376 65.2713 66.6459 64.8712 66.1301 64.3581C65.6143 63.8451 65.2097 63.2449 64.9113 62.5472C64.613 61.8495 64.4663 61.0954 64.4663 60.2745C64.4663 59.4537 64.613 58.6996 64.9113 58.0019C65.2097 57.3042 65.6143 56.7039 66.1301 56.1909C66.6409 55.6779 67.2376 55.2778 67.9152 54.9853ZM71.4704 56.981C71.0355 56.8117 70.5652 56.7296 70.0645 56.7296C69.5588 56.7296 69.0885 56.8117 68.6586 56.981C68.2288 57.1503 67.8444 57.3914 67.5258 57.7043C67.2022 58.0173 66.9493 58.3918 66.7673 58.8227C66.5852 59.2588 66.4942 59.741 66.4942 60.2745C66.4942 60.8081 66.5852 61.2903 66.7673 61.7264C66.9493 62.1624 67.2022 62.5369 67.5258 62.8447C67.8495 63.1577 68.2288 63.3988 68.6586 63.5681C69.0885 63.7374 69.5639 63.8195 70.0645 63.8195C70.5702 63.8195 71.0355 63.7374 71.4704 63.5681C71.9053 63.3988 72.2795 63.1577 72.5981 62.8447C72.9167 62.5318 73.1645 62.1573 73.3466 61.7264C73.5286 61.2903 73.6196 60.8081 73.6196 60.2745C73.6196 59.741 73.5286 59.2588 73.3466 58.8227C73.1645 58.3866 72.9167 58.0121 72.5981 57.7043C72.2795 57.3914 71.9002 57.1503 71.4704 56.981Z" fill="#016DD1"/>
<path d="M84.3915 56.0525C84.2195 56.2474 84.0021 56.4116 83.7391 56.5501C83.4761 56.6886 83.198 56.8015 82.9047 56.8938C82.6114 56.9861 82.3231 57.058 82.0349 57.1144C81.7466 57.1708 81.4938 57.217 81.2712 57.258C80.7655 57.3504 80.361 57.4684 80.0525 57.6172C79.744 57.7659 79.5063 57.9301 79.3394 58.1096C79.1726 58.2892 79.0664 58.4841 79.0158 58.6945C78.9652 58.9048 78.9399 59.1152 78.9399 59.3306C79.1422 59.0536 79.4557 58.8176 79.8856 58.6175C80.3155 58.4175 80.8009 58.32 81.3471 58.32C81.873 58.32 82.3585 58.4123 82.8137 58.597C83.2688 58.7817 83.6632 59.0382 83.9919 59.3665C84.3257 59.6949 84.5836 60.0848 84.7707 60.5413C84.9579 60.9979 85.0489 61.4955 85.0489 62.0393C85.0489 62.5934 84.9477 63.1064 84.7455 63.5887C84.5432 64.0709 84.2701 64.4916 83.9211 64.8455C83.5722 65.2046 83.1575 65.4868 82.672 65.692C82.1866 65.8972 81.6708 65.9998 81.1145 65.9998C80.4773 65.9998 79.9058 65.8921 79.39 65.6766C78.8742 65.4612 78.4393 65.138 78.0752 64.7122C77.7111 64.2812 77.4329 63.7477 77.2357 63.1064C77.0385 62.4651 76.9424 61.7213 76.9424 60.8748C76.9424 60.2284 76.993 59.6179 77.0992 59.0331C77.2053 58.4482 77.3925 57.9198 77.6655 57.4427C77.9386 56.9656 78.3129 56.5552 78.7832 56.2166C79.2585 55.8729 79.8603 55.6215 80.5986 55.4574C81.1549 55.3342 81.691 55.2162 82.2169 55.0982C82.7428 54.9802 83.2486 54.7853 83.7442 54.5083L84.3915 56.0525ZM81.0791 63.9272C81.6657 63.9272 82.1512 63.7733 82.5456 63.4604C82.9401 63.1475 83.1373 62.7165 83.1373 62.1625C83.1373 61.8957 83.0867 61.6546 82.9805 61.4391C82.8743 61.2236 82.7277 61.039 82.5406 60.8851C82.3535 60.7312 82.136 60.6132 81.8831 60.5259C81.6303 60.4387 81.3623 60.3977 81.0791 60.3977C80.8566 60.3977 80.6341 60.4285 80.4115 60.4798C80.189 60.5362 79.9817 60.6183 79.7845 60.7312C79.5872 60.844 79.4153 60.9825 79.2636 61.1518C79.1119 61.3211 78.9905 61.5161 78.8995 61.7418C78.9096 62.1009 78.9753 62.4138 79.0967 62.6857C79.2181 62.9576 79.3748 63.1834 79.5721 63.3681C79.7693 63.5527 79.9969 63.6913 80.2548 63.7836C80.5076 63.8811 80.7858 63.9272 81.0791 63.9272Z" fill="#016DD1"/>
<path d="M93.3931 57.8784H95.2541L96.478 65.784H94.5714L93.8887 61.608L92.0732 65.784H90.5308L88.7153 61.608L88.0175 65.784H86.0654L87.2741 57.8784H88.9985L91.1933 62.9265L93.3931 57.8784Z" fill="#016DD1"/>
<path d="M101.726 64.0348C102.212 64.0348 102.672 63.9476 103.117 63.768C103.562 63.5885 103.896 63.3525 104.113 63.0549L104.705 64.5581C104.462 64.9685 104.078 65.3122 103.547 65.5841C103.016 65.8611 102.389 65.9996 101.661 65.9996C101.064 65.9996 100.513 65.9022 100.002 65.7072C99.4912 65.5123 99.0513 65.2352 98.677 64.8761C98.3028 64.517 98.0095 64.081 97.7971 63.5731C97.5847 63.0652 97.4785 62.4855 97.4785 61.8391C97.4785 61.2748 97.5695 60.7464 97.7566 60.2436C97.9438 59.7408 98.2118 59.2997 98.5607 58.9149C98.9097 58.5301 99.3294 58.2274 99.8149 58.0017C100.305 57.776 100.857 57.6631 101.474 57.6631C102.05 57.6631 102.571 57.776 103.041 58.0069C103.512 58.2377 103.906 58.5455 104.235 58.9251C104.563 59.3099 104.816 59.7511 104.998 60.2539C105.18 60.7566 105.271 61.2799 105.271 61.834C105.271 61.9468 105.266 62.0648 105.261 62.1931C105.256 62.3213 105.241 62.429 105.226 62.5214H99.4457C99.5368 63.0447 99.7896 63.4243 100.204 63.6654C100.629 63.9117 101.135 64.0348 101.726 64.0348ZM103.319 60.931C103.259 60.5104 103.056 60.1923 102.713 59.9717C102.369 59.7511 101.959 59.6434 101.489 59.6434C101.013 59.6434 100.589 59.7511 100.219 59.9717C99.8452 60.1923 99.6177 60.5104 99.5367 60.931H103.319Z" fill="#016DD1"/>
<path d="M108.614 57.8784V60.6897H112.033V57.8784H113.954V65.784H112.033V62.7623H108.614V65.784H106.692V57.8784H108.614Z" fill="#016DD1"/>
<path d="M117.799 57.8784V60.6897H121.217V57.8784H123.139V65.784H121.217V62.7623H117.799V65.784H115.877V57.8784H117.799Z" fill="#016DD1"/>
<path d="M126.951 57.8784V62.6238L130.476 57.8784H132.397V65.784H130.506V61.0386L126.981 65.784H125.06V57.8784H126.951Z" fill="#016DD1"/>
<path d="M134.32 57.8784H136.242V60.8693L139.114 57.8784H141.582L138.057 61.6542L141.992 65.784H139.403L136.242 62.5161V65.784H134.32V57.8784Z" fill="#016DD1"/>
<path d="M144.53 57.8784V62.6238L148.055 57.8784H149.977V65.784H148.085V61.0386L144.56 65.784H142.639V57.8784H144.53Z" fill="#016DD1"/>
<path d="M162.144 64.5837C161.912 64.9736 161.532 65.3071 161.012 65.579C160.486 65.856 159.879 65.9945 159.181 65.9945C158.635 65.9945 158.119 65.8919 157.628 65.6867C157.138 65.4815 156.703 65.1942 156.329 64.8248C155.954 64.4555 155.651 64.0143 155.428 63.5064C155.206 62.9934 155.095 62.4342 155.095 61.8186C155.095 61.2029 155.206 60.6438 155.428 60.1307C155.651 59.6177 155.949 59.1817 156.329 58.8123C156.708 58.4429 157.143 58.1608 157.628 57.9607C158.119 57.7606 158.635 57.6631 159.181 57.6631C159.879 57.6631 160.481 57.8016 160.991 58.0787C161.502 58.3557 161.866 58.684 162.089 59.0637L161.543 60.6899C161.34 60.4437 161.052 60.2231 160.678 60.0281C160.304 59.8332 159.874 59.7357 159.393 59.7357C158.685 59.7357 158.124 59.9255 157.699 60.3103C157.274 60.6951 157.062 61.1978 157.062 61.8237C157.062 62.4496 157.274 62.9523 157.699 63.3422C158.124 63.7321 158.685 63.927 159.393 63.927C159.889 63.927 160.319 63.8244 160.693 63.6192C161.067 63.414 161.36 63.1883 161.573 62.9421L162.144 64.5837Z" fill="#016DD1"/>
<path d="M167.257 57.8784H169.179V60.8693L172.051 57.8784H174.519L170.994 61.6542L174.928 65.784H172.339L169.179 62.5161V65.784H167.257V57.8784Z" fill="#016DD1"/>
<path d="M178.847 64.0348C179.332 64.0348 179.792 63.9476 180.237 63.768C180.682 63.5885 181.016 63.3525 181.234 63.0549L181.825 64.5581C181.582 64.9685 181.198 65.3122 180.667 65.5841C180.136 65.8611 179.509 65.9996 178.781 65.9996C178.184 65.9996 177.633 65.9022 177.122 65.7072C176.611 65.5123 176.171 65.2352 175.797 64.8761C175.423 64.517 175.13 64.081 174.917 63.5731C174.705 63.0652 174.599 62.4855 174.599 61.8391C174.599 61.2748 174.69 60.7464 174.877 60.2436C175.064 59.7408 175.332 59.2997 175.681 58.9149C176.03 58.5301 176.45 58.2274 176.935 58.0017C177.426 57.776 177.977 57.6631 178.594 57.6631C179.17 57.6631 179.691 57.776 180.161 58.0069C180.632 58.2377 181.026 58.5455 181.355 58.9251C181.684 59.3099 181.936 59.7511 182.119 60.2539C182.301 60.7566 182.392 61.2799 182.392 61.834C182.392 61.9468 182.387 62.0648 182.381 62.1931C182.376 62.3213 182.361 62.429 182.346 62.5214H176.566C176.657 63.0447 176.91 63.4243 177.324 63.6654C177.744 63.9117 178.25 64.0348 178.847 64.0348ZM180.435 60.931C180.374 60.5104 180.172 60.1923 179.828 59.9717C179.484 59.7511 179.074 59.6434 178.604 59.6434C178.128 59.6434 177.704 59.7511 177.335 59.9717C176.96 60.1923 176.733 60.5104 176.652 60.931H180.435Z" fill="#016DD1"/>
<path d="M189.968 57.8784V63.7114H192.269V57.8784H194.191V65.784H183.813V57.8784H185.735V63.7114H188.051V57.8784H189.968Z" fill="#016DD1"/>
<path d="M203.238 56.0525C203.066 56.2474 202.849 56.4116 202.586 56.5501C202.323 56.6886 202.045 56.8015 201.751 56.8938C201.458 56.9861 201.17 57.058 200.882 57.1144C200.593 57.1708 200.34 57.217 200.118 57.258C199.612 57.3504 199.208 57.4684 198.899 57.6172C198.591 57.7659 198.353 57.9301 198.186 58.1096C198.019 58.2892 197.913 58.4841 197.862 58.6945C197.812 58.9048 197.787 59.1152 197.787 59.3306C197.989 59.0536 198.302 58.8176 198.732 58.6175C199.162 58.4175 199.648 58.32 200.194 58.32C200.72 58.32 201.205 58.4123 201.66 58.597C202.115 58.7817 202.51 59.0382 202.839 59.3665C203.172 59.6949 203.43 60.0848 203.617 60.5413C203.805 60.9979 203.896 61.4955 203.896 62.0393C203.896 62.5934 203.794 63.1064 203.592 63.5887C203.39 64.0709 203.117 64.4916 202.768 64.8455C202.419 65.2046 202.004 65.4868 201.519 65.692C201.033 65.8972 200.517 65.9998 199.961 65.9998C199.324 65.9998 198.753 65.8921 198.237 65.6766C197.721 65.4612 197.286 65.138 196.922 64.7122C196.558 64.2812 196.28 63.7477 196.082 63.1064C195.885 62.4651 195.789 61.7213 195.789 60.8748C195.789 60.2284 195.84 59.6179 195.946 59.0331C196.052 58.4482 196.239 57.9198 196.512 57.4427C196.785 56.9656 197.16 56.5552 197.63 56.2166C198.105 55.8729 198.707 55.6215 199.445 55.4574C200.002 55.3342 200.538 55.2162 201.064 55.0982C201.59 54.9802 202.095 54.7853 202.591 54.5083L203.238 56.0525ZM199.926 63.9272C200.512 63.9272 200.998 63.7733 201.392 63.4604C201.787 63.1475 201.984 62.7165 201.984 62.1625C201.984 61.8957 201.933 61.6546 201.827 61.4391C201.721 61.2236 201.574 61.039 201.387 60.8851C201.2 60.7312 200.983 60.6132 200.73 60.5259C200.477 60.4387 200.209 60.3977 199.926 60.3977C199.703 60.3977 199.481 60.4285 199.258 60.4798C199.036 60.5362 198.828 60.6183 198.631 60.7312C198.434 60.844 198.262 60.9825 198.11 61.1518C197.959 61.3211 197.837 61.5161 197.746 61.7418C197.756 62.1009 197.822 62.4138 197.943 62.6857C198.065 62.9576 198.222 63.1834 198.419 63.3681C198.616 63.5527 198.844 63.6913 199.101 63.7836C199.354 63.8811 199.632 63.9272 199.926 63.9272Z" fill="#016DD1"/>
<path d="M209.033 64.0348C209.519 64.0348 209.979 63.9476 210.424 63.768C210.869 63.5885 211.203 63.3525 211.42 63.0549L212.012 64.5581C211.769 64.9685 211.385 65.3122 210.854 65.5841C210.323 65.8611 209.696 65.9996 208.967 65.9996C208.371 65.9996 207.819 65.9022 207.309 65.7072C206.798 65.5123 206.358 65.2352 205.984 64.8761C205.609 64.517 205.316 64.081 205.104 63.5731C204.891 63.0652 204.785 62.4855 204.785 61.8391C204.785 61.2748 204.876 60.7464 205.063 60.2436C205.25 59.7408 205.518 59.2997 205.867 58.9149C206.216 58.5301 206.636 58.2274 207.122 58.0017C207.612 57.776 208.163 57.6631 208.78 57.6631C209.357 57.6631 209.878 57.776 210.348 58.0069C210.818 58.2377 211.213 58.5455 211.541 58.9251C211.87 59.3099 212.123 59.7511 212.305 60.2539C212.487 60.7566 212.578 61.2799 212.578 61.834C212.578 61.9468 212.573 62.0648 212.568 62.1931C212.563 62.3213 212.548 62.429 212.533 62.5214H206.752C206.843 63.0447 207.096 63.4243 207.511 63.6654C207.931 63.9117 208.436 64.0348 209.033 64.0348ZM210.621 60.931C210.56 60.5104 210.358 60.1923 210.014 59.9717C209.67 59.7511 209.261 59.6434 208.79 59.6434C208.315 59.6434 207.89 59.7511 207.521 59.9717C207.147 60.1923 206.919 60.5104 206.838 60.931H210.621Z" fill="#016DD1"/>
<path d="M213.994 57.8784H215.916V60.8693L218.788 57.8784H221.256L217.731 61.6542L221.666 65.784H219.077L215.916 62.5161V65.784H213.994V57.8784Z" fill="#016DD1"/>
<path d="M229.581 61.8391C229.581 62.4444 229.469 62.9985 229.247 63.5064C229.024 64.0143 228.726 64.4503 228.347 64.8197C227.967 65.1891 227.532 65.4764 227.037 65.6867C226.541 65.897 226.015 65.9996 225.464 65.9996C224.908 65.9996 224.387 65.8919 223.891 65.6867C223.396 65.4764 222.961 65.1891 222.582 64.8197C222.202 64.4503 221.904 64.0143 221.681 63.5064C221.459 62.9985 221.348 62.4444 221.348 61.8391C221.348 61.244 221.459 60.6951 221.681 60.182C221.904 59.669 222.202 59.2278 222.582 58.8533C222.961 58.4788 223.396 58.1864 223.891 57.9761C224.387 57.7657 224.908 57.6631 225.464 57.6631C226.02 57.6631 226.541 57.7657 227.037 57.9761C227.532 58.1864 227.967 58.4788 228.347 58.8533C228.726 59.2278 229.024 59.669 229.247 60.182C229.469 60.6899 229.581 61.244 229.581 61.8391ZM223.451 60.9875C223.34 61.2491 223.285 61.5313 223.285 61.8391C223.285 62.1469 223.34 62.429 223.451 62.6856C223.563 62.9421 223.714 63.1627 223.912 63.3473C224.109 63.532 224.341 63.6757 224.609 63.7783C224.877 63.8809 225.161 63.9322 225.464 63.9322C225.768 63.9322 226.051 63.8809 226.314 63.7783C226.577 63.6757 226.804 63.532 227.001 63.3473C227.199 63.1627 227.355 62.9421 227.472 62.6856C227.588 62.429 227.644 62.1469 227.644 61.8391C227.644 61.5313 227.588 61.2491 227.472 60.9875C227.355 60.7258 227.199 60.5052 227.001 60.3206C226.804 60.1359 226.577 59.9922 226.314 59.8896C226.051 59.787 225.768 59.7357 225.464 59.7357C225.161 59.7357 224.877 59.787 224.609 59.8896C224.341 59.9922 224.109 60.1359 223.912 60.3206C223.714 60.5052 223.563 60.7258 223.451 60.9875Z" fill="#016DD1"/>
<path d="M237.914 57.8784H239.775L240.999 65.784H239.098L238.415 61.608L236.6 65.784H235.057L233.242 61.608L232.544 65.784H230.592L231.8 57.8784H233.525L235.72 62.9265L237.914 57.8784Z" fill="#016DD1"/>
<path d="M132.58 25.6147H143.766V28.6056H135.326V34.4437H142.891V37.4346H135.326V43.8935H143.766V46.8843H132.58V25.6147Z" fill="black"/>
<path d="M147.913 32.1045H150.568V38.3273L157.021 32.1045H160.642L153.284 39.2456L161.345 46.8896H157.4L150.568 40.3743V46.8896H147.913V32.1045Z" fill="black"/>
<path d="M174.923 44.6631C174.766 44.9965 174.529 45.3197 174.21 45.6275C173.887 45.9353 173.497 46.2072 173.027 46.4432C172.562 46.6792 172.031 46.8742 171.434 47.0229C170.842 47.1717 170.2 47.2435 169.522 47.2435C168.531 47.2435 167.575 47.0537 166.66 46.6792C165.745 46.3047 164.941 45.7763 164.253 45.094C163.56 44.4117 163.009 43.596 162.589 42.652C162.169 41.703 161.962 40.6462 161.962 39.4816C161.962 38.3376 162.169 37.2859 162.589 36.3266C163.009 35.3672 163.56 34.5567 164.253 33.8846C164.946 33.2126 165.745 32.6893 166.66 32.3148C167.575 31.9403 168.531 31.7505 169.522 31.7505C170.185 31.7505 170.802 31.8223 171.378 31.9557C171.95 32.0942 172.471 32.2789 172.926 32.52C173.381 32.756 173.77 33.0227 174.094 33.3203C174.418 33.6178 174.655 33.9205 174.807 34.2386L174.104 36.3727C173.694 35.9008 173.123 35.4904 172.38 35.1415C171.641 34.7978 170.852 34.6234 170.013 34.6234C168.379 34.6234 167.07 35.0646 166.083 35.9418C165.102 36.8191 164.607 37.999 164.607 39.4816C164.607 40.2101 164.738 40.877 165.001 41.4824C165.264 42.0826 165.628 42.6007 166.099 43.0214C166.564 43.4472 167.13 43.7755 167.793 44.0115C168.455 44.2475 169.194 44.3655 170.013 44.3655C170.908 44.3655 171.727 44.1808 172.465 43.8166C173.204 43.4523 173.78 43.0317 174.19 42.5597L174.923 44.6631Z" fill="black"/>
<path d="M191.51 32.1045V46.8844H188.855V34.9774H181.381V46.8844H178.726V32.1045H191.51Z" fill="black"/>
<path d="M203.015 44.3655C203.48 44.3655 203.94 44.3039 204.385 44.1859C204.835 44.0679 205.255 43.9191 205.655 43.7396C206.054 43.56 206.408 43.3548 206.722 43.1188C207.035 42.8828 207.293 42.6469 207.511 42.4057L208.213 44.5091C208.057 44.8477 207.819 45.1709 207.5 45.489C207.177 45.807 206.787 46.0943 206.332 46.3611C205.877 46.6279 205.356 46.8382 204.77 46.9972C204.183 47.1563 203.551 47.2332 202.873 47.2332C201.781 47.2332 200.774 47.0485 199.849 46.6843C198.924 46.3201 198.125 45.807 197.452 45.1452C196.779 44.4835 196.253 43.6729 195.874 42.7187C195.495 41.7593 195.303 40.6871 195.303 39.5021C195.303 38.476 195.47 37.4911 195.798 36.5522C196.127 35.6134 196.607 34.7875 197.229 34.0795C197.851 33.3664 198.6 32.8021 199.48 32.3763C200.355 31.9505 201.351 31.7402 202.458 31.7402C203.51 31.7402 204.456 31.9454 205.29 32.3609C206.125 32.7764 206.843 33.3356 207.435 34.0333C208.026 34.7362 208.481 35.5519 208.795 36.4907C209.109 37.4295 209.26 38.4196 209.26 39.4662C209.26 39.7842 209.23 40.1177 209.174 40.4717H198.018C198.155 41.7747 198.671 42.7495 199.566 43.3907C200.466 44.0474 201.614 44.3655 203.015 44.3655ZM206.428 37.763C206.388 37.3269 206.261 36.9165 206.049 36.5317C205.837 36.147 205.548 35.8135 205.189 35.5262C204.83 35.2389 204.416 35.0183 203.95 34.8593C203.485 34.7003 202.984 34.6233 202.464 34.6233C201.943 34.6233 201.427 34.7003 200.931 34.8593C200.436 35.0183 199.996 35.2338 199.616 35.5108C199.237 35.7878 198.919 36.1162 198.666 36.5009C198.413 36.8857 198.256 37.3064 198.2 37.7578H206.428V37.763Z" fill="black"/>
<path d="M226.99 36.3525C227.399 37.3119 227.602 38.3635 227.602 39.5076C227.602 40.6516 227.399 41.6981 226.99 42.6472C226.58 43.5963 226.034 44.412 225.356 45.0892C224.674 45.7715 223.88 46.2999 222.974 46.6744C222.069 47.0489 221.118 47.2387 220.127 47.2387C219.02 47.2387 218.064 47.0489 217.265 46.6744C216.466 46.2999 215.95 45.833 215.717 45.2841V53.1948H213.062V32.1048H215.632V33.6746C215.864 33.1205 216.385 32.6639 217.194 32.2946C218.003 31.9303 218.959 31.7456 220.072 31.7456C221.083 31.7456 222.049 31.9355 222.964 32.31C223.88 32.6845 224.679 33.2129 225.356 33.8952C226.034 34.5775 226.58 35.3983 226.99 36.3525ZM224.942 39.4511C224.942 37.9685 224.492 36.7937 223.596 35.9267C222.701 35.0597 221.513 34.6237 220.036 34.6237C219.025 34.6237 218.115 34.8545 217.305 35.3214C216.496 35.7831 215.965 36.373 215.712 37.0861V41.9136C215.965 42.6267 216.496 43.2115 217.305 43.6784C218.115 44.1401 219.025 44.3761 220.036 44.3761C221.518 44.3761 222.701 43.9298 223.596 43.0422C224.497 42.1445 224.942 40.9491 224.942 39.4511Z" fill="black"/>
<path d="M242 34.9774H237.15V46.8844H234.495V34.9774H229.646V32.1045H242V34.9774Z" fill="black"/>
</svg>
