<svg xmlns="http://www.w3.org/2000/svg" width="250" height="80" fill="none"><path fill="#219653" d="m25.765 46.892 8.588-2.168 3.588 11.017-12.176-8.849Zm19.764-14.24H30.412l-4.647-14.181-4.647 14.181H6l12.235 8.79-4.647 14.182 12.235-8.79 7.53-5.392 12.176-8.79Z"/><path fill="#000" d="M74.832 25.596h-9.839v26.757h-6.617V25.596H48.67v-5.36h26.162v5.36ZM90.162 34.464a17.31 17.31 0 0 0-2.294-.177c-2.411 0-3.992.816-4.742 2.449v15.617H76.75V28.485h6.022l.176 2.846c1.28-2.191 3.052-3.287 5.316-3.287.706 0 1.368.096 1.986.287l-.089 6.133ZM107.545 49.926c-1.574 1.912-3.75 2.868-6.53 2.868-2.559 0-4.514-.735-5.867-2.206-1.339-1.47-2.022-3.625-2.052-6.463v-15.64h6.375v15.42c0 2.485 1.132 3.727 3.397 3.727 2.162 0 3.647-.75 4.456-2.25V28.485h6.397v23.868h-6l-.176-2.427ZM131.456 45.758c0-.78-.39-1.39-1.169-1.831-.765-.456-2-.86-3.706-1.214-5.676-1.19-8.514-3.602-8.514-7.235 0-2.117.875-3.882 2.625-5.294 1.764-1.426 4.066-2.14 6.904-2.14 3.029 0 5.448.714 7.257 2.14 1.824 1.426 2.735 3.28 2.735 5.559h-6.374c0-.912-.295-1.662-.883-2.25-.588-.603-1.507-.904-2.757-.904-1.074 0-1.905.242-2.493.727-.588.486-.882 1.103-.882 1.853 0 .706.331 1.28.993 1.72.676.427 1.808.802 3.397 1.126 1.588.309 2.926.662 4.014 1.059 3.368 1.235 5.052 3.375 5.052 6.419 0 2.176-.934 3.94-2.802 5.294-1.867 1.338-4.279 2.007-7.235 2.007-2 0-3.779-.353-5.338-1.059-1.544-.72-2.758-1.698-3.64-2.933-.882-1.25-1.323-2.596-1.323-4.037h6.044c.058 1.132.478 2 1.257 2.603.779.603 1.823.904 3.132.904 1.221 0 2.14-.228 2.758-.684.632-.47.948-1.08.948-1.83ZM149.412 22.618v5.867h4.081v4.677h-4.081v11.912c0 .882.169 1.514.507 1.897.339.382.986.573 1.941.573.706 0 1.331-.051 1.875-.154v4.83c-1.25.383-2.536.574-3.86.574-4.47 0-6.75-2.257-6.838-6.772v-12.86h-3.485v-4.677h3.485v-5.867h6.375ZM178.529 40.64c0 3.676-.838 6.625-2.514 8.845-1.662 2.206-3.912 3.31-6.75 3.31-2.412 0-4.361-.839-5.846-2.516v11.25h-6.375V28.486h5.912l.221 2.339c1.544-1.853 3.558-2.78 6.044-2.78 2.941 0 5.228 1.089 6.86 3.265 1.632 2.177 2.448 5.177 2.448 9v.33Zm-6.375-.463c0-2.22-.397-3.934-1.191-5.14-.779-1.206-1.919-1.809-3.419-1.809-2 0-3.375.765-4.125 2.294v9.772c.78 1.574 2.169 2.36 4.169 2.36 3.044 0 4.566-2.492 4.566-7.477ZM189.228 52.353h-6.397V28.485h6.397v23.868Zm-6.772-30.044c0-.956.316-1.743.948-2.36.647-.618 1.522-.927 2.625-.927 1.089 0 1.956.309 2.603.926.647.618.971 1.405.971 2.36 0 .971-.331 1.765-.993 2.383-.647.618-1.507.927-2.581.927-1.073 0-1.941-.31-2.603-.927-.647-.618-.97-1.412-.97-2.382ZM201.228 52.353h-6.397V18.47h6.397v33.882ZM205.507 40.199c0-2.368.456-4.478 1.368-6.331.912-1.853 2.22-3.287 3.926-4.302 1.721-1.014 3.713-1.522 5.978-1.522 3.221 0 5.846.986 7.875 2.956 2.044 1.97 3.184 4.647 3.419 8.03l.044 1.632c0 3.662-1.022 6.603-3.066 8.823-2.044 2.206-4.787 3.31-8.228 3.31s-6.191-1.104-8.25-3.31c-2.044-2.206-3.066-5.205-3.066-9V40.2Zm6.375.463c0 2.265.427 4 1.28 5.206.852 1.191 2.073 1.786 3.661 1.786 1.544 0 2.75-.588 3.618-1.764.868-1.191 1.301-3.088 1.301-5.691 0-2.22-.433-3.941-1.301-5.162-.868-1.22-2.088-1.83-3.662-1.83-1.559 0-2.765.61-3.617 1.83-.853 1.206-1.28 3.08-1.28 5.625ZM239.676 22.618v5.867h4.081v4.677h-4.081v11.912c0 .882.169 1.514.507 1.897.339.382.986.573 1.942.573.705 0 1.33-.051 1.875-.154v4.83c-1.25.383-2.537.574-3.861.574-4.47 0-6.75-2.257-6.838-6.772v-12.86h-3.485v-4.677h3.485v-5.867h6.375Z"/></svg>