<svg width="250" height="80" viewBox="0 0 250 80" fill="none" xmlns="http://www.w3.org/2000/svg">
<path d="M23.9401 13.0835C33.2925 13.0835 40.8763 20.9565 40.8763 30.6677C40.8763 40.379 33.2925 48.2506 23.9401 48.2506C14.5863 48.2506 7.00391 40.379 7.00391 30.6677C7.00391 20.9565 14.5863 13.0835 23.9401 13.0835Z" fill="#2A609F"/>
<path d="M23.7711 45.3999C31.7105 45.3999 38.1467 38.6842 38.1467 30.3999C38.1467 22.1156 31.7105 15.3999 23.7711 15.3999C15.8317 15.3999 9.39551 22.1156 9.39551 30.3999C9.39551 38.6842 15.8317 45.3999 23.7711 45.3999Z" fill="white"/>
<path d="M50.293 58.7939H168.477V18.8604H39.8936C40.4326 19.4954 40.9321 20.1813 41.3877 20.9155C45.5885 27.7057 44.5556 36.422 39.3715 41.9778C38.9626 42.4171 38.5282 42.8352 38.0684 43.2321L38.6598 44.1873L39.1706 45.0136L39.578 45.6712L40.6505 47.4074C41.0495 47.3605 41.4513 47.4074 41.8263 47.5421C42.4263 47.5676 43.0105 47.7802 43.4973 48.1628C43.7689 48.3754 44.0109 48.639 44.2062 48.9522L49.7737 57.9562L50.293 58.7939Z" fill="#2A609F"/>
<path d="M150.532 26.8906H161.071V31.3494H155.025V36.4261H160.311V40.8835H155.025V46.3046H161.071V50.762H150.532V26.8906ZM48.1221 26.8906H58.6602V31.3494H52.6144V36.4261H57.899V40.8835H52.6144V46.3046H58.6602V50.762H48.1221V26.8906ZM59.8827 26.8906H65.1347L66.8199 32.7893H67.0179L68.6026 26.8906H73.8886L69.3312 38.3125L74.2197 50.762H68.9337L66.9189 43.7662H66.7873L64.7711 50.762H59.5516L64.3084 38.3125L59.8827 26.8906ZM75.8058 32.9623C75.8058 31.0645 76.2954 29.5438 77.2759 28.4C78.255 27.2563 79.7576 26.6851 81.7851 26.6851C83.7886 26.6851 85.2699 27.1939 86.2279 28.2115C87.1857 29.2291 87.6653 30.55 87.6653 32.1728C87.6653 32.2876 87.6653 32.3953 87.6653 32.4988C87.6653 32.6022 87.6541 32.71 87.6328 32.8248L83.3047 33.6128C83.2835 32.9056 83.1349 32.316 82.8633 31.8468C82.5916 31.3792 82.2265 31.1439 81.7695 31.1439C81.4625 31.1439 81.2178 31.2076 81.0338 31.3324C80.8485 31.4585 80.7013 31.613 80.5923 31.7959C80.4834 31.9787 80.407 32.1785 80.3631 32.3953C80.3193 32.6136 80.298 32.8021 80.298 32.9623V45.1381C80.298 45.4585 80.3745 45.766 80.5287 46.0636C80.6815 46.3613 81.0437 46.5101 81.6139 46.5101C82.0525 46.5101 82.409 46.3046 82.6821 45.8921C82.9567 45.4811 83.1052 44.8632 83.1264 44.0397L87.5663 44.6577C87.5437 46.5554 87.0372 48.0819 86.0453 49.2369C85.0563 50.392 83.623 50.9689 81.7525 50.9689C79.6812 50.9689 78.1729 50.4657 77.2249 49.4595C76.2783 48.4532 75.8058 46.9452 75.8058 44.9312V32.9623ZM90.1103 26.8906H94.6025V36.3567H97.4762V26.8906H101.97V50.762H97.4762V40.8835H94.6025V50.762H90.1103V26.8906ZM108.248 26.8906H113.732L118.125 50.762H113.399L112.706 46.0991H109.336L108.642 50.762H103.886L108.248 26.8906ZM111.617 37.9015L111.12 33.0643H110.922L110.428 37.9015L109.964 41.7069H112.045L111.617 37.9015ZM120.007 26.8906H123.937L126.648 33.8197L128.2 38.175H128.365V26.8906H132.759V50.762H128.943L126.244 43.8002L124.666 39.2734H124.501V50.762H120.007V26.8906ZM136.029 32.9623C136.029 31.0645 136.541 29.5438 137.566 28.4C138.59 27.2563 140.071 26.6851 142.008 26.6851C143.044 26.6851 143.941 26.8396 144.701 27.1471C145.462 27.4561 146.089 27.8856 146.584 28.434C147.081 28.9825 147.432 29.6345 147.642 30.3899C147.85 31.1439 147.923 31.956 147.856 32.8248L143.495 33.6128C143.474 32.9056 143.329 32.316 143.06 31.8468C142.789 31.3792 142.429 31.1439 141.976 31.1439C141.674 31.1439 141.433 31.2076 141.25 31.3324C141.067 31.4585 140.92 31.613 140.813 31.7959C140.705 31.9787 140.629 32.1785 140.586 32.3953C140.543 32.6136 140.523 32.8021 140.523 32.9623V45.1381C140.523 45.4585 140.596 45.766 140.748 46.0636C140.899 46.3613 141.253 46.5101 141.813 46.5101C142.243 46.5101 142.597 46.3896 142.879 46.1501C143.157 45.9092 143.297 45.5959 143.297 45.2062V41.5368H141.778V37.4551H147.791V44.9666C147.791 46.9339 147.283 48.4248 146.27 49.4425C145.257 50.46 143.827 50.9689 141.976 50.9689C139.904 50.9689 138.396 50.4657 137.45 49.4595C136.503 48.4532 136.029 46.9452 136.029 44.9312V32.9623Z" fill="white"/>
<path d="M32.7146 21.6042C30.3432 20.1019 27.9578 18.6279 25.5821 17.1355C25.4194 17.0335 25.2553 16.991 25.0997 17.0916C24.927 17.2036 24.9016 17.4048 24.9426 17.6004C25.0912 18.3247 25.2581 19.0475 25.4095 19.7731C25.4407 19.9234 25.4166 20.0098 25.2355 20.0197C17.2273 20.4675 10.7485 27.5752 12.9189 35.9868C12.9755 36.2051 13.0406 36.4404 13.2868 36.5212C13.4651 36.5793 13.6419 36.5268 13.7664 36.4064C13.8626 36.3142 13.9291 36.1853 13.9391 36.0279C14.3861 29.5028 20.8819 26.3096 26.4976 25.9936C26.6447 25.9836 26.7395 26.0517 26.7635 26.2175C26.8923 27.1685 27.1838 28.2399 27.3833 29.1909C27.4314 29.4234 27.5333 29.5481 27.7229 29.5835C27.9365 29.6246 28.0709 29.4929 28.1784 29.3327C29.7617 26.9829 31.3351 24.5649 32.849 22.1683C32.9863 21.9515 32.9297 21.7417 32.7146 21.6042ZM15.1672 39.7299C17.5385 41.2322 19.9226 42.7062 22.2996 44.1986C22.4609 44.3006 22.6279 44.3432 22.7821 44.2439C22.9547 44.1306 22.9787 43.9293 22.9391 43.7338C22.7906 43.0095 22.6236 42.2867 22.4722 41.5624C22.4411 41.4122 22.4651 41.3243 22.6477 41.3144C30.6545 40.8665 37.1333 33.7589 34.9628 25.3473C34.9063 25.129 34.8412 24.8938 34.5949 24.8144C34.4153 24.7549 34.2399 24.8073 34.1153 24.9278C34.0191 25.0199 33.9526 25.1489 33.9427 25.3062C33.4942 31.8314 26.9998 35.0245 21.3842 35.342C21.2356 35.3505 21.1422 35.2839 21.1196 35.1166C20.9894 34.1656 20.698 33.0942 20.4985 32.1431C20.4489 31.9107 20.3485 31.786 20.1589 31.7506C19.9453 31.7095 19.8122 31.8413 19.7047 32.0029C18.1201 34.3513 16.5467 36.7692 15.0327 39.1658C14.8955 39.3841 14.9521 39.5939 15.1672 39.7299Z" fill="#2A609F"/>
<path d="M46.8419 59.0775L41.1243 49.8325C40.9263 49.5108 40.6772 49.2401 40.3985 49.0232C39.6175 48.4095 38.5917 48.2196 37.6494 48.5272L36.3746 46.4651L35.9572 45.7904L35.4308 44.9414L34.8238 43.9593C35.2964 43.5525 35.7421 43.1245 36.1623 42.6738C41.4851 36.9692 42.5434 28.019 38.2309 21.0475C37.621 20.061 36.9306 19.161 36.175 18.3475C34.9059 16.9798 33.4528 15.8644 31.8837 15.0098C30.0104 13.9908 27.973 13.3473 25.8832 13.1078C25.245 13.0355 24.6041 13.0001 23.9617 13.0015C20.8646 13.0129 17.7334 13.91 14.9333 15.7766C9.91472 19.1227 7.17835 24.7692 7.18262 30.5347C7.18402 33.769 8.0499 37.0401 9.85813 39.9625C13.4336 45.7479 19.7425 48.6079 25.9058 47.9021C27.6249 47.7066 29.3312 47.2332 30.9668 46.4679L31.629 47.5393L33.8192 51.0797C32.9222 52.1129 32.7581 53.679 33.5179 54.905L40.0985 65.5445C40.6815 66.487 41.6648 67.0001 42.668 66.9987C43.2325 66.9987 43.8013 66.8371 44.3121 66.4984L44.5243 66.3538L46.7867 64.8444C48.2044 63.9019 48.6148 61.9418 47.705 60.472L46.8419 59.0775ZM11.9027 38.6005C7.73157 31.8585 9.42376 22.9536 15.6266 18.3376C15.8276 18.1888 16.0356 18.04 16.2464 17.8996C19.2205 15.9168 22.6303 15.2124 25.8804 15.6475C25.978 15.6603 26.0742 15.6773 26.1718 15.6915C29.8123 16.257 33.2264 18.2568 35.5709 21.501C35.7732 21.7801 35.9699 22.065 36.1552 22.3627C36.1651 22.3783 36.1765 22.3939 36.1864 22.4095C36.7226 23.2768 37.1598 24.1796 37.5065 25.1023C38.3157 27.2665 38.6044 29.5511 38.419 31.782C38.0469 36.2521 35.7591 40.4997 31.8426 43.1131C29.9849 44.349 27.9588 45.0875 25.9072 45.3624C25.7558 45.3836 25.6044 45.3992 25.4516 45.4148C21.9795 45.7649 18.4678 44.7955 15.6125 42.6639C14.1806 41.5938 12.9129 40.2361 11.9027 38.6005Z" fill="#2A609F"/>
<path d="M235.952 18.8604H168.198V58.7939H235.952C239.842 58.7939 242.996 55.5186 242.996 51.4778V26.175C242.996 22.1344 239.842 18.8604 235.952 18.8604Z" fill="white"/>
<path fill-rule="evenodd" clip-rule="evenodd" d="M168.198 18.8604H235.952C239.842 18.8604 242.996 22.1344 242.996 26.175V51.4778C242.996 55.5186 239.842 58.7939 235.952 58.7939H168.198V18.8604ZM169.396 57.5938H235.952C239.14 57.5938 241.798 54.897 241.798 51.4778V26.175C241.798 22.7562 239.141 20.0604 235.952 20.0604H169.396V57.5938Z" fill="#2A609F"/>
<path d="M179.3 34.3002C179.344 34.5511 179.452 34.7906 179.629 35.0202C179.804 35.2484 180.063 35.4709 180.401 35.6891C180.741 35.906 181.219 36.1398 181.832 36.3921C182.886 36.8258 183.719 37.2836 184.332 37.7626C184.946 38.2445 185.411 38.7703 185.73 39.3415C186.048 39.9126 186.255 40.5589 186.355 41.2789C186.454 41.9989 186.504 42.8167 186.504 43.7322C186.504 44.8292 186.412 45.8241 186.222 46.7156C186.035 47.6071 185.714 48.3667 185.263 48.996C184.813 49.6267 184.2 50.1114 183.43 50.4544C182.659 50.7974 181.692 50.9689 180.522 50.9689C179.466 50.9689 178.558 50.8073 177.798 50.4842C177.038 50.161 176.42 49.7188 175.949 49.1533C175.475 48.5906 175.128 47.933 174.907 47.1861C174.687 46.4378 174.576 45.6413 174.576 44.7952L179.102 43.9023C179.146 44.7725 179.271 45.423 179.479 45.8581C179.685 46.2932 180.073 46.5086 180.638 46.5086C180.966 46.5086 181.22 46.4307 181.407 46.2706C181.59 46.1104 181.733 45.9049 181.83 45.654C181.928 45.4032 181.994 45.107 182.027 44.764C182.058 44.4224 182.075 44.078 182.075 43.7365C182.075 43.2574 182.041 42.8577 181.977 42.5375C181.91 42.2185 181.796 41.945 181.631 41.7168C181.467 41.4886 181.239 41.2888 180.952 41.1173C180.666 40.9459 180.312 40.7687 179.896 40.5872C178.771 40.1068 177.87 39.6093 177.187 39.0963C176.505 38.5832 175.981 38.0361 175.618 37.4536C175.254 36.8711 175.016 36.2546 174.907 35.6041C174.797 34.955 174.742 34.2406 174.742 33.464C174.742 32.4832 174.851 31.5762 175.071 30.7428C175.292 29.9094 175.639 29.1965 176.113 28.6027C176.587 28.0088 177.204 27.5425 177.963 27.1996C178.723 26.8566 179.643 26.6851 180.721 26.6851C181.867 26.6851 182.814 26.8736 183.561 27.2506C184.312 27.6276 184.901 28.1095 185.329 28.6919C185.759 29.2745 186.062 29.9208 186.239 30.6294C186.416 31.3381 186.504 32.024 186.504 32.6873L182.075 33.6822C182.075 33.3378 182.058 33.0189 182.027 32.7213C181.994 32.4251 181.924 32.1558 181.815 31.9163C181.706 31.6753 181.559 31.4869 181.373 31.3508C181.189 31.2119 180.932 31.1439 180.606 31.1439C180.301 31.1439 180.06 31.219 179.889 31.3664C179.714 31.5152 179.578 31.698 179.479 31.9163C179.381 32.1331 179.316 32.3783 179.284 32.6519C179.251 32.9268 179.234 33.1905 179.234 33.4413C179.234 33.7616 179.257 34.0479 179.3 34.3002ZM234.635 44.9326C234.635 46.9905 234.14 48.5113 233.148 49.4949C232.158 50.4771 230.693 50.9689 228.756 50.9689C224.857 50.9689 222.909 48.9578 222.909 44.9326V32.6873C222.909 30.6294 223.424 29.1143 224.461 28.1421C225.495 27.1698 226.927 26.6851 228.756 26.6851C230.759 26.6851 232.241 27.1698 233.199 28.1421C234.157 29.1143 234.635 30.6294 234.635 32.6873V44.9326ZM228.756 31.0404C228.381 31.0404 228.06 31.1552 227.796 31.3848C227.534 31.613 227.401 31.9886 227.401 32.5158V45.1381C227.401 45.6866 227.534 46.0693 227.796 46.2875C228.06 46.5044 228.381 46.6136 228.756 46.6136C229.129 46.6136 229.443 46.5044 229.696 46.2875C229.949 46.0693 230.076 45.6866 230.076 45.1381V32.5158C230.076 31.9886 229.949 31.613 229.696 31.3848C229.443 31.1552 229.129 31.0404 228.756 31.0404ZM219.936 50.762H215.442V39.615H215.311L214.226 43.3197L213.337 46.0991H210.344L209.392 43.0448L208.338 39.513H208.174V50.762H203.68V26.8906H207.878L210.156 33.2698L211.71 38.0036H211.908L213.493 33.1678L215.741 26.8906H219.936V50.762ZM200.742 44.9326C200.742 46.9905 200.246 48.5113 199.253 49.4949C198.264 50.4771 196.8 50.9689 194.861 50.9689C190.961 50.9689 189.014 48.9578 189.014 44.9326V26.926H193.506V45.0361C193.506 45.5846 193.639 45.9673 193.904 46.1841C194.167 46.401 194.486 46.5086 194.861 46.5086C195.235 46.5086 195.55 46.401 195.802 46.1841C196.056 45.9673 196.181 45.5846 196.181 45.0361V26.926H200.742V44.9326Z" fill="#2A609F"/>
</svg>
