<svg xmlns="http://www.w3.org/2000/svg" width="250" height="80" fill="none"><path fill="#000" d="M53.684 33.47a.626.626 0 0 1-.136-.211c-1.82-5.423-3.444-8.11-4.956-9.317a3.644 3.644 0 0 0-3.044-.713c-.45.103-.86.36-1.108.76-.678 1.098.253 2.483 1.85 1.97a.225.225 0 0 1 .183.015c1.81 1.082 2.802 3.94 3.864 6.654l-10.676.359a4.178 4.178 0 0 0-1.477.308 2.97 2.97 0 0 0-1.223.898.529.529 0 0 1-.521.2 4.887 4.887 0 0 0-1.77.005.49.49 0 0 1-.48-.18c-.506-.662-1.23-1.098-2.261-1.19l-11.106-.43c1.022-2.92 2.215-5.382 3.854-6.685a.238.238 0 0 1 .253-.026c.602.308 1.213.277 1.643-.185.44-.472.516-1.2.177-1.754-.263-.431-.713-.688-1.35-.785a3.378 3.378 0 0 0-2.362.523c-2.027 1.339-3.792 4.74-5.37 9.557a.552.552 0 0 1-.162.252c-.971.877-1.123 2.037-.96 3.309l.717 4.51c.117.758.486 1.328 1.017 1.774a3.78 3.78 0 0 0 2.27.857l8.501.349c.693.03 1.391-.072 2.038-.328 1.148-.457 2.028-1.309 2.67-2.494.48-.99.855-2.611 1.22-4.31h1.193l.809 3.192a5.62 5.62 0 0 0 .698 1.657 4.577 4.577 0 0 0 2.149 1.826 5.66 5.66 0 0 0 2.402.431l8.506-.287c.42-.016.84-.098 1.229-.262.834-.354 1.36-.97 1.7-1.76a4.67 4.67 0 0 0 .303-1.077l.662-4.114c.081-.487.086-.99-.01-1.478-.132-.723-.44-1.333-.936-1.82Zm-21.416 3.165-.698 2.94c-.273 1.138-1.295 1.933-2.448 1.897l-8.5-.251a.752.752 0 0 1-.719-.657l-.576-4.463a.65.65 0 0 1 .662-.739l11.651.436c.425.01.729.421.628.837Zm19.611-.565-.576 4.463a.744.744 0 0 1-.719.657l-8.5.252a2.446 2.446 0 0 1-2.448-1.899l-.698-2.94a.677.677 0 0 1 .627-.84l11.652-.437c.399-.01.713.344.662.744Z"/><path fill="#000" d="M35.615 13C20.915 13 9 25.087 9 40s11.915 27 26.615 27c14.701 0 26.616-12.087 26.616-27S50.316 13 35.615 13Zm15.111 42.329a21.313 21.313 0 0 1-6.792 4.648 20.957 20.957 0 0 1-8.313 1.703c-2.888 0-5.685-.575-8.314-1.703a21.312 21.312 0 0 1-6.792-4.648 21.653 21.653 0 0 1-4.582-6.89 21.794 21.794 0 0 1-1.679-8.434c0-2.93.567-5.766 1.68-8.434 1.076-2.58 2.619-4.9 4.581-6.89a21.314 21.314 0 0 1 6.792-4.648 20.96 20.96 0 0 1 8.314-1.703c2.887 0 5.684.575 8.313 1.703a21.315 21.315 0 0 1 6.792 4.648 21.656 21.656 0 0 1 4.582 6.89 21.793 21.793 0 0 1 1.679 8.434c0 2.93-.567 5.766-1.68 8.434a21.77 21.77 0 0 1-4.581 6.89Z"/><path fill="#016DD1" d="M64.956 25.615h2.746v9.3l8.47-9.3h3.621l-9.375 10.337 10.367 10.932H76.93l-9.229-9.629v9.63h-2.746v-21.27ZM80.668 32.105h2.979l4.465 10.87 4.44-10.87H95.5l-8.672 21.09h-2.949l2.802-6.875-6.013-14.215ZM112.437 36.352c.41.96.612 2.012.612 3.156 0 1.144-.202 2.19-.612 3.14a7.744 7.744 0 0 1-1.633 2.441 7.267 7.267 0 0 1-2.382 1.585 7.383 7.383 0 0 1-2.847.565c-1.108 0-2.063-.19-2.862-.565-.799-.374-1.315-.841-1.548-1.39v7.91H98.51v-21.09h2.569v1.57c.233-.553.754-1.01 1.563-1.38.809-.364 1.765-.548 2.877-.548 1.012 0 1.978.19 2.893.564a7.156 7.156 0 0 1 2.392 1.585 7.815 7.815 0 0 1 1.633 2.457Zm-2.043 3.1c0-1.483-.45-2.658-1.345-3.525s-2.083-1.303-3.56-1.303c-1.011 0-1.922.23-2.731.697-.809.462-1.34 1.052-1.593 1.765v4.828c.253.713.784 1.297 1.593 1.764.809.462 1.72.698 2.731.698 1.482 0 2.665-.446 3.56-1.334.895-.898 1.345-2.093 1.345-3.59ZM128.817 44.663a3.334 3.334 0 0 1-.713.965c-.324.307-.713.58-1.184.815a7.543 7.543 0 0 1-1.593.58 7.847 7.847 0 0 1-1.911.22c-.991 0-1.947-.19-2.863-.564a7.321 7.321 0 0 1-2.407-1.585 7.87 7.87 0 0 1-1.663-2.442c-.42-.949-.628-2.006-.628-3.17 0-1.144.208-2.196.628-3.155.419-.96.971-1.77 1.663-2.442a7.5 7.5 0 0 1 2.407-1.57 7.503 7.503 0 0 1 2.863-.564 8.21 8.21 0 0 1 1.856.205 6.657 6.657 0 0 1 1.547.564c.455.236.845.503 1.168.8.324.298.562.6.713.919l-.702 2.134c-.41-.472-.982-.883-1.725-1.231a5.54 5.54 0 0 0-2.367-.519c-1.633 0-2.943.442-3.929 1.319-.981.877-1.477 2.057-1.477 3.54 0 .728.132 1.395.395 2 .263.6.627 1.119 1.097 1.54.465.425 1.032.754 1.694.99.663.236 1.401.353 2.22.353.895 0 1.715-.184 2.453-.548.738-.365 1.315-.785 1.724-1.257l.734 2.103ZM67.915 54.985a5.354 5.354 0 0 1 2.15-.436c.758 0 1.471.144 2.149.431.677.288 1.27.683 1.785 1.19.516.508.92 1.108 1.219 1.811.298.703.445 1.468.445 2.294 0 .82-.147 1.575-.445 2.272a5.655 5.655 0 0 1-1.22 1.811 5.707 5.707 0 0 1-1.784 1.206 5.354 5.354 0 0 1-2.15.436 5.354 5.354 0 0 1-2.149-.436 5.707 5.707 0 0 1-1.785-1.206 5.655 5.655 0 0 1-1.219-1.81 5.707 5.707 0 0 1-.445-2.273c0-.821.147-1.575.445-2.273a5.656 5.656 0 0 1 1.22-1.811 5.654 5.654 0 0 1 1.784-1.206Zm3.555 1.996a3.847 3.847 0 0 0-1.406-.251c-.505 0-.975.082-1.405.251-.43.17-.815.41-1.133.723a3.354 3.354 0 0 0-.759 1.119 3.727 3.727 0 0 0-.273 1.452c0 .533.091 1.015.273 1.451.182.436.435.81.759 1.119.324.313.703.554 1.133.723.43.17.905.252 1.405.252.506 0 .972-.083 1.406-.252a3.29 3.29 0 0 0 1.877-1.842c.182-.436.273-.918.273-1.451 0-.534-.091-1.016-.273-1.452a3.3 3.3 0 0 0-1.877-1.842ZM84.391 56.053a2.26 2.26 0 0 1-.652.497 5.013 5.013 0 0 1-.834.344 8.007 8.007 0 0 1-.87.22c-.288.057-.541.103-.764.144-.505.092-.91.21-1.219.36-.308.148-.546.312-.713.492-.166.18-.273.374-.323.584a2.7 2.7 0 0 0-.076.637c.202-.277.516-.513.946-.714.43-.2.915-.297 1.461-.297a3.85 3.85 0 0 1 1.467.277c.455.185.85.441 1.178.77.334.328.592.718.779 1.174.187.457.278.955.278 1.498 0 .554-.101 1.067-.303 1.55a3.937 3.937 0 0 1-.825 1.257c-.349.359-.764.64-1.249.846a3.946 3.946 0 0 1-1.557.308 4.42 4.42 0 0 1-1.725-.323 3.465 3.465 0 0 1-1.315-.965c-.364-.43-.642-.964-.84-1.606-.197-.64-.293-1.385-.293-2.231 0-.647.051-1.257.157-1.842a4.947 4.947 0 0 1 .566-1.59 3.882 3.882 0 0 1 1.118-1.226c.475-.344 1.077-.596 1.816-.76.556-.123 1.092-.24 1.618-.359a5.64 5.64 0 0 0 1.527-.59l.647 1.544Zm-3.312 7.874c.587 0 1.072-.154 1.467-.467.394-.313.591-.743.591-1.297 0-.267-.05-.508-.156-.724a1.66 1.66 0 0 0-.44-.554 2.095 2.095 0 0 0-.658-.36 2.447 2.447 0 0 0-.804-.127c-.222 0-.445.03-.667.082a2.47 2.47 0 0 0-.628.251c-.197.113-.369.252-.52.42-.152.17-.273.365-.364.59.01.36.075.673.197.945.121.272.278.497.475.682.197.185.425.323.683.416.253.097.53.143.824.143ZM93.393 57.878h1.861l1.224 7.906h-1.907l-.682-4.176-1.816 4.176h-1.542l-1.816-4.176-.698 4.176h-1.952l1.21-7.906h1.724l2.194 5.048 2.2-5.048ZM101.726 64.035c.486 0 .946-.087 1.391-.267.445-.18.779-.416.996-.713l.592 1.503c-.243.41-.627.754-1.158 1.026-.531.277-1.158.416-1.886.416a4.607 4.607 0 0 1-1.659-.293 3.892 3.892 0 0 1-1.325-.83 3.83 3.83 0 0 1-.88-1.304c-.212-.508-.319-1.087-.319-1.734 0-.564.092-1.093.279-1.595.187-.503.455-.944.804-1.33a3.878 3.878 0 0 1 1.254-.912c.49-.226 1.042-.339 1.659-.339a3.5 3.5 0 0 1 1.567.344c.471.23.865.538 1.194.918.328.385.581.826.763 1.329.182.503.273 1.026.273 1.58 0 .113-.005.23-.01.36-.005.127-.02.235-.035.327h-5.78c.09.524.344.903.758 1.144.425.247.931.37 1.522.37Zm1.593-3.104a1.305 1.305 0 0 0-.606-.96c-.344-.22-.754-.328-1.224-.328-.476 0-.9.108-1.27.329a1.37 1.37 0 0 0-.682.959h3.782ZM108.614 57.878v2.812h3.419v-2.812h1.921v7.906h-1.921v-3.022h-3.419v3.022h-1.922v-7.906h1.922ZM117.799 57.878v2.812h3.418v-2.812h1.922v7.906h-1.922v-3.022h-3.418v3.022h-1.922v-7.906h1.922ZM126.951 57.878v4.746l3.525-4.746h1.921v7.906h-1.891v-4.745l-3.525 4.745h-1.921v-7.906h1.891ZM134.32 57.878h1.922v2.991l2.872-2.99h2.468l-3.525 3.775 3.935 4.13h-2.589l-3.161-3.268v3.268h-1.922v-7.906ZM144.53 57.878v4.746l3.525-4.746h1.922v7.906h-1.892v-4.745l-3.525 4.745h-1.921v-7.906h1.891ZM162.144 64.584c-.232.39-.612.723-1.132.995-.526.277-1.133.416-1.831.416a4.069 4.069 0 0 1-2.852-1.17 4.21 4.21 0 0 1-.901-1.319 4.193 4.193 0 0 1-.333-1.687c0-.616.111-1.175.333-1.688.223-.513.521-.95.901-1.319.379-.37.814-.651 1.299-.851a4.067 4.067 0 0 1 1.553-.298c.698 0 1.3.139 1.81.416.511.277.875.605 1.098.985l-.546 1.626c-.203-.246-.491-.467-.865-.662a2.745 2.745 0 0 0-1.285-.292c-.708 0-1.269.19-1.694.574-.425.385-.637.888-.637 1.514s.212 1.128.637 1.518c.425.39.986.585 1.694.585.496 0 .926-.103 1.3-.308.374-.205.667-.43.88-.677l.571 1.642ZM167.257 57.878h1.922v2.991l2.872-2.99h2.468l-3.525 3.775 3.934 4.13h-2.589l-3.16-3.268v3.268h-1.922v-7.906Z"/><path fill="#016DD1" d="M178.847 64.035c.485 0 .945-.087 1.39-.267.445-.18.779-.416.997-.713l.591 1.503c-.243.41-.627.754-1.158 1.026-.531.277-1.158.416-1.886.416a4.607 4.607 0 0 1-1.659-.293 3.887 3.887 0 0 1-1.325-.83 3.842 3.842 0 0 1-.88-1.304c-.212-.508-.318-1.087-.318-1.734 0-.564.091-1.093.278-1.595.187-.503.455-.944.804-1.33a3.883 3.883 0 0 1 1.254-.912c.491-.226 1.042-.339 1.659-.339a3.5 3.5 0 0 1 1.567.344c.471.23.865.538 1.194.918.329.385.581.826.764 1.329.182.503.273 1.026.273 1.58 0 .113-.005.23-.011.36-.005.127-.02.235-.035.327h-5.78c.091.524.344.903.758 1.144.42.247.926.37 1.523.37Zm1.588-3.104a1.306 1.306 0 0 0-.607-.96c-.344-.22-.754-.328-1.224-.328-.476 0-.9.108-1.269.329-.375.22-.602.538-.683.959h3.783ZM189.968 57.878v5.833h2.301v-5.833h1.922v7.906h-10.378v-7.906h1.922v5.833h2.316v-5.833h1.917ZM203.238 56.053c-.172.194-.389.359-.652.497a4.995 4.995 0 0 1-.835.344 7.988 7.988 0 0 1-.869.22c-.289.057-.542.103-.764.144-.506.092-.91.21-1.219.36-.308.148-.546.312-.713.492a1.3 1.3 0 0 0-.324.584c-.05.21-.075.421-.075.637.202-.277.515-.513.945-.714.43-.2.916-.297 1.462-.297.526 0 1.011.092 1.466.277a3.474 3.474 0 0 1 1.957 1.944c.188.457.279.955.279 1.498 0 .554-.102 1.067-.304 1.55a3.93 3.93 0 0 1-.824 1.257c-.349.359-.764.64-1.249.846a3.952 3.952 0 0 1-1.558.308 4.42 4.42 0 0 1-1.724-.323 3.464 3.464 0 0 1-1.315-.965c-.364-.43-.642-.964-.84-1.606-.197-.64-.293-1.385-.293-2.231 0-.647.051-1.257.157-1.842a4.944 4.944 0 0 1 .566-1.59 3.886 3.886 0 0 1 1.118-1.226c.475-.344 1.077-.596 1.815-.76.557-.123 1.093-.24 1.619-.359a5.642 5.642 0 0 0 1.527-.59l.647 1.544Zm-3.312 7.874c.586 0 1.072-.154 1.466-.467.395-.313.592-.743.592-1.297 0-.267-.051-.508-.157-.724a1.659 1.659 0 0 0-.44-.554 2.09 2.09 0 0 0-.657-.36 2.449 2.449 0 0 0-.804-.127c-.223 0-.445.03-.668.082-.222.056-.43.138-.627.251a2 2 0 0 0-.885 1.01c.01.36.076.673.197.945.122.272.279.497.476.682.197.185.425.323.682.416.253.097.531.143.825.143ZM209.033 64.035c.486 0 .946-.087 1.391-.267.445-.18.779-.416.996-.713l.592 1.503c-.243.41-.627.754-1.158 1.026-.531.277-1.158.416-1.887.416a4.601 4.601 0 0 1-1.658-.293 3.887 3.887 0 0 1-1.325-.83 3.814 3.814 0 0 1-.88-1.304c-.213-.508-.319-1.087-.319-1.734 0-.564.091-1.093.278-1.595.187-.503.455-.944.804-1.33a3.876 3.876 0 0 1 1.255-.912c.49-.226 1.041-.339 1.658-.339.577 0 1.098.113 1.568.344.47.23.865.538 1.193.918.329.385.582.826.764 1.329.182.503.273 1.026.273 1.58 0 .113-.005.23-.01.36-.005.127-.02.235-.035.327h-5.781c.091.524.344.903.759 1.144.42.247.925.37 1.522.37Zm1.588-3.104a1.306 1.306 0 0 0-.607-.96c-.344-.22-.753-.328-1.224-.328-.475 0-.9.108-1.269.329a1.37 1.37 0 0 0-.683.959h3.783ZM213.994 57.878h1.922v2.991l2.872-2.99h2.468l-3.525 3.775 3.935 4.13h-2.589l-3.161-3.268v3.268h-1.922v-7.906Z"/><path fill="#016DD1" d="M229.581 61.84a4.112 4.112 0 0 1-2.544 3.847 3.992 3.992 0 0 1-1.573.313 4.066 4.066 0 0 1-1.573-.313 4.214 4.214 0 0 1-1.309-.867 4.107 4.107 0 0 1-1.234-2.98 4.175 4.175 0 0 1 2.543-3.863 3.973 3.973 0 0 1 1.573-.314c.556 0 1.077.103 1.573.313.495.21.93.503 1.31.877a4.189 4.189 0 0 1 1.234 2.986Zm-6.13-.853a2.151 2.151 0 0 0-.166.852c0 .308.055.59.166.847.112.256.263.477.461.661.197.185.429.329.697.431.268.103.552.154.855.154.304 0 .587-.051.85-.154a2.062 2.062 0 0 0 1.158-1.093 2.03 2.03 0 0 0 .172-.846 2.029 2.029 0 0 0-.643-1.519 2.115 2.115 0 0 0-.687-.43 2.317 2.317 0 0 0-.85-.154c-.303 0-.587.051-.855.154-.268.102-.5.246-.697.43a1.933 1.933 0 0 0-.461.667ZM237.914 57.878h1.861l1.224 7.906h-1.901l-.683-4.176-1.815 4.176h-1.543l-1.815-4.176-.698 4.176h-1.952l1.208-7.906h1.725l2.195 5.048 2.194-5.048Z"/><path fill="#000" d="M132.58 25.615h11.186v2.99h-8.44v5.839h7.565v2.99h-7.565v6.46h8.44v2.99H132.58v-21.27ZM147.913 32.105h2.655v6.222l6.453-6.222h3.621l-7.358 7.14 8.061 7.645H157.4l-6.832-6.516v6.516h-2.655V32.105ZM174.923 44.663a3.316 3.316 0 0 1-.713.965c-.323.307-.713.58-1.183.815a7.543 7.543 0 0 1-1.593.58 7.855 7.855 0 0 1-1.912.22c-.991 0-1.947-.19-2.862-.564a7.321 7.321 0 0 1-2.407-1.585 7.872 7.872 0 0 1-1.664-2.442c-.42-.949-.627-2.006-.627-3.17 0-1.144.207-2.196.627-3.155.42-.96.971-1.77 1.664-2.442a7.5 7.5 0 0 1 2.407-1.57 7.495 7.495 0 0 1 2.862-.564c.663 0 1.28.071 1.856.205a6.649 6.649 0 0 1 1.548.564c.455.236.844.503 1.168.8.324.298.561.6.713.919l-.703 2.134c-.41-.472-.981-.883-1.724-1.231a5.547 5.547 0 0 0-2.367-.519c-1.634 0-2.943.442-3.93 1.319-.981.877-1.476 2.057-1.476 3.54 0 .728.131 1.395.394 2 .263.6.627 1.119 1.098 1.54.465.425 1.031.754 1.694.99.662.236 1.401.353 2.22.353.895 0 1.714-.184 2.452-.548.739-.365 1.315-.785 1.725-1.257l.733 2.103ZM191.51 32.105v14.78h-2.655V34.976h-7.474v11.907h-2.655v-14.78h12.784ZM203.015 44.365c.465 0 .925-.061 1.37-.18a8.11 8.11 0 0 0 1.27-.445 5.565 5.565 0 0 0 1.856-1.334l.702 2.103a3.422 3.422 0 0 1-.713.98 5.916 5.916 0 0 1-1.168.872 6.373 6.373 0 0 1-1.562.636 7.229 7.229 0 0 1-1.897.236c-1.092 0-2.099-.184-3.024-.549a7.068 7.068 0 0 1-2.397-1.539c-.673-.662-1.199-1.472-1.578-2.426-.379-.96-.571-2.032-.571-3.217 0-1.026.167-2.01.495-2.95a7.437 7.437 0 0 1 1.431-2.472 6.974 6.974 0 0 1 2.251-1.704c.875-.425 1.871-.636 2.978-.636 1.052 0 1.998.205 2.832.62a6.7 6.7 0 0 1 2.145 1.673 7.438 7.438 0 0 1 1.36 2.458c.314.938.465 1.929.465 2.975 0 .318-.03.652-.086 1.006h-11.156c.137 1.303.653 2.277 1.548 2.919.9.656 2.048.974 3.449.974Zm3.413-6.602a3.116 3.116 0 0 0-.379-1.231 3.366 3.366 0 0 0-.86-1.006 4.061 4.061 0 0 0-1.239-.667 4.585 4.585 0 0 0-1.486-.236c-.521 0-1.037.077-1.533.236a4.605 4.605 0 0 0-1.315.652 3.823 3.823 0 0 0-.95.99 2.92 2.92 0 0 0-.466 1.257h8.228v.005ZM226.99 36.352c.409.96.612 2.012.612 3.156 0 1.144-.203 2.19-.612 3.14a7.763 7.763 0 0 1-1.634 2.441 7.246 7.246 0 0 1-2.382 1.585 7.383 7.383 0 0 1-2.847.565c-1.107 0-2.063-.19-2.862-.565-.799-.374-1.315-.841-1.548-1.39v7.91h-2.655v-21.09h2.57v1.57c.232-.553.753-1.01 1.562-1.38.809-.364 1.765-.548 2.878-.548a7.57 7.57 0 0 1 2.892.564 7.136 7.136 0 0 1 2.392 1.585 7.834 7.834 0 0 1 1.634 2.457Zm-2.048 3.1c0-1.483-.45-2.658-1.346-3.525-.895-.867-2.083-1.303-3.56-1.303-1.011 0-1.921.23-2.731.697-.809.462-1.34 1.052-1.593 1.765v4.828c.253.713.784 1.297 1.593 1.764.81.462 1.72.698 2.731.698 1.482 0 2.665-.446 3.56-1.334.901-.898 1.346-2.093 1.346-3.59ZM242 34.977h-4.85v11.907h-2.655V34.977h-4.849v-2.872H242v2.872Z"/></svg>