<svg width="250" height="80" viewBox="0 0 250 80" fill="none" xmlns="http://www.w3.org/2000/svg">
<path d="M25.7646 46.8923L34.3528 44.724L37.941 55.7411L25.7646 46.8923ZM45.5292 32.6522H30.4116L25.7646 18.4707L21.1176 32.6522H6L18.2352 41.4424L13.5882 55.6239L25.8234 46.8337L33.3528 41.4424L45.5292 32.6522Z" fill="#219653"/>
<path d="M74.8315 25.5957H64.9934V52.3528H58.3757V25.5957H48.6699V20.2354H74.8315V25.5957Z" fill="black"/>
<path d="M90.1623 34.4635C89.2947 34.3458 88.53 34.287 87.8682 34.287C85.4565 34.287 83.8756 35.1032 83.1256 36.7355V52.353H76.7506V28.4855H82.7727L82.9491 31.3311C84.2285 29.14 86.0006 28.0444 88.2653 28.0444C88.9711 28.0444 89.6329 28.14 90.2505 28.3311L90.1623 34.4635Z" fill="black"/>
<path d="M107.545 49.9265C105.971 51.8382 103.795 52.7941 101.015 52.7941C98.4564 52.7941 96.5005 52.0588 95.1476 50.5883C93.8093 49.1177 93.1255 46.9633 93.0961 44.1251V28.4854H99.4711V43.9045C99.4711 46.3897 100.603 47.6324 102.868 47.6324C105.03 47.6324 106.515 46.8824 107.324 45.3824V28.4854H113.721V52.3528H107.721L107.545 49.9265Z" fill="black"/>
<path d="M131.456 45.7575C131.456 44.9781 131.066 44.3678 130.287 43.9266C129.522 43.4707 128.287 43.0663 126.581 42.7134C120.905 41.5222 118.067 39.1105 118.067 35.4782C118.067 33.3605 118.942 31.5958 120.692 30.1841C122.456 28.7576 124.758 28.0444 127.596 28.0444C130.625 28.0444 133.044 28.7576 134.853 30.1841C136.677 31.6105 137.588 33.4635 137.588 35.7429H131.214C131.214 34.8311 130.919 34.0811 130.331 33.4929C129.743 32.8899 128.824 32.5885 127.574 32.5885C126.5 32.5885 125.669 32.8311 125.081 33.3164C124.493 33.8017 124.199 34.4193 124.199 35.1693C124.199 35.8752 124.53 36.4487 125.192 36.8899C125.868 37.3164 127 37.6914 128.589 38.0149C130.177 38.3237 131.515 38.6767 132.603 39.0737C135.971 40.309 137.655 42.4487 137.655 45.4928C137.655 47.6693 136.721 49.4339 134.853 50.7869C132.986 52.1251 130.574 52.7942 127.618 52.7942C125.618 52.7942 123.839 52.4413 122.28 51.7354C120.736 51.0148 119.522 50.0369 118.64 48.8016C117.758 47.5516 117.317 46.206 117.317 44.7649H123.361C123.419 45.8972 123.839 46.7648 124.618 47.3678C125.397 47.9707 126.441 48.2722 127.75 48.2722C128.971 48.2722 129.89 48.0442 130.508 47.5884C131.14 47.1178 131.456 46.5075 131.456 45.7575Z" fill="black"/>
<path d="M149.412 22.6177V28.4853H153.493V33.1618H149.412V45.0735C149.412 45.9558 149.581 46.5882 149.919 46.9705C150.258 47.3529 150.905 47.5441 151.86 47.5441C152.566 47.5441 153.191 47.4926 153.735 47.3896V52.2205C152.485 52.6028 151.199 52.794 149.875 52.794C145.405 52.794 143.125 50.5367 143.037 46.022V33.1618H139.552V28.4853H143.037V22.6177H149.412Z" fill="black"/>
<path d="M178.529 40.6399C178.529 44.3163 177.691 47.2648 176.015 49.4854C174.353 51.6913 172.103 52.7942 169.265 52.7942C166.853 52.7942 164.904 51.956 163.419 50.2795V61.5295H157.044V28.4855H162.956L163.177 30.8238C164.721 28.9708 166.735 28.0444 169.221 28.0444C172.162 28.0444 174.449 29.1326 176.081 31.3091C177.713 33.4855 178.529 36.4855 178.529 40.309V40.6399ZM172.154 40.1767C172.154 37.9561 171.757 36.2429 170.963 35.037C170.184 33.8311 169.044 33.2282 167.544 33.2282C165.544 33.2282 164.169 33.9929 163.419 35.5223V45.2943C164.199 46.8678 165.588 47.6545 167.588 47.6545C170.632 47.6545 172.154 45.1619 172.154 40.1767Z" fill="black"/>
<path d="M189.228 52.3526H182.831V28.4851H189.228V52.3526ZM182.456 22.3087C182.456 21.3528 182.772 20.5661 183.404 19.9484C184.051 19.3308 184.926 19.022 186.029 19.022C187.118 19.022 187.985 19.3308 188.632 19.9484C189.279 20.5661 189.603 21.3528 189.603 22.3087C189.603 23.2793 189.272 24.0734 188.61 24.6911C187.963 25.3087 187.103 25.6175 186.029 25.6175C184.956 25.6175 184.088 25.3087 183.426 24.6911C182.779 24.0734 182.456 23.2793 182.456 22.3087Z" fill="black"/>
<path d="M201.228 52.3528H194.831V18.4707H201.228V52.3528Z" fill="black"/>
<path d="M205.507 40.1987C205.507 37.8311 205.963 35.7208 206.875 33.8679C207.787 32.0149 209.095 30.5811 210.801 29.5664C212.522 28.5517 214.514 28.0444 216.779 28.0444C220 28.0444 222.625 29.0297 224.654 31.0002C226.698 32.9708 227.838 35.6473 228.073 39.0296L228.117 40.6619C228.117 44.3237 227.095 47.2648 225.051 49.4854C223.007 51.6913 220.264 52.7942 216.823 52.7942C213.382 52.7942 210.632 51.6913 208.573 49.4854C206.529 47.2795 205.507 44.2796 205.507 40.4855V40.1987ZM211.882 40.6619C211.882 42.9266 212.309 44.6619 213.162 45.8678C214.014 47.059 215.235 47.6545 216.823 47.6545C218.367 47.6545 219.573 47.0663 220.441 45.8899C221.309 44.6987 221.742 42.8016 221.742 40.1987C221.742 37.9781 221.309 36.2576 220.441 35.037C219.573 33.8164 218.353 33.2061 216.779 33.2061C215.22 33.2061 214.014 33.8164 213.162 35.037C212.309 36.2429 211.882 38.1178 211.882 40.6619Z" fill="black"/>
<path d="M239.676 22.6177V28.4853H243.757V33.1618H239.676V45.0735C239.676 45.9558 239.845 46.5882 240.183 46.9705C240.522 47.3529 241.169 47.5441 242.125 47.5441C242.83 47.5441 243.455 47.4926 244 47.3896V52.2205C242.75 52.6028 241.463 52.794 240.139 52.794C235.669 52.794 233.389 50.5367 233.301 46.022V33.1618H229.816V28.4853H233.301V22.6177H239.676Z" fill="black"/>
</svg>
