<svg width="250" height="80" viewBox="0 0 250 80" fill="none" xmlns="http://www.w3.org/2000/svg">
<path d="M77.5752 7.33594H78.8789L81.6694 16.0298L84.4526 7.33594H85.7564L82.1748 18H81.1494L77.5752 7.33594ZM77.1504 7.33594H78.293L78.4907 13.8398V18H77.1504V7.33594ZM85.0313 7.33594H86.1738V18H84.8335V13.8398L85.0313 7.33594ZM95.4243 11.7451V13.5981C95.4243 14.3501 95.3413 15.0117 95.1753 15.583C95.0142 16.1494 94.7774 16.623 94.4649 17.0039C94.1524 17.3848 93.7764 17.6704 93.3369 17.8608C92.8975 18.0513 92.4019 18.1465 91.8501 18.1465C91.3179 18.1465 90.832 18.0513 90.3926 17.8608C89.9531 17.6704 89.5747 17.3848 89.2573 17.0039C88.94 16.623 88.6934 16.1494 88.5176 15.583C88.3467 15.0117 88.2612 14.3501 88.2612 13.5981V11.7451C88.2612 10.9932 88.3467 10.334 88.5176 9.76758C88.6885 9.19629 88.9326 8.72021 89.25 8.33936C89.5674 7.9585 89.9458 7.67285 90.3853 7.48242C90.8247 7.28711 91.3106 7.18945 91.8428 7.18945C92.3945 7.18945 92.8901 7.28711 93.3296 7.48242C93.7739 7.67285 94.1499 7.9585 94.4575 8.33936C94.77 8.72021 95.0093 9.19629 95.1753 9.76758C95.3413 10.334 95.4243 10.9932 95.4243 11.7451ZM94.0913 13.5981V11.7305C94.0913 11.1445 94.0425 10.6416 93.9448 10.2217C93.8472 9.79688 93.7031 9.4502 93.5127 9.18164C93.3223 8.91309 93.0879 8.71533 92.8096 8.58838C92.5313 8.45654 92.209 8.39062 91.8428 8.39062C91.4961 8.39062 91.1836 8.45654 90.9053 8.58838C90.6318 8.71533 90.3975 8.91309 90.2022 9.18164C90.0068 9.4502 89.8555 9.79688 89.7481 10.2217C89.6455 10.6416 89.5943 11.1445 89.5943 11.7305V13.5981C89.5943 14.189 89.6455 14.6968 89.7481 15.1216C89.8555 15.5415 90.0068 15.8882 90.2022 16.1616C90.4024 16.4302 90.6416 16.6304 90.9199 16.7622C91.1983 16.8892 91.5083 16.9526 91.8501 16.9526C92.2163 16.9526 92.5386 16.8892 92.8169 16.7622C93.1001 16.6304 93.3345 16.4302 93.52 16.1616C93.7105 15.8882 93.8521 15.5415 93.9448 15.1216C94.0425 14.6968 94.0913 14.189 94.0913 13.5981ZM103.297 11.9209V13.0708H98.6763V11.9209H103.297ZM98.8594 7.33594V18H97.5117V7.33594H98.8594ZM104.491 7.33594V18H103.144V7.33594H104.491ZM108.219 15.5537L112.372 7.33594H113.72V18H112.372V9.7749L108.219 18H106.879V7.33594H108.219V15.5537ZM119.323 7.33594V18H117.99V7.33594H119.323ZM122.128 7.33594V8.49316H115.192V7.33594H122.128ZM130.434 11.7451V13.5981C130.434 14.3501 130.351 15.0117 130.185 15.583C130.023 16.1494 129.787 16.623 129.474 17.0039C129.162 17.3848 128.786 17.6704 128.346 17.8608C127.907 18.0513 127.411 18.1465 126.859 18.1465C126.327 18.1465 125.841 18.0513 125.402 17.8608C124.962 17.6704 124.584 17.3848 124.267 17.0039C123.949 16.623 123.703 16.1494 123.527 15.583C123.356 15.0117 123.271 14.3501 123.271 13.5981V11.7451C123.271 10.9932 123.356 10.334 123.527 9.76758C123.698 9.19629 123.942 8.72021 124.259 8.33936C124.577 7.9585 124.955 7.67285 125.395 7.48242C125.834 7.28711 126.32 7.18945 126.852 7.18945C127.404 7.18945 127.899 7.28711 128.339 7.48242C128.783 7.67285 129.159 7.9585 129.467 8.33936C129.779 8.72021 130.019 9.19629 130.185 9.76758C130.351 10.334 130.434 10.9932 130.434 11.7451ZM129.101 13.5981V11.7305C129.101 11.1445 129.052 10.6416 128.954 10.2217C128.856 9.79688 128.712 9.4502 128.522 9.18164C128.332 8.91309 128.097 8.71533 127.819 8.58838C127.541 8.45654 127.218 8.39062 126.852 8.39062C126.505 8.39062 126.193 8.45654 125.915 8.58838C125.641 8.71533 125.407 8.91309 125.211 9.18164C125.016 9.4502 124.865 9.79688 124.757 10.2217C124.655 10.6416 124.604 11.1445 124.604 11.7305V13.5981C124.604 14.189 124.655 14.6968 124.757 15.1216C124.865 15.5415 125.016 15.8882 125.211 16.1616C125.412 16.4302 125.651 16.6304 125.929 16.7622C126.208 16.8892 126.518 16.9526 126.859 16.9526C127.226 16.9526 127.548 16.8892 127.826 16.7622C128.109 16.6304 128.344 16.4302 128.529 16.1616C128.72 15.8882 128.861 15.5415 128.954 15.1216C129.052 14.6968 129.101 14.189 129.101 13.5981ZM135.919 13.8179H133.59V12.668H135.919C136.359 12.668 136.713 12.5801 136.981 12.4043C137.255 12.2285 137.453 11.9844 137.575 11.6719C137.702 11.3594 137.765 11.0029 137.765 10.6025C137.765 10.2363 137.702 9.89209 137.575 9.56982C137.453 9.24756 137.255 8.98877 136.981 8.79346C136.713 8.59326 136.359 8.49316 135.919 8.49316H133.869V18H132.521V7.33594H135.919C136.608 7.33594 137.189 7.4751 137.663 7.75342C138.136 8.03174 138.495 8.41748 138.739 8.91064C138.988 9.39893 139.113 9.95801 139.113 10.5879C139.113 11.2715 138.988 11.855 138.739 12.3384C138.495 12.8218 138.136 13.1904 137.663 13.4443C137.189 13.6934 136.608 13.8179 135.919 13.8179ZM142.248 15.5537L146.4 7.33594H147.748V18H146.4V9.7749L142.248 18H140.907V7.33594H142.248V15.5537ZM155.929 11.9209V13.0708H151.308V11.9209H155.929ZM151.491 7.33594V18H150.143V7.33594H151.491ZM157.123 7.33594V18H155.775V7.33594H157.123ZM165.055 7.33594V8.49316H160.866V18H159.518V7.33594H165.055Z" fill="black"/>
<path d="M84.0859 65.7451V67.5981C84.0859 68.3501 84.0029 69.0117 83.8369 69.583C83.6758 70.1494 83.439 70.623 83.1265 71.0039C82.814 71.3848 82.438 71.6704 81.9985 71.8608C81.5591 72.0513 81.0635 72.1465 80.5117 72.1465C79.9795 72.1465 79.4937 72.0513 79.0542 71.8608C78.6148 71.6704 78.2363 71.3848 77.919 71.0039C77.6016 70.623 77.355 70.1494 77.1792 69.583C77.0083 69.0117 76.9229 68.3501 76.9229 67.5981V65.7451C76.9229 64.9932 77.0083 64.334 77.1792 63.7676C77.3501 63.1963 77.5942 62.7202 77.9116 62.3394C78.229 61.9585 78.6074 61.6729 79.0469 61.4824C79.4863 61.2871 79.9722 61.1895 80.5044 61.1895C81.0562 61.1895 81.5518 61.2871 81.9912 61.4824C82.4355 61.6729 82.8115 61.9585 83.1191 62.3394C83.4316 62.7202 83.6709 63.1963 83.8369 63.7676C84.0029 64.334 84.0859 64.9932 84.0859 65.7451ZM82.7529 67.5981V65.7305C82.7529 65.1445 82.7041 64.6416 82.6064 64.2217C82.5088 63.7969 82.3647 63.4502 82.1743 63.1816C81.9839 62.9131 81.7495 62.7153 81.4712 62.5884C81.1929 62.4565 80.8706 62.3906 80.5044 62.3906C80.1577 62.3906 79.8452 62.4565 79.5669 62.5884C79.2935 62.7153 79.0591 62.9131 78.8638 63.1816C78.6685 63.4502 78.5171 63.7969 78.4097 64.2217C78.3071 64.6416 78.2559 65.1445 78.2559 65.7305V67.5981C78.2559 68.189 78.3071 68.6968 78.4097 69.1216C78.5171 69.5415 78.6685 69.8882 78.8638 70.1616C79.064 70.4302 79.3032 70.6304 79.5815 70.7622C79.8599 70.8892 80.1699 70.9526 80.5117 70.9526C80.8779 70.9526 81.2002 70.8892 81.4785 70.7622C81.7617 70.6304 81.9961 70.4302 82.1816 70.1616C82.3721 69.8882 82.5137 69.5415 82.6064 69.1216C82.7041 68.6968 82.7529 68.189 82.7529 67.5981ZM91.6738 61.3359V62.4932H87.4844V72H86.1367V61.3359H91.6738ZM87.1987 65.6792H89.623C90.2822 65.6792 90.8389 65.811 91.293 66.0747C91.752 66.3335 92.0986 66.6973 92.333 67.166C92.5723 67.6348 92.6919 68.1841 92.6919 68.814C92.6919 69.2827 92.6235 69.7124 92.4868 70.103C92.355 70.4888 92.1572 70.8257 91.8936 71.1138C91.6348 71.397 91.3149 71.6167 90.9341 71.7729C90.5532 71.9243 90.1162 72 89.623 72H86.1367V61.3359H87.4844V70.8501H89.623C90.0332 70.8501 90.3628 70.7549 90.6118 70.5645C90.8657 70.3691 91.0513 70.1152 91.1685 69.8027C91.2856 69.4902 91.3442 69.1558 91.3442 68.7993C91.3442 68.4429 91.2856 68.1157 91.1685 67.8179C91.0513 67.52 90.8657 67.2832 90.6118 67.1074C90.3628 66.9268 90.0332 66.8364 89.623 66.8364H87.1987V65.6792ZM94.8452 61.3359H96.1489L98.9395 70.0298L101.723 61.3359H103.026L99.4448 72H98.4194L94.8452 61.3359ZM94.4204 61.3359H95.563L95.7607 67.8398V72H94.4204V61.3359ZM102.301 61.3359H103.444V72H102.104V67.8398L102.301 61.3359ZM111.493 70.8501V72H106.864V70.8501H111.493ZM107.106 61.3359V72H105.758V61.3359H107.106ZM110.871 65.9209V67.0708H106.864V65.9209H110.871ZM111.42 61.3359V62.4932H106.864V61.3359H111.42ZM119 65.9209V67.0708H114.379V65.9209H119ZM114.562 61.3359V72H113.214V61.3359H114.562ZM120.194 61.3359V72H118.847V61.3359H120.194ZM128.302 65.9209V67.0708H123.681V65.9209H128.302ZM123.864 61.3359V72H122.516V61.3359H123.864ZM129.496 61.3359V72H128.148V61.3359H129.496ZM133.224 69.5537L137.377 61.3359H138.725V72H137.377V63.7749L133.224 72H131.884V61.3359H133.224V69.5537ZM142.533 61.3359V72H141.186V61.3359H142.533ZM148.019 61.3359L144.166 67.2026H141.998L141.771 66.0308H143.354L146.349 61.3359H148.019ZM146.627 72L143.419 67.0195L144.174 65.7817L148.268 72H146.627ZM156.229 65.7451V67.5981C156.229 68.3501 156.146 69.0117 155.98 69.583C155.819 70.1494 155.582 70.623 155.27 71.0039C154.957 71.3848 154.581 71.6704 154.142 71.8608C153.703 72.0513 153.207 72.1465 152.655 72.1465C152.123 72.1465 151.637 72.0513 151.198 71.8608C150.758 71.6704 150.38 71.3848 150.062 71.0039C149.745 70.623 149.498 70.1494 149.323 69.583C149.152 69.0117 149.066 68.3501 149.066 67.5981V65.7451C149.066 64.9932 149.152 64.334 149.323 63.7676C149.494 63.1963 149.738 62.7202 150.055 62.3394C150.373 61.9585 150.751 61.6729 151.19 61.4824C151.63 61.2871 152.116 61.1895 152.648 61.1895C153.2 61.1895 153.695 61.2871 154.135 61.4824C154.579 61.6729 154.955 61.9585 155.263 62.3394C155.575 62.7202 155.814 63.1963 155.98 63.7676C156.146 64.334 156.229 64.9932 156.229 65.7451ZM154.896 67.5981V65.7305C154.896 65.1445 154.848 64.6416 154.75 64.2217C154.652 63.7969 154.508 63.4502 154.318 63.1816C154.127 62.9131 153.893 62.7153 153.615 62.5884C153.336 62.4565 153.014 62.3906 152.648 62.3906C152.301 62.3906 151.989 62.4565 151.71 62.5884C151.437 62.7153 151.203 62.9131 151.007 63.1816C150.812 63.4502 150.661 63.7969 150.553 64.2217C150.451 64.6416 150.399 65.1445 150.399 65.7305V67.5981C150.399 68.189 150.451 68.6968 150.553 69.1216C150.661 69.5415 150.812 69.8882 151.007 70.1616C151.208 70.4302 151.447 70.6304 151.725 70.7622C152.003 70.8892 152.313 70.9526 152.655 70.9526C153.021 70.9526 153.344 70.8892 153.622 70.7622C153.905 70.6304 154.14 70.4302 154.325 70.1616C154.516 69.8882 154.657 69.5415 154.75 69.1216C154.848 68.6968 154.896 68.189 154.896 67.5981ZM161.547 67.0122H159.379L159.364 65.877H161.378C161.681 65.877 161.95 65.8086 162.184 65.6719C162.418 65.5352 162.602 65.3398 162.733 65.0859C162.87 64.8271 162.938 64.5195 162.938 64.1631C162.938 63.7725 162.88 63.4551 162.763 63.2109C162.65 62.9619 162.477 62.7812 162.243 62.6689C162.013 62.5518 161.72 62.4932 161.364 62.4932H159.665V72H158.317V61.3359H161.364C161.823 61.3359 162.233 61.3921 162.594 61.5044C162.956 61.6118 163.261 61.7827 163.51 62.0171C163.764 62.2466 163.957 62.5396 164.088 62.896C164.22 63.2524 164.286 63.6797 164.286 64.1777C164.286 64.6172 164.186 65.0151 163.986 65.3716C163.791 65.7231 163.517 66.0112 163.165 66.2358C162.814 66.4604 162.409 66.6045 161.95 66.668L161.547 67.0122ZM161.496 72H158.822L159.606 70.8501H161.496C161.847 70.8501 162.145 70.772 162.389 70.6157C162.633 70.4595 162.819 70.2397 162.946 69.9565C163.078 69.6685 163.144 69.3291 163.144 68.9385C163.144 68.543 163.09 68.2012 162.982 67.9131C162.875 67.625 162.704 67.4028 162.47 67.2466C162.235 67.0903 161.928 67.0122 161.547 67.0122H159.811L159.826 65.877H162.169L162.47 66.2871C162.909 66.3311 163.278 66.4775 163.576 66.7266C163.878 66.9707 164.105 67.2832 164.257 67.6641C164.413 68.0449 164.491 68.4648 164.491 68.9238C164.491 69.5879 164.367 70.1494 164.118 70.6084C163.873 71.0625 163.527 71.4092 163.078 71.6484C162.628 71.8828 162.101 72 161.496 72Z" fill="black"/>
<path d="M73.9196 29.0398H81.1196V30.7398H73.9196V29.0398ZM74.0996 35.2598H82.2596V36.9998H72.0996V22.9998H81.9796V24.7398H74.0996V35.2598ZM91.7985 37.1598C90.7318 37.1598 89.7385 36.9798 88.8185 36.6198C87.9118 36.2598 87.1252 35.7598 86.4585 35.1198C85.7918 34.4665 85.2718 33.7065 84.8985 32.8398C84.5252 31.9731 84.3385 31.0265 84.3385 29.9998C84.3385 28.9731 84.5252 28.0265 84.8985 27.1598C85.2718 26.2931 85.7918 25.5398 86.4585 24.8998C87.1252 24.2465 87.9118 23.7398 88.8185 23.3798C89.7252 23.0198 90.7185 22.8398 91.7985 22.8398C92.8652 22.8398 93.8452 23.0198 94.7385 23.3798C95.6452 23.7265 96.4318 24.2265 97.0985 24.8798C97.7785 25.5198 98.2985 26.2731 98.6585 27.1398C99.0318 28.0065 99.2185 28.9598 99.2185 29.9998C99.2185 31.0398 99.0318 31.9931 98.6585 32.8598C98.2985 33.7265 97.7785 34.4865 97.0985 35.1398C96.4318 35.7798 95.6452 36.2798 94.7385 36.6398C93.8452 36.9865 92.8652 37.1598 91.7985 37.1598ZM91.7985 35.3798C92.5718 35.3798 93.2852 35.2465 93.9385 34.9798C94.6052 34.7131 95.1785 34.3398 95.6585 33.8598C96.1518 33.3665 96.5318 32.7931 96.7985 32.1398C97.0785 31.4865 97.2185 30.7731 97.2185 29.9998C97.2185 29.2265 97.0785 28.5131 96.7985 27.8598C96.5318 27.2065 96.1518 26.6398 95.6585 26.1598C95.1785 25.6665 94.6052 25.2865 93.9385 25.0198C93.2852 24.7531 92.5718 24.6198 91.7985 24.6198C91.0118 24.6198 90.2852 24.7531 89.6185 25.0198C88.9652 25.2865 88.3918 25.6665 87.8985 26.1598C87.4052 26.6398 87.0185 27.2065 86.7385 27.8598C86.4718 28.5131 86.3385 29.2265 86.3385 29.9998C86.3385 30.7731 86.4718 31.4865 86.7385 32.1398C87.0185 32.7931 87.4052 33.3665 87.8985 33.8598C88.3918 34.3398 88.9652 34.7131 89.6185 34.9798C90.2852 35.2465 91.0118 35.3798 91.7985 35.3798ZM102.276 36.9998V22.9998H108.556C110.169 22.9998 111.409 23.3265 112.276 23.9798C113.142 24.6198 113.576 25.4998 113.576 26.6198C113.576 27.3798 113.402 28.0198 113.056 28.5398C112.722 29.0598 112.269 29.4598 111.696 29.7398C111.122 30.0198 110.502 30.1598 109.836 30.1598L110.196 29.5598C110.996 29.5598 111.702 29.6998 112.316 29.9798C112.929 30.2598 113.416 30.6731 113.776 31.2198C114.136 31.7531 114.316 32.4198 114.316 33.2198C114.316 34.4198 113.862 35.3531 112.956 36.0198C112.062 36.6731 110.729 36.9998 108.956 36.9998H102.276ZM104.276 35.3798H108.876C109.982 35.3798 110.829 35.1931 111.416 34.8198C112.002 34.4465 112.296 33.8598 112.296 33.0598C112.296 32.2465 112.002 31.6531 111.416 31.2798C110.829 30.9065 109.982 30.7198 108.876 30.7198H104.096V29.0998H108.376C109.389 29.0998 110.176 28.9131 110.736 28.5398C111.296 28.1665 111.576 27.6065 111.576 26.8598C111.576 26.1131 111.296 25.5531 110.736 25.1798C110.176 24.8065 109.389 24.6198 108.376 24.6198H104.276V35.3798ZM117.413 36.9998V22.9998H119.053L125.333 33.5798H124.453L130.653 22.9998H132.293L132.313 36.9998H130.393L130.373 26.0198H130.833L125.313 35.2998H124.393L118.833 26.0198H119.333V36.9998H117.413ZM138.334 29.0398H145.534V30.7398H138.334V29.0398ZM138.514 35.2598H146.674V36.9998H136.514V22.9998H146.394V24.7398H138.514V35.2598ZM149.913 36.9998V22.9998H151.553L160.813 34.4998H159.953V22.9998H161.953V36.9998H160.313L151.053 25.4998H151.913V36.9998H149.913ZM165.183 32.3398V30.6798H170.563V32.3398H165.183Z" fill="url(#paint0_linear_10_760)"/>
<path d="M88.42 56.1598C87.3533 56.1598 86.36 55.9798 85.44 55.6198C84.5333 55.2598 83.7467 54.7598 83.08 54.1198C82.4133 53.4665 81.8933 52.7065 81.52 51.8398C81.1467 50.9731 80.96 50.0265 80.96 48.9998C80.96 47.9731 81.1467 47.0265 81.52 46.1598C81.8933 45.2931 82.4133 44.5398 83.08 43.8998C83.7467 43.2465 84.5333 42.7398 85.44 42.3798C86.3467 42.0198 87.34 41.8398 88.42 41.8398C89.4867 41.8398 90.4667 42.0198 91.36 42.3798C92.2667 42.7265 93.0533 43.2265 93.72 43.8798C94.4 44.5198 94.92 45.2731 95.28 46.1398C95.6533 47.0065 95.84 47.9598 95.84 48.9998C95.84 50.0398 95.6533 50.9931 95.28 51.8598C94.92 52.7265 94.4 53.4865 93.72 54.1398C93.0533 54.7798 92.2667 55.2798 91.36 55.6398C90.4667 55.9865 89.4867 56.1598 88.42 56.1598ZM88.42 54.3798C89.1933 54.3798 89.9067 54.2465 90.56 53.9798C91.2267 53.7131 91.8 53.3398 92.28 52.8598C92.7733 52.3665 93.1533 51.7931 93.42 51.1398C93.7 50.4865 93.84 49.7731 93.84 48.9998C93.84 48.2265 93.7 47.5131 93.42 46.8598C93.1533 46.2065 92.7733 45.6398 92.28 45.1598C91.8 44.6665 91.2267 44.2865 90.56 44.0198C89.9067 43.7531 89.1933 43.6198 88.42 43.6198C87.6333 43.6198 86.9067 43.7531 86.24 44.0198C85.5867 44.2865 85.0133 44.6665 84.52 45.1598C84.0267 45.6398 83.64 46.2065 83.36 46.8598C83.0933 47.5131 82.96 48.2265 82.96 48.9998C82.96 49.7731 83.0933 50.4865 83.36 51.1398C83.64 51.7931 84.0267 52.3665 84.52 52.8598C85.0133 53.3398 85.5867 53.7131 86.24 53.9798C86.9067 54.2465 87.6333 54.3798 88.42 54.3798ZM98.8969 55.9998V41.9998H105.177C106.79 41.9998 108.03 42.3265 108.897 42.9798C109.764 43.6198 110.197 44.4998 110.197 45.6198C110.197 46.3798 110.024 47.0198 109.677 47.5398C109.344 48.0598 108.89 48.4598 108.317 48.7398C107.744 49.0198 107.124 49.1598 106.457 49.1598L106.817 48.5598C107.617 48.5598 108.324 48.6998 108.937 48.9798C109.55 49.2598 110.037 49.6731 110.397 50.2198C110.757 50.7531 110.937 51.4198 110.937 52.2198C110.937 53.4198 110.484 54.3531 109.577 55.0198C108.684 55.6731 107.35 55.9998 105.577 55.9998H98.8969ZM100.897 54.3798H105.497C106.604 54.3798 107.45 54.1931 108.037 53.8198C108.624 53.4465 108.917 52.8598 108.917 52.0598C108.917 51.2465 108.624 50.6531 108.037 50.2798C107.45 49.9065 106.604 49.7198 105.497 49.7198H100.717V48.0998H104.997C106.01 48.0998 106.797 47.9131 107.357 47.5398C107.917 47.1665 108.197 46.6065 108.197 45.8598C108.197 45.1131 107.917 44.5531 107.357 44.1798C106.797 43.8065 106.01 43.6198 104.997 43.6198H100.897V54.3798ZM114.034 55.9998V41.9998H115.674L121.954 52.5798H121.074L127.274 41.9998H128.914L128.934 55.9998H127.014L126.994 45.0198H127.454L121.934 54.2998H121.014L115.454 45.0198H115.954V55.9998H114.034ZM134.955 48.0398H142.155V49.7398H134.955V48.0398ZM135.135 54.2598H143.295V55.9998H133.135V41.9998H143.015V43.7398H135.135V54.2598ZM146.534 55.9998V41.9998H148.174L157.434 53.4998H156.574V41.9998H158.574V55.9998H156.934L147.674 44.4998H148.534V55.9998H146.534Z" fill="url(#paint1_linear_10_760)"/>
<defs>
<linearGradient id="paint0_linear_10_760" x1="121.332" y1="22.8398" x2="121.332" y2="37.1598" gradientUnits="userSpaceOnUse">
<stop stop-color="#99B0D5"/>
<stop offset="0.614583" stop-color="#1386C3"/>
</linearGradient>
<linearGradient id="paint1_linear_10_760" x1="119.767" y1="41.8398" x2="119.767" y2="56.1598" gradientUnits="userSpaceOnUse">
<stop offset="0.4375" stop-color="#1386C3"/>
<stop offset="1" stop-color="#99B0D5"/>
</linearGradient>
</defs>
</svg>
