<svg xmlns="http://www.w3.org/2000/svg" width="250" height="80" fill="none"><path fill="#2A609F" d="M23.94 13.084c9.352 0 16.936 7.872 16.936 17.584 0 9.711-7.584 17.583-16.936 17.583-9.354 0-16.936-7.872-16.936-17.583 0-9.712 7.582-17.584 16.936-17.584Z"/><path fill="#fff" d="M23.771 45.4c7.94 0 14.376-6.716 14.376-15 0-8.284-6.436-15-14.376-15-7.94 0-14.375 6.716-14.375 15 0 8.284 6.436 15 14.375 15Z"/><path fill="#2A609F" d="M50.293 58.794h118.184V18.86H39.894a17.13 17.13 0 0 1 1.494 2.056c4.2 6.79 3.168 15.506-2.017 21.062-.408.44-.843.857-1.303 1.254l.592.955.51.827.408.657 1.072 1.736c.4-.046.801 0 1.176.135a2.9 2.9 0 0 1 1.671.62c.272.213.514.477.71.79l5.567 9.004.519.838Z"/><path fill="#fff" d="M150.532 26.89h10.539v4.46h-6.046v5.076h5.286v4.457h-5.286v5.422h6.046v4.457h-10.539V26.891Zm-102.41 0H58.66v4.46h-6.046v5.076H57.9v4.457h-5.285v5.422h6.046v4.457H48.122V26.891Zm11.76 0h5.253l1.685 5.9h.198l1.585-5.9h5.286L69.33 38.313l4.889 12.45h-5.286l-2.015-6.996h-.132l-2.016 6.996h-5.22l4.757-12.45-4.425-11.421Zm15.924 6.072c0-1.898.49-3.418 1.47-4.562.979-1.144 2.482-1.715 4.51-1.715 2.003 0 3.484.509 4.442 1.527.958 1.017 1.437 2.338 1.437 3.96v.327c0 .103-.01.211-.032.326l-4.328.788c-.022-.707-.17-1.297-.442-1.766-.271-.468-.636-.703-1.094-.703-.306 0-.551.064-.735.188-.186.127-.333.281-.442.464a1.898 1.898 0 0 0-.229.6 2.93 2.93 0 0 0-.065.566v12.176c0 .32.076.628.23.926.153.297.516.446 1.086.446.438 0 .795-.205 1.068-.618.275-.41.423-1.029.444-1.852l4.44.618c-.022 1.897-.529 3.424-1.52 4.579-.99 1.155-2.423 1.732-4.294 1.732-2.07 0-3.58-.503-4.527-1.51-.947-1.006-1.42-2.514-1.42-4.528V32.962Zm14.304-6.071h4.493v9.466h2.873V26.89h4.494v23.871h-4.494v-9.879h-2.873v9.879H90.11V26.891Zm18.138 0h5.484l4.393 23.871h-4.726l-.693-4.663h-3.37l-.694 4.663h-4.756l4.362-23.871Zm3.369 11.01-.497-4.837h-.198l-.494 4.837-.464 3.806h2.081l-.428-3.806Zm8.39-11.01h3.93l2.711 6.929 1.552 4.355h.165V26.891h4.394v23.871h-3.816l-2.699-6.962-1.578-4.527h-.165v11.489h-4.494V26.891Zm16.022 6.071c0-1.898.512-3.418 1.537-4.562 1.024-1.144 2.505-1.715 4.442-1.715 1.036 0 1.933.155 2.693.462.761.31 1.388.739 1.883 1.287.497.549.848 1.2 1.058 1.956a7.06 7.06 0 0 1 .214 2.435l-4.361.788c-.021-.707-.166-1.297-.435-1.766-.271-.468-.631-.703-1.084-.703-.302 0-.543.064-.726.188-.183.127-.33.281-.437.464a1.894 1.894 0 0 0-.227.6 2.974 2.974 0 0 0-.063.566v12.176c0 .32.073.628.225.926.151.297.505.446 1.065.446.43 0 .784-.12 1.066-.36.278-.24.418-.554.418-.944v-3.67h-1.519v-4.08h6.013v7.51c0 1.968-.508 3.459-1.521 4.477-1.013 1.017-2.443 1.526-4.294 1.526-2.072 0-3.58-.503-4.526-1.51-.947-1.006-1.421-2.514-1.421-4.528V32.962Z"/><path fill="#2A609F" d="M32.715 21.604c-2.372-1.502-4.757-2.976-7.133-4.468-.163-.102-.327-.145-.482-.044-.173.112-.198.313-.157.508.148.725.315 1.447.466 2.173.032.15.008.237-.174.247-8.008.448-14.486 7.555-12.316 15.967.056.218.122.453.368.534a.47.47 0 0 0 .48-.115.566.566 0 0 0 .172-.378c.447-6.525 6.943-9.718 12.559-10.034.147-.01.241.058.265.224.13.95.42 2.022.62 2.973.048.232.15.357.34.393.213.04.348-.091.455-.251a291.323 291.323 0 0 0 4.671-7.165c.137-.216.08-.426-.134-.564ZM15.167 39.73c2.371 1.502 4.756 2.976 7.133 4.469.16.102.328.144.482.045.173-.113.197-.315.157-.51-.148-.724-.315-1.447-.467-2.172-.03-.15-.007-.238.176-.248 8.006-.447 14.485-7.555 12.315-15.967-.057-.218-.122-.453-.368-.533a.466.466 0 0 0-.48.114.565.565 0 0 0-.172.378c-.449 6.525-6.943 9.719-12.559 10.036-.148.008-.242-.058-.264-.225-.13-.951-.422-2.023-.622-2.974-.05-.232-.15-.357-.34-.392-.213-.042-.346.09-.453.252a285.257 285.257 0 0 0-4.672 7.163c-.137.218-.08.428.134.564Z"/><path fill="#2A609F" d="m46.842 59.078-5.718-9.245a3.053 3.053 0 0 0-.726-.81 2.956 2.956 0 0 0-2.749-.496l-1.274-2.062-.418-.675-.526-.849-.607-.982c.472-.407.918-.835 1.338-1.285 5.323-5.705 6.381-14.655 2.069-21.627-.61-.986-1.3-1.886-2.056-2.7a16.83 16.83 0 0 0-4.291-3.337 16.488 16.488 0 0 0-7.922-2.008c-3.097.01-6.229.908-9.029 2.775-5.018 3.346-7.755 8.992-7.75 14.758a17.896 17.896 0 0 0 2.675 9.427c3.576 5.786 9.884 8.646 16.048 7.94a16.26 16.26 0 0 0 5.06-1.434l.663 1.071 2.19 3.54a3.257 3.257 0 0 0-.301 3.826l6.58 10.64a3.017 3.017 0 0 0 2.57 1.454 2.96 2.96 0 0 0 1.644-.5l.212-.145 2.263-1.51c1.417-.942 1.828-2.902.918-4.372l-.863-1.395ZM11.902 38.6c-4.17-6.742-2.478-15.646 3.725-20.262.2-.15.409-.298.62-.438 2.974-1.983 6.383-2.688 9.633-2.252.098.012.194.03.292.043 3.64.566 7.054 2.566 9.399 5.81.202.28.399.564.584.862.01.015.021.03.031.047.537.867.974 1.77 1.32 2.692a15.42 15.42 0 0 1 .913 6.68c-.372 4.47-2.66 8.718-6.576 11.331a14.06 14.06 0 0 1-6.391 2.302 14.09 14.09 0 0 1-9.84-2.751 14.693 14.693 0 0 1-3.71-4.064Z"/><path fill="#fff" d="M235.952 18.86h-67.754v39.934h67.754c3.89 0 7.044-3.275 7.044-7.316V26.175c0-4.04-3.154-7.315-7.044-7.315Z"/><path fill="#2A609F" fill-rule="evenodd" d="M168.198 18.86h67.754c3.89 0 7.044 3.274 7.044 7.315v25.303c0 4.04-3.154 7.316-7.044 7.316h-67.754V18.86Zm1.198 38.734h66.556c3.188 0 5.846-2.697 5.846-6.116V26.175c0-3.419-2.657-6.115-5.846-6.115h-66.556v37.534Z" clip-rule="evenodd"/><path fill="#2A609F" d="M179.3 34.3c.044.251.152.49.329.72.175.228.434.45.772.67.34.216.818.45 1.431.702 1.054.434 1.887.892 2.5 1.37.614.483 1.079 1.008 1.398 1.58a5.5 5.5 0 0 1 .625 1.937c.099.72.149 1.538.149 2.453 0 1.097-.092 2.092-.282 2.984-.187.891-.508 1.65-.959 2.28-.45.63-1.063 1.115-1.833 1.458-.771.343-1.738.515-2.908.515-1.056 0-1.964-.162-2.724-.485-.76-.323-1.378-.765-1.849-1.33a5.39 5.39 0 0 1-1.042-1.968 8.435 8.435 0 0 1-.331-2.39l4.526-.894c.044.87.169 1.521.377 1.956.206.435.594.65 1.159.65.328 0 .582-.077.769-.237.183-.16.326-.366.423-.617.098-.25.164-.547.197-.89.031-.342.048-.686.048-1.028 0-.479-.034-.878-.098-1.198a2.126 2.126 0 0 0-.346-.821 2.226 2.226 0 0 0-.679-.6 9.394 9.394 0 0 0-1.056-.53c-1.125-.48-2.026-.978-2.709-1.49-.682-.514-1.206-1.06-1.569-1.643a5.036 5.036 0 0 1-.711-1.85c-.11-.649-.165-1.363-.165-2.14 0-.98.109-1.888.329-2.721.221-.834.568-1.546 1.042-2.14.474-.594 1.091-1.06 1.85-1.403.76-.343 1.68-.515 2.758-.515 1.146 0 2.093.189 2.84.566.751.377 1.34.858 1.768 1.44.43.584.733 1.23.91 1.938a8.48 8.48 0 0 1 .265 2.058l-4.429.995c0-.344-.017-.663-.048-.96a2.64 2.64 0 0 0-.212-.806 1.393 1.393 0 0 0-.442-.565c-.184-.14-.441-.207-.767-.207-.305 0-.546.075-.717.222a1.55 1.55 0 0 0-.41.55 2.475 2.475 0 0 0-.195.736c-.033.275-.05.538-.05.79 0 .32.023.606.066.858Zm55.335 10.633c0 2.057-.495 3.578-1.487 4.562-.99.982-2.455 1.474-4.392 1.474-3.899 0-5.847-2.011-5.847-6.036V32.687c0-2.058.515-3.573 1.552-4.545 1.034-.972 2.466-1.457 4.295-1.457 2.003 0 3.485.485 4.443 1.457.958.972 1.436 2.487 1.436 4.545v12.246Zm-5.879-13.893c-.375 0-.696.115-.96.345-.262.228-.395.604-.395 1.13v12.623c0 .549.133.931.395 1.15.264.216.585.326.96.326.373 0 .687-.11.94-.326.253-.219.38-.601.38-1.15V32.516c0-.527-.127-.903-.38-1.131a1.348 1.348 0 0 0-.94-.345Zm-8.82 19.722h-4.494V39.615h-.131l-1.085 3.705-.889 2.78h-2.993l-.952-3.055-1.054-3.532h-.164v11.249h-4.494V26.891h4.198l2.278 6.379 1.554 4.734h.198l1.585-4.836 2.248-6.277h4.195v23.871Zm-19.194-5.83c0 2.058-.496 3.58-1.489 4.563-.989.982-2.453 1.474-4.392 1.474-3.9 0-5.847-2.011-5.847-6.036V26.926h4.492v18.11c0 .549.133.931.398 1.148.263.217.582.325.957.325.374 0 .689-.108.941-.325.254-.217.379-.6.379-1.148v-18.11h4.561v18.007Z"/></svg>