<svg xmlns="http://www.w3.org/2000/svg" width="250" height="80" fill="none"><path fill="#000" d="M77.575 7.336h1.304l2.79 8.694 2.784-8.694h1.303L82.175 18h-1.026L77.575 7.336Zm-.425 0h1.143l.198 6.504V18h-1.34V7.336Zm7.881 0h1.143V18h-1.34v-4.16l.197-6.504Zm10.393 4.41v1.852c0 .752-.083 1.414-.249 1.985-.16.566-.398 1.04-.71 1.42a2.97 2.97 0 0 1-1.128.858c-.44.19-.935.285-1.487.285a3.626 3.626 0 0 1-1.457-.285 3.031 3.031 0 0 1-1.136-.857c-.317-.381-.564-.855-.74-1.421-.17-.571-.256-1.233-.256-1.985v-1.853c0-.752.086-1.411.257-1.977.17-.572.415-1.048.732-1.429.317-.38.696-.666 1.135-.857.44-.195.926-.293 1.458-.293.551 0 1.047.098 1.487.293.444.19.82.476 1.127.857.313.381.552.857.718 1.429.166.566.25 1.225.25 1.977Zm-1.333 1.852V11.73c0-.585-.048-1.088-.146-1.508-.098-.425-.242-.772-.432-1.04a1.741 1.741 0 0 0-.703-.594 2.235 2.235 0 0 0-.967-.197c-.347 0-.66.066-.938.197a1.807 1.807 0 0 0-.703.594c-.195.268-.346.615-.454 1.04-.103.42-.154.923-.154 1.508v1.868c0 .591.052 1.099.154 1.524.108.42.259.766.454 1.04.2.268.44.468.718.6.278.127.588.19.93.19.366 0 .689-.063.967-.19.283-.132.518-.332.703-.6.19-.274.332-.62.425-1.04.098-.425.146-.933.146-1.524Zm9.206-1.677v1.15h-4.62v-1.15h4.62Zm-4.438-4.585V18h-1.347V7.336h1.347Zm5.632 0V18h-1.347V7.336h1.347Zm3.728 8.218 4.153-8.218h1.348V18h-1.348V9.775L108.219 18h-1.34V7.336h1.34v8.218Zm11.104-8.218V18h-1.333V7.336h1.333Zm2.805 0v1.157h-6.936V7.336h6.936Zm8.306 4.41v1.852c0 .752-.083 1.414-.249 1.985-.162.566-.398 1.04-.711 1.42-.312.382-.688.667-1.128.858-.439.19-.935.285-1.487.285a3.623 3.623 0 0 1-1.457-.285 3.023 3.023 0 0 1-1.135-.857c-.318-.381-.564-.855-.74-1.421-.171-.571-.256-1.233-.256-1.985v-1.853c0-.752.085-1.411.256-1.977.171-.572.415-1.048.732-1.429.318-.38.696-.666 1.136-.857a3.546 3.546 0 0 1 1.457-.293c.552 0 1.047.098 1.487.293.444.19.82.476 1.128.857.312.381.552.857.718 1.429.166.566.249 1.225.249 1.977Zm-1.333 1.852V11.73c0-.585-.049-1.088-.147-1.508-.098-.425-.242-.772-.432-1.04a1.74 1.74 0 0 0-.703-.594 2.235 2.235 0 0 0-.967-.197c-.347 0-.659.066-.937.197a1.81 1.81 0 0 0-.704.594c-.195.268-.346.615-.454 1.04-.102.42-.153.923-.153 1.508v1.868c0 .591.051 1.099.153 1.524.108.42.259.766.454 1.04.201.268.44.468.718.6.279.127.589.19.93.19.367 0 .689-.063.967-.19a1.73 1.73 0 0 0 .703-.6c.191-.274.332-.62.425-1.04.098-.425.147-.933.147-1.524Zm6.818.22h-2.329v-1.15h2.329c.44 0 .794-.088 1.062-.264a1.49 1.49 0 0 0 .594-.732c.127-.313.19-.67.19-1.07 0-.366-.063-.71-.19-1.032a1.647 1.647 0 0 0-.594-.777c-.268-.2-.622-.3-1.062-.3h-2.05V18h-1.348V7.336h3.398c.689 0 1.27.14 1.744.417a2.71 2.71 0 0 1 1.076 1.158c.249.488.374 1.047.374 1.677 0 .684-.125 1.267-.374 1.75a2.509 2.509 0 0 1-1.076 1.106c-.474.25-1.055.374-1.744.374Zm6.329 1.736 4.152-8.218h1.348V18H146.4V9.775L142.248 18h-1.341V7.336h1.341v8.218Zm13.681-3.633v1.15h-4.621v-1.15h4.621Zm-4.438-4.585V18h-1.348V7.336h1.348Zm5.632 0V18h-1.348V7.336h1.348Zm7.932 0v1.157h-4.189V18h-1.348V7.336h5.537ZM84.086 65.745v1.853c0 .752-.083 1.414-.25 1.985-.16.566-.397 1.04-.71 1.42a2.97 2.97 0 0 1-1.127.858c-.44.19-.935.285-1.487.285a3.627 3.627 0 0 1-1.458-.285 3.031 3.031 0 0 1-1.135-.857c-.317-.381-.564-.855-.74-1.421-.17-.571-.256-1.233-.256-1.985v-1.853c0-.752.085-1.411.256-1.977.171-.572.415-1.048.733-1.429.317-.38.695-.666 1.135-.857a3.55 3.55 0 0 1 1.457-.292c.552 0 1.048.097 1.487.292.445.19.82.477 1.128.857.313.381.552.857.718 1.429.166.566.249 1.225.249 1.977Zm-1.333 1.853v-1.867c0-.587-.049-1.09-.147-1.51-.097-.424-.241-.77-.432-1.04a1.74 1.74 0 0 0-.703-.593 2.234 2.234 0 0 0-.967-.197c-.346 0-.659.066-.937.197a1.807 1.807 0 0 0-.703.594c-.196.268-.347.615-.454 1.04-.103.42-.154.922-.154 1.509v1.867c0 .591.051 1.099.154 1.524.107.42.258.766.454 1.04.2.268.44.468.718.6.278.127.588.19.93.19.366 0 .688-.063.966-.19.284-.132.518-.332.704-.6.19-.274.332-.62.424-1.04.098-.425.147-.933.147-1.524Zm8.92-6.262v1.157h-4.189V72h-1.347V61.336h5.537ZM87.2 65.679h2.424c.66 0 1.216.132 1.67.396.459.258.806.622 1.04 1.091.24.469.359 1.018.359 1.648 0 .469-.068.898-.205 1.289-.132.386-.33.723-.593 1.01a2.631 2.631 0 0 1-.96.66 3.53 3.53 0 0 1-1.311.227h-3.486V61.336h1.347v9.514h2.139c.41 0 .74-.095.989-.285.254-.196.44-.45.556-.762.118-.313.176-.647.176-1.004a2.66 2.66 0 0 0-.175-.981 1.519 1.519 0 0 0-.557-.71c-.25-.181-.579-.272-.989-.272h-2.424V65.68Zm7.646-4.343h1.304l2.79 8.694 2.784-8.694h1.303L99.445 72h-1.026l-3.574-10.664Zm-.425 0h1.143l.198 6.504V72h-1.34V61.336Zm7.881 0h1.143V72h-1.34v-4.16l.197-6.504Zm9.192 9.514V72h-4.629v-1.15h4.629Zm-4.387-9.514V72h-1.348V61.336h1.348Zm3.765 4.585v1.15h-4.007v-1.15h4.007Zm.549-4.585v1.157h-4.556v-1.157h4.556ZM119 65.92v1.15h-4.621v-1.15H119Zm-4.438-4.585V72h-1.348V61.336h1.348Zm5.632 0V72h-1.347V61.336h1.347Zm8.108 4.585v1.15h-4.621v-1.15h4.621Zm-4.438-4.585V72h-1.348V61.336h1.348Zm5.632 0V72h-1.348V61.336h1.348Zm3.728 8.218 4.153-8.218h1.348V72h-1.348v-8.225L133.224 72h-1.34V61.336h1.34v8.218Zm9.309-8.218V72h-1.347V61.336h1.347Zm5.486 0-3.853 5.867h-2.168l-.227-1.172h1.583l2.995-4.695h1.67ZM146.627 72l-3.208-4.98.755-1.238L148.268 72h-1.641Zm9.602-6.255v1.853c0 .752-.083 1.414-.249 1.985-.161.566-.398 1.04-.71 1.42-.313.382-.689.667-1.128.858-.439.19-.935.285-1.487.285a3.623 3.623 0 0 1-1.457-.285 3.034 3.034 0 0 1-1.136-.857c-.317-.381-.564-.855-.739-1.421-.171-.571-.257-1.233-.257-1.985v-1.853c0-.752.086-1.411.257-1.977.171-.572.415-1.048.732-1.429a3.04 3.04 0 0 1 1.135-.857c.44-.195.926-.292 1.458-.292.552 0 1.047.097 1.487.292.444.19.82.477 1.128.857.312.381.551.857.717 1.429.166.566.249 1.225.249 1.977Zm-1.333 1.853v-1.867c0-.587-.048-1.09-.146-1.51-.098-.424-.242-.77-.432-1.04a1.746 1.746 0 0 0-.703-.593 2.237 2.237 0 0 0-.967-.197c-.347 0-.659.066-.938.197a1.815 1.815 0 0 0-.703.594c-.195.268-.346.615-.454 1.04-.102.42-.154.922-.154 1.509v1.867c0 .591.052 1.099.154 1.524.108.42.259.766.454 1.04.201.268.44.468.718.6.278.127.588.19.93.19.366 0 .689-.063.967-.19a1.73 1.73 0 0 0 .703-.6c.191-.274.332-.62.425-1.04.098-.425.146-.933.146-1.524Zm6.651-.586h-2.168l-.015-1.135h2.014c.303 0 .572-.068.806-.205.234-.137.418-.332.549-.586.137-.259.205-.567.205-.923 0-.39-.058-.708-.175-.952a1.067 1.067 0 0 0-.52-.542c-.23-.117-.523-.176-.879-.176h-1.699V72h-1.348V61.336h3.047c.459 0 .869.056 1.23.168.362.108.667.279.916.513.254.23.447.523.578.879.132.356.198.784.198 1.282 0 .44-.1.837-.3 1.194-.195.351-.469.64-.821.864a2.982 2.982 0 0 1-1.215.432l-.403.344ZM161.496 72h-2.674l.784-1.15h1.89c.351 0 .649-.078.893-.234a1.48 1.48 0 0 0 .557-.66c.132-.288.198-.627.198-1.017 0-.396-.054-.738-.162-1.026a1.334 1.334 0 0 0-.512-.666c-.235-.157-.542-.235-.923-.235h-1.736l.015-1.135h2.343l.301.41c.439.044.808.19 1.106.44.302.244.529.556.681.937.156.38.234.8.234 1.26 0 .664-.124 1.225-.373 1.684a2.49 2.49 0 0 1-1.04 1.04c-.45.235-.977.352-1.582.352Z"/><path fill="url(#a)" d="M73.92 29.04h7.2v1.7h-7.2v-1.7Zm.18 6.22h8.16V37H72.1V23h9.88v1.74H74.1v10.52Zm17.699 1.9c-1.067 0-2.06-.18-2.98-.54a7.207 7.207 0 0 1-2.36-1.5 7.083 7.083 0 0 1-1.56-2.28c-.374-.867-.56-1.814-.56-2.84 0-1.027.186-1.974.56-2.84a6.859 6.859 0 0 1 1.56-2.26 7.046 7.046 0 0 1 2.36-1.52c.906-.36 1.9-.54 2.98-.54 1.066 0 2.046.18 2.94.54a6.799 6.799 0 0 1 2.36 1.5c.68.64 1.2 1.393 1.56 2.26.373.866.56 1.82.56 2.86 0 1.04-.187 1.993-.56 2.86a6.687 6.687 0 0 1-1.56 2.28 7.207 7.207 0 0 1-2.36 1.5c-.894.346-1.874.52-2.94.52Zm0-1.78a5.61 5.61 0 0 0 2.14-.4 5.056 5.056 0 0 0 1.72-1.12 5.17 5.17 0 0 0 1.14-1.72c.28-.654.42-1.367.42-2.14 0-.773-.14-1.487-.42-2.14a4.958 4.958 0 0 0-1.14-1.7 4.914 4.914 0 0 0-1.72-1.14 5.61 5.61 0 0 0-2.14-.4c-.787 0-1.514.133-2.18.4a5.17 5.17 0 0 0-1.72 1.14 5.206 5.206 0 0 0-1.16 1.7 5.61 5.61 0 0 0-.4 2.14c0 .773.133 1.486.4 2.14.28.653.666 1.227 1.16 1.72.493.48 1.066.853 1.72 1.12.666.267 1.393.4 2.18.4ZM102.276 37V23h6.28c1.613 0 2.853.326 3.72.98.866.64 1.3 1.52 1.3 2.64 0 .76-.174 1.4-.52 1.92-.334.52-.787.92-1.36 1.2-.574.28-1.194.42-1.86.42l.36-.6c.8 0 1.506.14 2.12.42a3.4 3.4 0 0 1 1.46 1.24c.36.533.54 1.2.54 2 0 1.2-.454 2.133-1.36 2.8-.894.653-2.227.98-4 .98h-6.68Zm2-1.62h4.6c1.106 0 1.953-.187 2.54-.56.586-.373.88-.96.88-1.76 0-.814-.294-1.407-.88-1.78-.587-.373-1.434-.56-2.54-.56h-4.78V29.1h4.28c1.013 0 1.8-.187 2.36-.56.56-.373.84-.933.84-1.68 0-.747-.28-1.307-.84-1.68-.56-.373-1.347-.56-2.36-.56h-4.1v10.76ZM117.413 37V23h1.64l6.28 10.58h-.88l6.2-10.58h1.64l.02 14h-1.92l-.02-10.98h.46l-5.52 9.28h-.92l-5.56-9.28h.5V37h-1.92Zm20.921-7.96h7.2v1.7h-7.2v-1.7Zm.18 6.22h8.16V37h-10.16V23h9.88v1.74h-7.88v10.52ZM149.913 37V23h1.64l9.26 11.5h-.86V23h2v14h-1.64l-9.26-11.5h.86V37h-2Zm15.27-4.66v-1.66h5.38v1.66h-5.38Z"/><path fill="url(#b)" d="M88.42 56.16c-1.067 0-2.06-.18-2.98-.54a7.207 7.207 0 0 1-2.36-1.5 7.083 7.083 0 0 1-1.56-2.28c-.373-.867-.56-1.814-.56-2.84 0-1.027.187-1.974.56-2.84a6.859 6.859 0 0 1 1.56-2.26 7.046 7.046 0 0 1 2.36-1.52c.907-.36 1.9-.54 2.98-.54 1.067 0 2.047.18 2.94.54a6.799 6.799 0 0 1 2.36 1.5c.68.64 1.2 1.393 1.56 2.26.373.867.56 1.82.56 2.86 0 1.04-.187 1.993-.56 2.86a6.687 6.687 0 0 1-1.56 2.28 7.207 7.207 0 0 1-2.36 1.5c-.893.346-1.873.52-2.94.52Zm0-1.78a5.61 5.61 0 0 0 2.14-.4 5.056 5.056 0 0 0 1.72-1.12 5.17 5.17 0 0 0 1.14-1.72c.28-.654.42-1.367.42-2.14 0-.773-.14-1.487-.42-2.14a4.958 4.958 0 0 0-1.14-1.7 4.914 4.914 0 0 0-1.72-1.14 5.61 5.61 0 0 0-2.14-.4c-.787 0-1.513.133-2.18.4a5.17 5.17 0 0 0-1.72 1.14 5.206 5.206 0 0 0-1.16 1.7 5.61 5.61 0 0 0-.4 2.14c0 .773.133 1.486.4 2.14.28.653.667 1.227 1.16 1.72.493.48 1.067.853 1.72 1.12.667.267 1.393.4 2.18.4ZM98.897 56V42h6.28c1.613 0 2.853.327 3.72.98.867.64 1.3 1.52 1.3 2.64 0 .76-.173 1.4-.52 1.92a3.3 3.3 0 0 1-1.36 1.2 4.18 4.18 0 0 1-1.86.42l.36-.6c.8 0 1.507.14 2.12.42a3.4 3.4 0 0 1 1.46 1.24c.36.533.54 1.2.54 2 0 1.2-.453 2.133-1.36 2.8-.893.653-2.227.98-4 .98h-6.68Zm2-1.62h4.6c1.107 0 1.953-.187 2.54-.56.587-.373.88-.96.88-1.76 0-.814-.293-1.407-.88-1.78s-1.433-.56-2.54-.56h-4.78V48.1h4.28c1.013 0 1.8-.187 2.36-.56.56-.373.84-.934.84-1.68 0-.747-.28-1.307-.84-1.68-.56-.373-1.347-.56-2.36-.56h-4.1v10.76ZM114.034 56V42h1.64l6.28 10.58h-.88l6.2-10.58h1.64l.02 14h-1.92l-.02-10.98h.46l-5.52 9.28h-.92l-5.56-9.28h.5V56h-1.92Zm20.921-7.96h7.2v1.7h-7.2v-1.7Zm.18 6.22h8.16V56h-10.16V42h9.88v1.74h-7.88v10.52ZM146.534 56V42h1.64l9.26 11.5h-.86V42h2v14h-1.64l-9.26-11.5h.86V56h-2Z"/><defs><linearGradient id="a" x1="121.332" x2="121.332" y1="22.84" y2="37.16" gradientUnits="userSpaceOnUse"><stop stop-color="#99B0D5"/><stop offset=".615" stop-color="#1386C3"/></linearGradient><linearGradient id="b" x1="119.767" x2="119.767" y1="41.84" y2="56.16" gradientUnits="userSpaceOnUse"><stop offset=".438" stop-color="#1386C3"/><stop offset="1" stop-color="#99B0D5"/></linearGradient></defs></svg>