<svg width="50" height="50" viewBox="0 0 50 50" fill="none" xmlns="http://www.w3.org/2000/svg">
<path d="M42.6788 7.32123C32.9155 -2.44041 17.0845 -2.44041 7.32123 7.32123C-2.44041 17.0845 -2.44041 32.9155 7.32123 42.6788C17.0845 52.4404 32.9155 52.4404 42.6788 42.6788C52.4404 32.9155 52.4404 17.0845 42.6788 7.32123ZM35.1721 37.249C33.1528 36.0836 22.2126 29.7803 22.2126 29.7803H22.1154C22.1154 29.7803 22.1154 11.5312 22.1154 9.01081C22.1154 6.49046 26.0714 6.3998 26.0714 9.01081C26.0714 11.6218 26.0714 27.4116 26.0714 27.4116C26.0714 27.4116 34.6941 32.3056 37.1501 33.8091C39.6064 35.3122 37.1913 38.4161 35.1721 37.249Z" fill="url(#paint0_linear_119_105)"/>
<defs>
<linearGradient id="paint0_linear_119_105" x1="47" y1="11.5" x2="30.6476" y2="47.1132" gradientUnits="userSpaceOnUse">
<stop offset="0.285118" stop-color="#6FA0FF"/>
<stop offset="1" stop-color="#D868FF"/>
</linearGradient>
</defs>
</svg>
