<svg xmlns="http://www.w3.org/2000/svg" width="34" height="30" fill="none"><path fill="#50AF95" fill-rule="evenodd" d="M6.141.143.025 12.985a.249.249 0 0 0 .054.29l16.517 15.821a.252.252 0 0 0 .35 0l16.517-15.82a.25.25 0 0 0 .054-.29L27.4.144A.247.247 0 0 0 27.175 0H6.368a.247.247 0 0 0-.227.143Z" clip-rule="evenodd"/><path fill="#fff" fill-rule="evenodd" d="M18.893 14.303c-.119.01-.731.046-2.098.046-1.087 0-1.859-.033-2.13-.046-4.2-.184-7.336-.915-7.336-1.79 0-.876 3.136-1.605 7.337-1.793v2.855c.274.02 1.06.067 2.148.067 1.304 0 1.958-.055 2.075-.066v-2.854c4.192.187 7.32.917 7.32 1.79 0 .874-3.127 1.605-7.32 1.79l.004.002Zm0-3.877V7.871h5.85V3.974H8.815v3.897h5.85v2.554c-4.755.219-8.33 1.16-8.33 2.288s3.575 2.069 8.33 2.288v8.189h4.227v-8.192c4.744-.218 8.313-1.159 8.313-2.286s-3.566-2.067-8.313-2.287l.001.001Z" clip-rule="evenodd"/><path fill="#343434" d="m27.24 16.917-.083.279v8.1l.082.082L31 23.155l-3.76-6.238Z"/><path fill="#8C8C8C" d="m27.24 16.917-3.76 6.238 3.76 2.223v-8.462Z"/><path fill="#3C3C3B" d="m27.24 26.09-.047.056v2.885l.046.136 3.762-5.299-3.762 2.222Z"/><path fill="#8C8C8C" d="M27.24 29.167v-3.078l-3.76-2.22 3.76 5.298Z"/><path fill="#141414" d="M27.24 25.378 31 23.155l-3.76-1.709v3.932Z"/><path fill="#393939" d="m23.48 23.155 3.76 2.223v-3.932l-3.76 1.71Z"/></svg>