<svg width="35" height="35" fill="none" xmlns="http://www.w3.org/2000/svg"><path fill-rule="evenodd" clip-rule="evenodd" d="M11.188 13.932H9.032L7.415 7.58c-.077-.292-.24-.55-.48-.672a6.881 6.881 0 0 0-1.977-.673v-.244h3.474c.48 0 .84.367.9.794l.838 4.58 2.156-5.374h2.096l-3.234 7.94Zm4.433 0h-2.037l1.678-7.94h2.036l-1.677 7.94Zm4.312-5.74c.06-.428.42-.673.84-.673a3.7 3.7 0 0 1 1.976.367l.36-1.71a5.026 5.026 0 0 0-1.857-.367c-1.977 0-3.415 1.1-3.415 2.626 0 1.161 1.018 1.77 1.738 2.138.778.366 1.078.61 1.018.977 0 .55-.6.794-1.198.794-.72 0-1.438-.183-2.097-.489l-.36 1.71c.72.305 1.498.428 2.217.428 2.217.06 3.594-1.038 3.594-2.687 0-2.077-2.816-2.199-2.816-3.114Zm9.944 5.74-1.617-7.94h-1.737c-.36 0-.72.244-.84.61l-2.994 7.33h2.097l.418-1.16h2.576l.24 1.16h1.857ZM26.823 8.13l.598 2.992h-1.677l1.079-2.992Z" fill="#172B85"/><path fill-rule="evenodd" clip-rule="evenodd" d="M17.71 28.987a7.582 7.582 0 0 1-4.903 1.784c-4.173 0-7.557-3.344-7.557-7.468 0-4.124 3.384-7.467 7.557-7.467 1.87 0 3.583.671 4.902 1.784a7.581 7.581 0 0 1 4.902-1.784c4.174 0 7.558 3.343 7.558 7.467s-3.384 7.468-7.558 7.468a7.582 7.582 0 0 1-4.902-1.784Z" fill="#ED0006"/><path fill-rule="evenodd" clip-rule="evenodd" d="M17.71 28.987a7.415 7.415 0 0 0 2.655-5.684 7.415 7.415 0 0 0-2.656-5.683 7.581 7.581 0 0 1 4.902-1.784c4.174 0 7.558 3.343 7.558 7.467s-3.384 7.468-7.558 7.468a7.581 7.581 0 0 1-4.902-1.784Z" fill="#F9A000"/><path fill-rule="evenodd" clip-rule="evenodd" d="M17.71 28.987a7.415 7.415 0 0 0 2.655-5.683 7.415 7.415 0 0 0-2.656-5.684 7.415 7.415 0 0 0-2.655 5.683 7.415 7.415 0 0 0 2.655 5.684Z" fill="#FF5E00"/></svg>