<svg width="34" height="30" viewBox="0 0 34 30" fill="none" xmlns="http://www.w3.org/2000/svg">
<path fill-rule="evenodd" clip-rule="evenodd" d="M6.14117 0.143256L0.0251443 12.9846C0.00187077 13.0324 -0.00550403 13.0864 0.00409764 13.1386C0.0136993 13.1908 0.0397729 13.2386 0.0785076 13.2751L16.5964 29.0965C16.6434 29.1416 16.7058 29.1667 16.7708 29.1667C16.8359 29.1667 16.8983 29.1416 16.9452 29.0965L33.4632 13.2761C33.5019 13.2396 33.528 13.1918 33.5376 13.1396C33.5472 13.0874 33.5398 13.0334 33.5166 12.9856L27.4005 0.144248C27.3808 0.10111 27.349 0.0645792 27.309 0.039C27.2691 0.0134354 27.2226 -9.81336e-05 27.1752 1.85331e-05H6.36845C6.32078 -0.0005648 6.27395 0.0126333 6.23363 0.0380521C6.19329 0.0634708 6.16118 0.100002 6.14117 0.143256Z" fill="#50AF95"/>
<path fill-rule="evenodd" clip-rule="evenodd" d="M18.8931 14.3035C18.7745 14.3124 18.1619 14.3489 16.7951 14.3489C15.7081 14.3489 14.9364 14.3164 14.6655 14.3035C10.4647 14.1188 7.32909 13.3878 7.32909 12.5127C7.32909 11.6374 10.4647 10.9075 14.6655 10.7198V13.5755C14.9403 13.5952 15.7269 13.6417 16.814 13.6417C18.1183 13.6417 18.7716 13.5873 18.8892 13.5765V10.7218C23.0811 10.9085 26.2099 11.6394 26.2099 12.5127C26.2099 13.3858 23.0822 14.1169 18.8892 14.3025L18.8931 14.3035ZM18.8931 10.4264V7.87098H24.7434V3.97412H8.81535V7.87098H14.6645V10.4254C9.9103 10.6437 6.33496 11.5851 6.33496 12.7132C6.33496 13.8412 9.9103 14.7816 14.6645 15.0009V23.1897H18.8921V14.998C23.6355 14.7797 27.2049 13.8392 27.2049 12.7122C27.2049 11.5851 23.6385 10.6447 18.8921 10.4254L18.8931 10.4264Z" fill="white"/>
<path d="M27.2393 16.9167L27.1572 17.1959V25.2959L27.2393 25.3779L30.9992 23.1554L27.2393 16.9167Z" fill="#343434"/>
<path d="M27.2394 16.9167L23.4795 23.1554L27.2394 25.3779V21.4463V16.9167Z" fill="#8C8C8C"/>
<path d="M27.2391 26.0896L27.1929 26.1459V29.0314L27.2391 29.1666L31.0013 23.8682L27.2391 26.0896Z" fill="#3C3C3B"/>
<path d="M27.2394 29.1666V26.0895L23.4795 23.8682L27.2394 29.1666Z" fill="#8C8C8C"/>
<path d="M27.2393 25.3777L30.9991 23.1552L27.2393 21.4463V25.3777Z" fill="#141414"/>
<path d="M23.4795 23.1552L27.2394 25.3777V21.4463L23.4795 23.1552Z" fill="#393939"/>
</svg>
