<svg xmlns="http://www.w3.org/2000/svg" width="34" height="30" fill="none"><path fill="#50AF95" fill-rule="evenodd" d="M6.141.143.025 12.985a.249.249 0 0 0 .054.29l16.517 15.821a.252.252 0 0 0 .35 0l16.517-15.82a.25.25 0 0 0 .054-.29L27.4.144A.247.247 0 0 0 27.175 0H6.368a.247.247 0 0 0-.227.143Z" clip-rule="evenodd"/><path fill="#fff" fill-rule="evenodd" d="M18.893 14.303c-.119.01-.731.046-2.098.046-1.087 0-1.859-.033-2.13-.046-4.2-.184-7.336-.915-7.336-1.79 0-.876 3.136-1.605 7.337-1.793v2.855c.274.02 1.06.067 2.148.067 1.304 0 1.958-.055 2.075-.066v-2.854c4.192.187 7.32.917 7.32 1.79 0 .874-3.127 1.605-7.32 1.79l.004.002Zm0-3.877V7.871h5.85V3.974H8.815v3.897h5.85v2.554c-4.755.219-8.33 1.16-8.33 2.288s3.575 2.069 8.33 2.288v8.189h4.227v-8.192c4.744-.218 8.313-1.159 8.313-2.286s-3.566-2.067-8.313-2.287l.001.001Z" clip-rule="evenodd"/><path fill="#FE0000" d="M25.667 29.604a6.125 6.125 0 1 0 0-12.25 6.125 6.125 0 0 0 0 12.25Z"/><path fill="#fff" d="M29.691 21.666c-.347-.243-.719-.502-1.082-.76l-.026-.017a.493.493 0 0 0-.143-.08l-.004-.003c-.972-.235-1.96-.476-2.916-.709l-2.6-.632a2.721 2.721 0 0 0-.069-.018.662.662 0 0 0-.265-.034.181.181 0 0 0-.074.028l-.024.02a.295.295 0 0 0-.068.108l-.006.016v.093l.003.014c.549 1.536 1.111 3.094 1.653 4.603.418 1.16.852 2.363 1.276 3.544.026.08.1.133.192.14h.02a.226.226 0 0 0 .201-.11l1.59-2.32 1.163-1.694c.16-.231.318-.464.476-.695.262-.382.53-.775.798-1.159l.014-.02v-.024c.006-.07.008-.215-.109-.291Zm-1.863.845c-.374.195-.755.396-1.139.595l.67-.72.856-.917.006-.006c.024-.032.055-.062.087-.094.022-.022.046-.045.068-.07.148.102.3.206.444.309.104.074.21.148.319.222-.442.226-.884.456-1.311.681Zm-.96-.096c-.287.311-.585.63-.88.946-.572-.695-1.157-1.4-1.723-2.08l-.773-.93-.002-.002c-.058-.067-.114-.14-.17-.207l-.113-.137c.233.06.468.117.699.17l.62.151 3.497.85c-.388.414-.778.833-1.155 1.239Zm-1.01 3.914c.022-.211.046-.428.066-.64l.054-.513c.028-.267.058-.544.082-.815l.006-.048c.02-.173.04-.352.053-.53a.647.647 0 0 1 .072-.035c.03-.014.06-.026.09-.044.464-.243.928-.486 1.394-.727.464-.24.94-.49 1.412-.737-.43.623-.862 1.251-1.28 1.864-.359.524-.728 1.064-1.096 1.596-.144.213-.295.43-.438.639a73 73 0 0 0-.486.71c.02-.24.044-.483.07-.72Zm-2.8-5.85c-.026-.072-.054-.147-.078-.217a853.49 853.49 0 0 0 1.62 1.952c.276.332.55.66.826.994.054.062.108.129.16.193.069.082.137.169.211.25-.024.208-.044.417-.066.617-.014.141-.028.282-.044.424v.002c-.006.09-.018.181-.028.27l-.046.399-.002.014c-.037.406-.08.815-.123 1.213l-.052.502-.032-.088c-.03-.08-.06-.165-.089-.248l-.214-.596-2.043-5.681Z"/></svg>