<svg width="35" height="35" viewBox="0 0 35 35" fill="none" xmlns="http://www.w3.org/2000/svg">
<path d="M34.4764 21.7333C32.1389 31.1085 22.6423 36.8139 13.2651 34.4761C3.89177 32.1388 -1.81439 22.6427 0.524159 13.2685C2.86065 3.89234 12.3572 -1.81359 21.7316 0.52366C31.1081 2.86092 36.8139 12.358 34.4761 21.7335L34.4764 21.7333Z" fill="#F7931A"/>
<path d="M25.241 14.9805C25.5894 12.6516 23.8162 11.3998 21.3915 10.5647L22.178 7.41001L20.2575 6.9315L19.4917 10.0031C18.9869 9.87719 18.4684 9.75854 17.953 9.64092L18.7243 6.54905L16.8049 6.07056L16.0179 9.22419C15.6 9.12907 15.1897 9.03506 14.7916 8.93601L14.7939 8.92609L12.1453 8.26478L11.6344 10.3158C11.6344 10.3158 13.0593 10.6424 13.0293 10.6625C13.807 10.8566 13.9476 11.3714 13.9243 11.7794L13.0282 15.3733C13.0818 15.3868 13.1513 15.4066 13.2279 15.4374C13.1638 15.4214 13.0957 15.404 13.0249 15.3871L11.769 20.4217C11.6739 20.658 11.4327 21.0126 10.8889 20.8779C10.9082 20.9057 9.49304 20.5296 9.49304 20.5296L8.53952 22.7277L11.0388 23.3507C11.5038 23.4673 11.9594 23.5893 12.4081 23.7039L11.6134 26.8948L13.5317 27.3733L14.3187 24.2163C14.8429 24.3586 15.3513 24.4897 15.8493 24.6135L15.0649 27.7555L16.9856 28.2341L17.7802 25.0493C21.0552 25.6689 23.5176 25.4191 24.5542 22.4573C25.3894 20.0726 24.5126 18.6971 22.7897 17.8002C24.0445 17.5107 24.9898 16.6855 25.2418 14.9807L25.2412 14.9804L25.241 14.9805ZM20.853 21.1329C20.2595 23.5175 16.2441 22.2284 14.9422 21.9052L15.9968 17.678C17.2986 18.0029 21.4732 18.646 20.853 21.1329ZM21.447 14.946C20.9056 17.1151 17.5634 16.013 16.4794 15.7428L17.4354 11.9089C18.5196 12.1791 22.0109 12.6834 21.447 14.946Z" fill="white"/>
</svg>
