<svg width="34" height="30" viewBox="0 0 34 30" fill="none" xmlns="http://www.w3.org/2000/svg">
<path fill-rule="evenodd" clip-rule="evenodd" d="M6.14117 0.143256L0.0251443 12.9846C0.00187077 13.0324 -0.00550403 13.0864 0.00409764 13.1386C0.0136993 13.1908 0.0397729 13.2386 0.0785076 13.2751L16.5964 29.0965C16.6434 29.1416 16.7058 29.1667 16.7708 29.1667C16.8359 29.1667 16.8983 29.1416 16.9452 29.0965L33.4632 13.2761C33.5019 13.2396 33.528 13.1918 33.5376 13.1396C33.5472 13.0874 33.5398 13.0334 33.5166 12.9856L27.4005 0.144248C27.3808 0.10111 27.349 0.0645792 27.309 0.039C27.2691 0.0134354 27.2226 -9.81336e-05 27.1752 1.85331e-05H6.36845C6.32078 -0.0005648 6.27395 0.0126333 6.23363 0.0380521C6.19329 0.0634708 6.16118 0.100002 6.14117 0.143256Z" fill="#50AF95"/>
<path fill-rule="evenodd" clip-rule="evenodd" d="M18.8931 14.3035C18.7745 14.3124 18.1619 14.3489 16.7951 14.3489C15.7081 14.3489 14.9364 14.3164 14.6655 14.3035C10.4647 14.1188 7.32909 13.3878 7.32909 12.5127C7.32909 11.6374 10.4647 10.9075 14.6655 10.7198V13.5755C14.9403 13.5952 15.7269 13.6417 16.814 13.6417C18.1183 13.6417 18.7716 13.5873 18.8892 13.5765V10.7218C23.0811 10.9085 26.2099 11.6394 26.2099 12.5127C26.2099 13.3858 23.0822 14.1169 18.8892 14.3025L18.8931 14.3035ZM18.8931 10.4264V7.87098H24.7434V3.97412H8.81535V7.87098H14.6645V10.4254C9.9103 10.6437 6.33496 11.5851 6.33496 12.7132C6.33496 13.8412 9.9103 14.7816 14.6645 15.0009V23.1897H18.8921V14.998C23.6355 14.7797 27.2049 13.8392 27.2049 12.7122C27.2049 11.5851 23.6385 10.6447 18.8921 10.4254L18.8931 10.4264Z" fill="white"/>
<path d="M25.667 29.6042C29.0497 29.6042 31.792 26.862 31.792 23.4792C31.792 20.0965 29.0497 17.3542 25.667 17.3542C22.2842 17.3542 19.542 20.0965 19.542 23.4792C19.542 26.862 22.2842 29.6042 25.667 29.6042Z" fill="#FE0000"/>
<path d="M29.6912 21.6658C29.3439 21.4228 28.9723 21.1638 28.6089 20.9067C28.6008 20.9008 28.5928 20.8946 28.5828 20.8886C28.5425 20.8586 28.4964 20.8264 28.4401 20.8083L28.4362 20.8063C27.4642 20.5713 26.4762 20.3304 25.5203 20.0975C24.6527 19.8866 23.7872 19.6758 22.9196 19.4649C22.8976 19.4588 22.8754 19.4528 22.8514 19.4468C22.7731 19.4246 22.6826 19.4006 22.5862 19.4127C22.5581 19.4166 22.534 19.4267 22.512 19.4408L22.4878 19.4608C22.4497 19.497 22.4296 19.5432 22.4196 19.5693L22.4136 19.5853V19.6776L22.4175 19.6918C22.9658 21.228 23.5282 22.7864 24.0704 24.2946C24.4881 25.4553 24.9218 26.6583 25.3456 27.8391C25.3717 27.9194 25.4459 27.9716 25.5383 27.9796H25.5583C25.6448 27.9796 25.7211 27.9375 25.7593 27.8691L27.3497 25.5496C27.7372 24.9854 28.1248 24.4191 28.5125 23.8548C28.6711 23.6238 28.8298 23.3909 28.9883 23.16C29.2495 22.7784 29.5186 22.3848 29.7856 22.0012L29.7997 21.9811V21.957C29.8057 21.8867 29.8078 21.7422 29.6912 21.6658ZM27.8276 22.5113C27.4542 22.706 27.0725 22.9068 26.689 23.1058C26.9119 22.8667 27.1368 22.6258 27.3598 22.3868C27.6389 22.0855 27.93 21.7743 28.2153 21.4691L28.2212 21.4629C28.2453 21.4309 28.2755 21.4008 28.3076 21.3686C28.3297 21.3466 28.3538 21.3244 28.3758 21.2983C28.5244 21.4008 28.6751 21.5052 28.8197 21.6076C28.9242 21.6818 29.0306 21.7562 29.139 21.8304C28.6972 22.0555 28.2554 22.2863 27.8276 22.5113ZM26.8678 22.4149C26.5806 22.7261 26.2834 23.0455 25.9881 23.3608C25.4158 22.6659 24.8315 21.9611 24.2651 21.2802C24.0081 20.971 23.749 20.6597 23.492 20.3505L23.49 20.3485C23.4318 20.2821 23.3755 20.2099 23.3192 20.1415C23.2832 20.0955 23.245 20.0513 23.2068 20.005C23.4398 20.0653 23.6747 20.1216 23.9056 20.1758C24.1084 20.2239 24.3193 20.2741 24.5261 20.3263C25.6909 20.6095 26.8577 20.8927 28.0225 21.1758C27.6348 21.5895 27.2453 22.0092 26.8678 22.4149ZM25.8576 26.3288C25.8797 26.1179 25.9038 25.9011 25.9239 25.6883C25.942 25.5175 25.9601 25.3428 25.9782 25.1761C26.0062 24.9091 26.0364 24.6319 26.0604 24.3608L26.0664 24.3127C26.0865 24.14 26.1067 23.9612 26.1186 23.7824C26.1408 23.7705 26.1648 23.7584 26.1909 23.7483C26.2211 23.7343 26.2512 23.7222 26.2814 23.7041C26.7453 23.4611 27.2092 23.2182 27.6751 22.9771C28.139 22.7362 28.6148 22.4871 29.0868 22.2402C28.657 22.8626 28.2253 23.4913 27.8075 24.1038C27.4482 24.628 27.0786 25.1681 26.7111 25.7003C26.5665 25.9132 26.4158 26.13 26.2733 26.3389C26.1126 26.5719 25.948 26.8108 25.7873 27.0498C25.8074 26.8088 25.8315 26.5658 25.8576 26.3288ZM23.0582 20.479C23.0321 20.4067 23.0039 20.3324 22.9798 20.2621C23.5221 20.9168 24.0683 21.5755 24.6005 22.2141C24.8757 22.5455 25.1507 22.8748 25.4259 23.2081C25.48 23.2704 25.5343 23.3366 25.5865 23.4009C25.6547 23.4833 25.7231 23.5696 25.7973 23.6519C25.7733 23.8588 25.7532 24.0677 25.7311 24.2685C25.717 24.4091 25.703 24.5496 25.6869 24.6921V24.6942C25.6808 24.7846 25.6689 24.875 25.6588 24.9632C25.6448 25.0857 25.6126 25.363 25.6126 25.363L25.6107 25.377C25.5745 25.7827 25.5303 26.1923 25.4882 26.59C25.4701 26.7546 25.4539 26.9232 25.4358 27.092C25.4259 27.0619 25.4138 27.0317 25.4037 27.0036C25.3737 26.9232 25.3435 26.8389 25.3154 26.7565L25.1006 26.1602C24.4198 24.2664 23.7389 22.3747 23.0582 20.479Z" fill="white"/>
</svg>
