<svg width="35" height="35" viewBox="0 0 35 35" fill="none" xmlns="http://www.w3.org/2000/svg">
<path fill-rule="evenodd" clip-rule="evenodd" d="M11.1882 13.9317H9.03169L7.41454 7.58067C7.33777 7.28852 7.1748 7.03025 6.93507 6.90852C6.33679 6.60261 5.67752 6.35915 4.95831 6.23638V5.99186H8.43235C8.91183 5.99186 9.27142 6.35915 9.33136 6.78573L10.1704 11.3669L12.3259 5.99186H14.4225L11.1882 13.9317ZM15.6212 13.9317H13.5845L15.2616 5.99186H17.2983L15.6212 13.9317ZM19.9334 8.19152C19.9933 7.76388 20.3529 7.51938 20.7723 7.51938C21.4316 7.45798 22.1499 7.58076 22.7491 7.88561L23.1087 6.17613C22.5094 5.93162 21.8502 5.80884 21.2518 5.80884C19.2751 5.80884 17.8367 6.90861 17.8367 8.43498C17.8367 9.59614 18.8555 10.2058 19.5748 10.5731C20.3529 10.9394 20.6525 11.1839 20.5925 11.5501C20.5925 12.0995 19.9933 12.344 19.3949 12.344C18.6758 12.344 17.9566 12.1609 17.2983 11.855L16.9388 13.5655C17.6579 13.8704 18.4361 13.9932 19.1552 13.9932C21.3717 14.0535 22.7491 12.9548 22.7491 11.3056C22.7491 9.22885 19.9334 9.10712 19.9334 8.19152ZM29.877 13.9317L28.2599 5.99186H26.5228C26.1632 5.99186 25.8036 6.23638 25.6837 6.60261L22.6892 13.9317H24.7858L25.2044 12.7715H27.7804L28.0201 13.9317H29.877ZM26.8225 8.13008L27.4207 11.1225H25.7436L26.8225 8.13008Z" fill="#172B85"/>
<path fill-rule="evenodd" clip-rule="evenodd" d="M17.7094 28.9869C16.3896 30.0992 14.6778 30.7707 12.8073 30.7707C8.63352 30.7707 5.25 27.4275 5.25 23.3033C5.25 19.1793 8.63352 15.8359 12.8073 15.8359C14.6778 15.8359 16.3896 16.5075 17.7094 17.6199C19.0291 16.5075 20.7409 15.8359 22.6115 15.8359C26.7852 15.8359 30.1687 19.1793 30.1687 23.3033C30.1687 27.4275 26.7852 30.7707 22.6115 30.7707C20.7409 30.7707 19.0291 30.0992 17.7094 28.9869Z" fill="#ED0006"/>
<path fill-rule="evenodd" clip-rule="evenodd" d="M17.7093 28.9869C19.3342 27.6172 20.3646 25.5792 20.3646 23.3033C20.3646 21.0275 19.3342 18.9894 17.7093 17.6198C19.0289 16.5075 20.7407 15.8359 22.6113 15.8359C26.7851 15.8359 30.1686 19.1793 30.1686 23.3033C30.1686 27.4275 26.7851 30.7707 22.6113 30.7707C20.7407 30.7707 19.0289 30.0992 17.7093 28.9869Z" fill="#F9A000"/>
<path fill-rule="evenodd" clip-rule="evenodd" d="M17.7094 28.9871C19.3343 27.6174 20.3646 25.5794 20.3646 23.3035C20.3646 21.0278 19.3343 18.9898 17.7094 17.6201C16.0844 18.9898 15.0541 21.0278 15.0541 23.3035C15.0541 25.5794 16.0844 27.6174 17.7094 28.9871Z" fill="#FF5E00"/>
</svg>
