<svg xmlns="http://www.w3.org/2000/svg" width="35" height="35" fill="none"><path fill="#F7931A" d="M34.476 21.733c-2.337 9.375-11.834 15.08-21.21 12.743C3.891 32.14-1.815 22.643.523 13.27 2.861 3.891 12.357-1.815 21.732.524c9.376 2.337 15.082 11.834 12.744 21.21Z"/><path fill="#fff" d="M25.241 14.98c.348-2.328-1.425-3.58-3.85-4.415l.787-3.155-1.92-.479-.766 3.072a79.34 79.34 0 0 0-1.539-.362l.771-3.092-1.92-.478-.786 3.153a63.3 63.3 0 0 1-1.226-.288l.002-.01-2.649-.661-.51 2.05s1.424.327 1.394.348c.778.194.919.708.895 1.116l-.896 3.594c.054.014.123.034.2.064l-.203-.05-1.256 5.035c-.095.236-.336.59-.88.456.02.028-1.396-.348-1.396-.348l-.953 2.198 2.499.623c.465.116.92.238 1.37.353l-.796 3.19 1.919.48.787-3.158a73.58 73.58 0 0 0 1.53.397l-.784 3.143 1.92.478.795-3.185c3.275.62 5.738.37 6.774-2.592.835-2.384-.041-3.76-1.764-4.657 1.255-.29 2.2-1.114 2.452-2.82h-.001Zm-4.388 6.153c-.594 2.384-4.609 1.095-5.91.772l1.054-4.227c1.302.325 5.476.968 4.856 3.455Zm.594-6.187c-.541 2.17-3.884 1.067-4.968.797l.956-3.834c1.085.27 4.576.774 4.012 3.037Z"/></svg>